# MagicaVoxel @ Ephtracy

# group
o 

# material
mtllib Shield and flag-0.mtl
usemtl palette

# normals
vn 0 0 1
vn 0 0 -1
vn 0 -1 0
vn 0 1 0
vn -1 0 0
vn 1 0 0

# texcoords
vt 0.00585938 0.5
vt 0.00976562 0.5
vt 0.0410156 0.5
vt 0.0449219 0.5
vt 0.0566406 0.5
vt 0.263672 0.5

# verts
v -0.1 -0.1 0.1
v -0.1 0.1 0.1
v 0.1 -0.1 0.1
v 0.1 0.1 0.1
v -0.3 -0.1 0
v -0.3 0.1 0
v -0.2 -0.2 0
v -0.2 -0.1 0
v -0.2 0.1 0
v -0.2 0.2 0
v -0.1 -0.5 0
v -0.1 -0.2 0
v -0.1 -0.1 0
v -0.1 0.1 0
v -0.1 0.2 0
v -0.1 0.4 0
v 0.1 -0.5 0
v 0.1 -0.2 0
v 0.1 -0.1 0
v 0.1 0.1 0
v 0.1 0.2 0
v 0.1 0.4 0
v 0.2 -0.2 0
v 0.2 -0.1 0
v 0.2 0.1 0
v 0.2 0.2 0
v 0.3 -0.1 0
v 0.3 0.1 0
v -0.7 -0.4 -0.1
v -0.7 0.4 -0.1
v -0.6 -0.5 -0.1
v -0.6 -0.4 -0.1
v -0.6 -0.1 -0.1
v -0.6 0 -0.1
v -0.6 0.4 -0.1
v -0.6 0.5 -0.1
v -0.5 -0.6 -0.1
v -0.5 -0.5 -0.1
v -0.5 -0.4 -0.1
v -0.5 0.4 -0.1
v -0.5 0.5 -0.1
v -0.5 0.6 -0.1
v -0.4 -0.7 -0.1
v -0.4 -0.6 -0.1
v -0.4 -0.5 -0.1
v -0.4 -0.4 -0.1
v -0.4 -0.3 -0.1
v -0.4 -0.1 -0.1
v -0.4 0 -0.1
v -0.4 0.3 -0.1
v -0.4 0.4 -0.1
v -0.4 0.5 -0.1
v -0.4 0.6 -0.1
v -0.4 0.7 -0.1
v -0.3 -0.8 -0.1
v -0.3 -0.7 -0.1
v -0.3 -0.6 -0.1
v -0.3 -0.5 -0.1
v -0.3 -0.4 -0.1
v -0.3 -0.3 -0.1
v -0.3 -0.2 -0.1
v -0.3 -0.1 -0.1
v -0.3 0 -0.1
v -0.3 0.1 -0.1
v -0.3 0.2 -0.1
v -0.3 0.3 -0.1
v -0.3 0.4 -0.1
v -0.3 0.5 -0.1
v -0.3 0.6 -0.1
v -0.3 0.7 -0.1
v -0.3 0.8 -0.1
v -0.2 -0.6 -0.1
v -0.2 -0.5 -0.1
v -0.2 -0.3 -0.1
v -0.2 -0.2 -0.1
v -0.2 -0.1 -0.1
v -0.2 0.1 -0.1
v -0.2 0.2 -0.1
v -0.2 0.3 -0.1
v -0.1 -0.5 -0.1
v -0.1 -0.2 -0.1
v -0.1 0.2 -0.1
v -0.1 0.4 -0.1
v 0.1 -0.5 -0.1
v 0.1 -0.2 -0.1
v 0.1 0.2 -0.1
v 0.1 0.4 -0.1
v 0.2 -0.6 -0.1
v 0.2 -0.5 -0.1
v 0.2 -0.3 -0.1
v 0.2 -0.2 -0.1
v 0.2 -0.1 -0.1
v 0.2 0.1 -0.1
v 0.2 0.2 -0.1
v 0.2 0.3 -0.1
v 0.3 -0.8 -0.1
v 0.3 -0.7 -0.1
v 0.3 -0.6 -0.1
v 0.3 -0.5 -0.1
v 0.3 -0.4 -0.1
v 0.3 -0.3 -0.1
v 0.3 -0.2 -0.1
v 0.3 -0.1 -0.1
v 0.3 0 -0.1
v 0.3 0.1 -0.1
v 0.3 0.2 -0.1
v 0.3 0.3 -0.1
v 0.3 0.4 -0.1
v 0.3 0.5 -0.1
v 0.3 0.6 -0.1
v 0.3 0.7 -0.1
v 0.3 0.8 -0.1
v 0.4 -0.7 -0.1
v 0.4 -0.6 -0.1
v 0.4 -0.5 -0.1
v 0.4 -0.4 -0.1
v 0.4 -0.3 -0.1
v 0.4 -0.1 -0.1
v 0.4 0 -0.1
v 0.4 0.3 -0.1
v 0.4 0.4 -0.1
v 0.4 0.5 -0.1
v 0.4 0.6 -0.1
v 0.4 0.7 -0.1
v 0.5 -0.6 -0.1
v 0.5 -0.5 -0.1
v 0.5 -0.4 -0.1
v 0.5 0.4 -0.1
v 0.5 0.5 -0.1
v 0.5 0.6 -0.1
v 0.6 -0.5 -0.1
v 0.6 -0.4 -0.1
v 0.6 -0.1 -0.1
v 0.6 0 -0.1
v 0.6 0.4 -0.1
v 0.6 0.5 -0.1
v 0.7 -0.4 -0.1
v 0.7 0.4 -0.1
v -0.7 -0.4 -0.2
v -0.7 0.4 -0.2
v -0.6 -0.5 -0.2
v -0.6 -0.4 -0.2
v -0.6 -0.1 -0.2
v -0.6 0 -0.2
v -0.6 0.4 -0.2
v -0.6 0.5 -0.2
v -0.5 -0.6 -0.2
v -0.5 -0.5 -0.2
v -0.5 -0.4 -0.2
v -0.5 0.4 -0.2
v -0.5 0.5 -0.2
v -0.5 0.6 -0.2
v -0.4 -0.7 -0.2
v -0.4 -0.6 -0.2
v -0.4 -0.5 -0.2
v -0.4 -0.4 -0.2
v -0.4 -0.3 -0.2
v -0.4 -0.1 -0.2
v -0.4 0 -0.2
v -0.4 0.3 -0.2
v -0.4 0.4 -0.2
v -0.4 0.5 -0.2
v -0.4 0.6 -0.2
v -0.4 0.7 -0.2
v -0.3 -0.8 -0.2
v -0.3 -0.7 -0.2
v -0.3 -0.6 -0.2
v -0.3 -0.5 -0.2
v -0.3 -0.4 -0.2
v -0.3 -0.3 -0.2
v -0.3 -0.2 -0.2
v -0.3 -0.1 -0.2
v -0.3 0 -0.2
v -0.3 0.2 -0.2
v -0.3 0.3 -0.2
v -0.3 0.4 -0.2
v -0.3 0.5 -0.2
v -0.3 0.6 -0.2
v -0.3 0.7 -0.2
v -0.3 0.8 -0.2
v -0.2 -0.6 -0.2
v -0.2 -0.5 -0.2
v -0.2 -0.3 -0.2
v -0.2 -0.2 -0.2
v -0.2 0.2 -0.2
v -0.2 0.3 -0.2
v 0.2 -0.6 -0.2
v 0.2 -0.5 -0.2
v 0.2 -0.3 -0.2
v 0.2 -0.2 -0.2
v 0.2 0.2 -0.2
v 0.2 0.3 -0.2
v 0.3 -0.8 -0.2
v 0.3 -0.7 -0.2
v 0.3 -0.6 -0.2
v 0.3 -0.5 -0.2
v 0.3 -0.4 -0.2
v 0.3 -0.3 -0.2
v 0.3 -0.2 -0.2
v 0.3 -0.1 -0.2
v 0.3 0 -0.2
v 0.3 0.2 -0.2
v 0.3 0.3 -0.2
v 0.3 0.4 -0.2
v 0.3 0.5 -0.2
v 0.3 0.6 -0.2
v 0.3 0.7 -0.2
v 0.3 0.8 -0.2
v 0.4 -0.7 -0.2
v 0.4 -0.6 -0.2
v 0.4 -0.5 -0.2
v 0.4 -0.4 -0.2
v 0.4 -0.3 -0.2
v 0.4 -0.1 -0.2
v 0.4 0 -0.2
v 0.4 0.3 -0.2
v 0.4 0.4 -0.2
v 0.4 0.5 -0.2
v 0.4 0.6 -0.2
v 0.4 0.7 -0.2
v 0.5 -0.6 -0.2
v 0.5 -0.5 -0.2
v 0.5 -0.4 -0.2
v 0.5 0.4 -0.2
v 0.5 0.5 -0.2
v 0.5 0.6 -0.2
v 0.6 -0.5 -0.2
v 0.6 -0.4 -0.2
v 0.6 -0.1 -0.2
v 0.6 0 -0.2
v 0.6 0.4 -0.2
v 0.6 0.5 -0.2
v 0.7 -0.4 -0.2
v 0.7 0.4 -0.2
v -0.3 -0.8 -0.1
v 0.3 -0.8 -0.1
v -0.3 -0.8 -0.2
v 0.3 -0.8 -0.2
v -0.4 -0.7 -0.1
v -0.3 -0.7 -0.1
v 0.3 -0.7 -0.1
v 0.4 -0.7 -0.1
v -0.4 -0.7 -0.2
v -0.3 -0.7 -0.2
v 0.3 -0.7 -0.2
v 0.4 -0.7 -0.2
v -0.5 -0.6 -0.1
v -0.4 -0.6 -0.1
v 0.4 -0.6 -0.1
v 0.5 -0.6 -0.1
v -0.5 -0.6 -0.2
v -0.4 -0.6 -0.2
v 0.4 -0.6 -0.2
v 0.5 -0.6 -0.2
v -0.1 -0.5 0
v 0.1 -0.5 0
v -0.6 -0.5 -0.1
v -0.5 -0.5 -0.1
v -0.1 -0.5 -0.1
v 0.1 -0.5 -0.1
v 0.5 -0.5 -0.1
v 0.6 -0.5 -0.1
v -0.6 -0.5 -0.2
v -0.5 -0.5 -0.2
v 0.5 -0.5 -0.2
v 0.6 -0.5 -0.2
v -0.7 -0.4 -0.1
v -0.6 -0.4 -0.1
v 0.6 -0.4 -0.1
v 0.7 -0.4 -0.1
v -0.7 -0.4 -0.2
v -0.6 -0.4 -0.2
v 0.6 -0.4 -0.2
v 0.7 -0.4 -0.2
v -0.2 -0.2 0
v -0.1 -0.2 0
v 0.1 -0.2 0
v 0.2 -0.2 0
v -0.2 -0.2 -0.1
v -0.1 -0.2 -0.1
v 0.1 -0.2 -0.1
v 0.2 -0.2 -0.1
v -0.1 -0.1 0.1
v 0.1 -0.1 0.1
v -0.3 -0.1 0
v -0.2 -0.1 0
v -0.1 -0.1 0
v 0.1 -0.1 0
v 0.2 -0.1 0
v 0.3 -0.1 0
v -0.3 -0.1 -0.1
v -0.2 -0.1 -0.1
v 0.2 -0.1 -0.1
v 0.3 -0.1 -0.1
v -0.1 0.1 0.1
v 0.1 0.1 0.1
v -0.3 0.1 0
v -0.2 0.1 0
v -0.1 0.1 0
v 0.1 0.1 0
v 0.2 0.1 0
v 0.3 0.1 0
v -0.3 0.1 -0.1
v -0.2 0.1 -0.1
v 0.2 0.1 -0.1
v 0.3 0.1 -0.1
v -0.2 0.2 0
v -0.1 0.2 0
v 0.1 0.2 0
v 0.2 0.2 0
v -0.2 0.2 -0.1
v -0.1 0.2 -0.1
v 0.1 0.2 -0.1
v 0.2 0.2 -0.1
v -0.1 0.4 0
v 0.1 0.4 0
v -0.7 0.4 -0.1
v -0.6 0.4 -0.1
v -0.1 0.4 -0.1
v 0.1 0.4 -0.1
v 0.6 0.4 -0.1
v 0.7 0.4 -0.1
v -0.7 0.4 -0.2
v -0.6 0.4 -0.2
v 0.6 0.4 -0.2
v 0.7 0.4 -0.2
v -0.6 0.5 -0.1
v -0.5 0.5 -0.1
v 0.5 0.5 -0.1
v 0.6 0.5 -0.1
v -0.6 0.5 -0.2
v -0.5 0.5 -0.2
v 0.5 0.5 -0.2
v 0.6 0.5 -0.2
v -0.5 0.6 -0.1
v -0.4 0.6 -0.1
v 0.4 0.6 -0.1
v 0.5 0.6 -0.1
v -0.5 0.6 -0.2
v -0.4 0.6 -0.2
v 0.4 0.6 -0.2
v 0.5 0.6 -0.2
v -0.4 0.7 -0.1
v -0.3 0.7 -0.1
v 0.3 0.7 -0.1
v 0.4 0.7 -0.1
v -0.4 0.7 -0.2
v -0.3 0.7 -0.2
v 0.3 0.7 -0.2
v 0.4 0.7 -0.2
v -0.3 0.8 -0.1
v 0.3 0.8 -0.1
v -0.3 0.8 -0.2
v 0.3 0.8 -0.2
v -0.7 -0.4 -0.1
v -0.7 -0.4 -0.2
v -0.7 0.4 -0.1
v -0.7 0.4 -0.2
v -0.6 -0.5 -0.1
v -0.6 -0.5 -0.2
v -0.6 -0.4 -0.1
v -0.6 -0.4 -0.2
v -0.6 0.4 -0.1
v -0.6 0.4 -0.2
v -0.6 0.5 -0.1
v -0.6 0.5 -0.2
v -0.5 -0.6 -0.1
v -0.5 -0.6 -0.2
v -0.5 -0.5 -0.1
v -0.5 -0.5 -0.2
v -0.5 0.5 -0.1
v -0.5 0.5 -0.2
v -0.5 0.6 -0.1
v -0.5 0.6 -0.2
v -0.4 -0.7 -0.1
v -0.4 -0.7 -0.2
v -0.4 -0.6 -0.1
v -0.4 -0.6 -0.2
v -0.4 0.6 -0.1
v -0.4 0.6 -0.2
v -0.4 0.7 -0.1
v -0.4 0.7 -0.2
v -0.3 -0.8 -0.1
v -0.3 -0.8 -0.2
v -0.3 -0.7 -0.1
v -0.3 -0.7 -0.2
v -0.3 -0.1 0
v -0.3 -0.1 -0.1
v -0.3 0 -0.1
v -0.3 0.1 0
v -0.3 0.1 -0.1
v -0.3 0.7 -0.1
v -0.3 0.7 -0.2
v -0.3 0.8 -0.1
v -0.3 0.8 -0.2
v -0.2 -0.2 0
v -0.2 -0.2 -0.1
v -0.2 -0.1 0
v -0.2 -0.1 -0.1
v -0.2 0.1 0
v -0.2 0.1 -0.1
v -0.2 0.2 0
v -0.2 0.2 -0.1
v -0.1 -0.5 0
v -0.1 -0.5 -0.1
v -0.1 -0.2 0
v -0.1 -0.2 -0.1
v -0.1 -0.1 0.1
v -0.1 -0.1 0
v -0.1 0.1 0.1
v -0.1 0.1 0
v -0.1 0.2 0
v -0.1 0.2 -0.1
v -0.1 0.4 0
v -0.1 0.4 -0.1
v 0.1 -0.5 0
v 0.1 -0.5 -0.1
v 0.1 -0.2 0
v 0.1 -0.2 -0.1
v 0.1 -0.1 0.1
v 0.1 -0.1 0
v 0.1 0.1 0.1
v 0.1 0.1 0
v 0.1 0.2 0
v 0.1 0.2 -0.1
v 0.1 0.4 0
v 0.1 0.4 -0.1
v 0.2 -0.2 0
v 0.2 -0.2 -0.1
v 0.2 -0.1 0
v 0.2 -0.1 -0.1
v 0.2 0.1 0
v 0.2 0.1 -0.1
v 0.2 0.2 0
v 0.2 0.2 -0.1
v 0.3 -0.8 -0.1
v 0.3 -0.8 -0.2
v 0.3 -0.7 -0.1
v 0.3 -0.7 -0.2
v 0.3 -0.1 0
v 0.3 -0.1 -0.1
v 0.3 0 -0.1
v 0.3 0.1 0
v 0.3 0.1 -0.1
v 0.3 0.7 -0.1
v 0.3 0.7 -0.2
v 0.3 0.8 -0.1
v 0.3 0.8 -0.2
v 0.4 -0.7 -0.1
v 0.4 -0.7 -0.2
v 0.4 -0.6 -0.1
v 0.4 -0.6 -0.2
v 0.4 0.6 -0.1
v 0.4 0.6 -0.2
v 0.4 0.7 -0.1
v 0.4 0.7 -0.2
v 0.5 -0.6 -0.1
v 0.5 -0.6 -0.2
v 0.5 -0.5 -0.1
v 0.5 -0.5 -0.2
v 0.5 0.5 -0.1
v 0.5 0.5 -0.2
v 0.5 0.6 -0.1
v 0.5 0.6 -0.2
v 0.6 -0.5 -0.1
v 0.6 -0.5 -0.2
v 0.6 -0.4 -0.1
v 0.6 -0.4 -0.2
v 0.6 0.4 -0.1
v 0.6 0.4 -0.2
v 0.6 0.5 -0.1
v 0.6 0.5 -0.2
v 0.7 -0.4 -0.1
v 0.7 -0.4 -0.2
v 0.7 0.4 -0.1
v 0.7 0.4 -0.2

# faces
f 3/3/1 2/3/1 1/3/1
f 4/3/1 2/3/1 3/3/1
f 8/5/1 6/5/1 5/5/1
f 9/5/1 6/5/1 8/5/1
f 12/4/1 8/4/1 7/4/1
f 13/5/1 9/5/1 8/5/1
f 13/4/1 8/4/1 12/4/1
f 14/4/1 10/4/1 9/4/1
f 14/5/1 9/5/1 13/5/1
f 15/4/1 10/4/1 14/4/1
f 17/5/1 13/5/1 12/5/1
f 17/5/1 12/5/1 11/5/1
f 18/5/1 13/5/1 17/5/1
f 19/5/1 13/5/1 18/5/1
f 20/5/1 16/5/1 15/5/1
f 20/5/1 15/5/1 14/5/1
f 21/5/1 16/5/1 20/5/1
f 22/5/1 16/5/1 21/5/1
f 23/4/1 19/4/1 18/4/1
f 24/5/1 20/5/1 19/5/1
f 24/4/1 19/4/1 23/4/1
f 25/4/1 21/4/1 20/4/1
f 25/5/1 20/5/1 24/5/1
f 26/4/1 21/4/1 25/4/1
f 27/5/1 25/5/1 24/5/1
f 28/5/1 25/5/1 27/5/1
f 32/6/1 30/6/1 29/6/1
f 33/6/1 30/6/1 32/6/1
f 34/6/1 30/6/1 33/6/1
f 35/6/1 30/6/1 34/6/1
f 38/6/1 32/6/1 31/6/1
f 39/1/1 33/1/1 32/1/1
f 39/6/1 32/6/1 38/6/1
f 40/6/1 36/6/1 35/6/1
f 40/1/1 35/1/1 34/1/1
f 41/6/1 36/6/1 40/6/1
f 44/6/1 38/6/1 37/6/1
f 45/4/1 39/4/1 38/4/1
f 45/6/1 38/6/1 44/6/1
f 46/1/1 33/1/1 39/1/1
f 46/4/1 39/4/1 45/4/1
f 47/1/1 33/1/1 46/1/1
f 48/3/1 34/3/1 33/3/1
f 48/1/1 33/1/1 47/1/1
f 49/1/1 40/1/1 34/1/1
f 49/3/1 34/3/1 48/3/1
f 50/1/1 40/1/1 49/1/1
f 51/4/1 41/4/1 40/4/1
f 51/1/1 40/1/1 50/1/1
f 52/6/1 42/6/1 41/6/1
f 52/4/1 41/4/1 51/4/1
f 53/6/1 42/6/1 52/6/1
f 56/6/1 44/6/1 43/6/1
f 57/1/1 45/1/1 44/1/1
f 57/1/1 46/1/1 45/1/1
f 57/6/1 44/6/1 56/6/1
f 58/1/1 46/1/1 57/1/1
f 59/4/1 47/4/1 46/4/1
f 59/1/1 46/1/1 58/1/1
f 60/2/1 48/2/1 47/2/1
f 60/4/1 47/4/1 59/4/1
f 61/2/1 48/2/1 60/2/1
f 62/3/1 49/3/1 48/3/1
f 62/2/1 48/2/1 61/2/1
f 63/2/1 50/2/1 49/2/1
f 63/3/1 49/3/1 62/3/1
f 64/2/1 50/2/1 63/2/1
f 65/2/1 50/2/1 64/2/1
f 66/4/1 51/4/1 50/4/1
f 66/2/1 50/2/1 65/2/1
f 67/1/1 52/1/1 51/1/1
f 67/4/1 51/4/1 66/4/1
f 67/1/1 53/1/1 52/1/1
f 68/1/1 53/1/1 67/1/1
f 69/6/1 54/6/1 53/6/1
f 69/1/1 53/1/1 68/1/1
f 70/6/1 54/6/1 69/6/1
f 72/1/1 58/1/1 57/1/1
f 72/1/1 57/1/1 56/1/1
f 73/2/1 59/2/1 58/2/1
f 73/1/1 58/1/1 72/1/1
f 73/2/1 60/2/1 59/2/1
f 74/4/1 61/4/1 60/4/1
f 74/2/1 60/2/1 73/2/1
f 75/2/1 62/2/1 61/2/1
f 75/4/1 61/4/1 74/4/1
f 76/2/1 62/2/1 75/2/1
f 77/2/1 65/2/1 64/2/1
f 78/4/1 66/4/1 65/4/1
f 78/2/1 65/2/1 77/2/1
f 79/2/1 68/2/1 67/2/1
f 79/4/1 66/4/1 78/4/1
f 79/2/1 67/2/1 66/2/1
f 80/2/1 74/2/1 73/2/1
f 80/2/1 75/2/1 74/2/1
f 80/2/1 73/2/1 72/2/1
f 81/2/1 75/2/1 80/2/1
f 82/2/1 79/2/1 78/2/1
f 83/2/1 68/2/1 79/2/1
f 83/2/1 79/2/1 82/2/1
f 84/2/1 80/2/1 72/2/1
f 87/2/1 68/2/1 83/2/1
f 88/2/1 85/2/1 84/2/1
f 88/1/1 72/1/1 56/1/1
f 88/2/1 84/2/1 72/2/1
f 89/2/1 85/2/1 88/2/1
f 90/2/1 85/2/1 89/2/1
f 91/2/1 85/2/1 90/2/1
f 94/2/1 87/2/1 86/2/1
f 95/2/1 87/2/1 94/2/1
f 96/6/1 56/6/1 55/6/1
f 97/1/1 88/1/1 56/1/1
f 97/6/1 56/6/1 96/6/1
f 97/1/1 89/1/1 88/1/1
f 98/1/1 89/1/1 97/1/1
f 99/2/1 90/2/1 89/2/1
f 99/1/1 89/1/1 98/1/1
f 100/2/1 90/2/1 99/2/1
f 101/4/1 91/4/1 90/4/1
f 101/2/1 90/2/1 100/2/1
f 102/2/1 92/2/1 91/2/1
f 102/4/1 91/4/1 101/4/1
f 103/2/1 92/2/1 102/2/1
f 105/2/1 94/2/1 93/2/1
f 106/4/1 95/4/1 94/4/1
f 106/2/1 94/2/1 105/2/1
f 107/2/1 87/2/1 95/2/1
f 107/4/1 95/4/1 106/4/1
f 108/2/1 68/2/1 87/2/1
f 108/2/1 87/2/1 107/2/1
f 109/1/1 69/1/1 68/1/1
f 109/2/1 68/2/1 108/2/1
f 109/1/1 70/1/1 69/1/1
f 110/1/1 70/1/1 109/1/1
f 111/6/1 71/6/1 70/6/1
f 111/1/1 70/1/1 110/1/1
f 112/6/1 71/6/1 111/6/1
f 113/6/1 98/6/1 97/6/1
f 114/1/1 100/1/1 99/1/1
f 114/6/1 98/6/1 113/6/1
f 114/1/1 99/1/1 98/1/1
f 115/1/1 100/1/1 114/1/1
f 116/4/1 101/4/1 100/4/1
f 116/1/1 100/1/1 115/1/1
f 117/2/1 102/2/1 101/2/1
f 117/4/1 101/4/1 116/4/1
f 117/2/1 103/2/1 102/2/1
f 118/3/1 104/3/1 103/3/1
f 118/2/1 103/2/1 117/2/1
f 119/2/1 106/2/1 105/2/1
f 119/3/1 104/3/1 118/3/1
f 119/2/1 107/2/1 106/2/1
f 119/2/1 105/2/1 104/2/1
f 120/4/1 108/4/1 107/4/1
f 120/2/1 107/2/1 119/2/1
f 121/1/1 110/1/1 109/1/1
f 121/4/1 108/4/1 120/4/1
f 121/1/1 109/1/1 108/1/1
f 122/1/1 110/1/1 121/1/1
f 123/6/1 111/6/1 110/6/1
f 123/1/1 110/1/1 122/1/1
f 124/6/1 111/6/1 123/6/1
f 125/6/1 115/6/1 114/6/1
f 126/4/1 116/4/1 115/4/1
f 126/6/1 115/6/1 125/6/1
f 127/1/1 118/1/1 117/1/1
f 127/4/1 116/4/1 126/4/1
f 127/1/1 117/1/1 116/1/1
f 128/1/1 120/1/1 119/1/1
f 128/1/1 121/1/1 120/1/1
f 128/4/1 122/4/1 121/4/1
f 129/6/1 123/6/1 122/6/1
f 129/4/1 122/4/1 128/4/1
f 130/6/1 123/6/1 129/6/1
f 131/6/1 127/6/1 126/6/1
f 132/1/1 118/1/1 127/1/1
f 132/6/1 127/6/1 131/6/1
f 133/3/1 119/3/1 118/3/1
f 133/1/1 118/1/1 132/1/1
f 134/1/1 128/1/1 119/1/1
f 134/3/1 119/3/1 133/3/1
f 135/6/1 129/6/1 128/6/1
f 135/1/1 128/1/1 134/1/1
f 136/6/1 129/6/1 135/6/1
f 137/6/1 133/6/1 132/6/1
f 137/6/1 135/6/1 134/6/1
f 137/6/1 134/6/1 133/6/1
f 138/6/1 135/6/1 137/6/1
f 139/6/2 140/6/2 142/6/2
f 142/6/2 140/6/2 143/6/2
f 143/6/2 140/6/2 144/6/2
f 144/6/2 140/6/2 145/6/2
f 141/6/2 142/6/2 148/6/2
f 142/1/2 143/1/2 149/1/2
f 148/6/2 142/6/2 149/6/2
f 145/6/2 146/6/2 150/6/2
f 144/1/2 145/1/2 150/1/2
f 150/6/2 146/6/2 151/6/2
f 147/6/2 148/6/2 154/6/2
f 148/4/2 149/4/2 155/4/2
f 154/6/2 148/6/2 155/6/2
f 149/1/2 143/1/2 156/1/2
f 155/4/2 149/4/2 156/4/2
f 156/1/2 143/1/2 157/1/2
f 143/3/2 144/3/2 158/3/2
f 157/1/2 143/1/2 158/1/2
f 144/1/2 150/1/2 159/1/2
f 158/3/2 144/3/2 159/3/2
f 159/1/2 150/1/2 160/1/2
f 150/4/2 151/4/2 161/4/2
f 160/1/2 150/1/2 161/1/2
f 151/6/2 152/6/2 162/6/2
f 161/4/2 151/4/2 162/4/2
f 162/6/2 152/6/2 163/6/2
f 153/6/2 154/6/2 166/6/2
f 154/1/2 155/1/2 167/1/2
f 155/1/2 156/1/2 167/1/2
f 166/6/2 154/6/2 167/6/2
f 167/1/2 156/1/2 168/1/2
f 156/4/2 157/4/2 169/4/2
f 168/1/2 156/1/2 169/1/2
f 157/2/2 158/2/2 170/2/2
f 169/4/2 157/4/2 170/4/2
f 170/2/2 158/2/2 171/2/2
f 158/3/2 159/3/2 172/3/2
f 171/2/2 158/2/2 172/2/2
f 159/2/2 160/2/2 173/2/2
f 172/3/2 159/3/2 173/3/2
f 173/2/2 160/2/2 174/2/2
f 160/4/2 161/4/2 175/4/2
f 174/2/2 160/2/2 175/2/2
f 161/1/2 162/1/2 176/1/2
f 175/4/2 161/4/2 176/4/2
f 162/1/2 163/1/2 176/1/2
f 176/1/2 163/1/2 177/1/2
f 163/6/2 164/6/2 178/6/2
f 177/1/2 163/1/2 178/1/2
f 178/6/2 164/6/2 179/6/2
f 167/1/2 168/1/2 181/1/2
f 166/1/2 167/1/2 181/1/2
f 168/2/2 169/2/2 182/2/2
f 181/1/2 168/1/2 182/1/2
f 169/2/2 170/2/2 182/2/2
f 170/4/2 171/4/2 183/4/2
f 182/2/2 170/2/2 183/2/2
f 173/2/2 174/2/2 184/2/2
f 183/4/2 171/4/2 184/4/2
f 171/2/2 172/2/2 184/2/2
f 172/2/2 173/2/2 184/2/2
f 174/4/2 175/4/2 185/4/2
f 184/2/2 174/2/2 185/2/2
f 176/2/2 177/2/2 186/2/2
f 185/4/2 175/4/2 186/4/2
f 175/2/2 176/2/2 186/2/2
f 182/2/2 183/2/2 187/2/2
f 184/2/2 185/2/2 187/2/2
f 185/2/2 186/2/2 187/2/2
f 166/1/2 181/1/2 187/1/2
f 183/2/2 184/2/2 187/2/2
f 181/2/2 182/2/2 187/2/2
f 187/2/2 186/2/2 188/2/2
f 188/2/2 186/2/2 189/2/2
f 189/2/2 186/2/2 190/2/2
f 190/2/2 186/2/2 191/2/2
f 186/2/2 177/2/2 192/2/2
f 191/2/2 186/2/2 192/2/2
f 165/6/2 166/6/2 193/6/2
f 166/1/2 187/1/2 194/1/2
f 193/6/2 166/6/2 194/6/2
f 187/1/2 188/1/2 194/1/2
f 194/1/2 188/1/2 195/1/2
f 188/2/2 189/2/2 196/2/2
f 195/1/2 188/1/2 196/1/2
f 196/2/2 189/2/2 197/2/2
f 189/4/2 190/4/2 198/4/2
f 197/2/2 189/2/2 198/2/2
f 190/2/2 191/2/2 199/2/2
f 198/4/2 190/4/2 199/4/2
f 199/2/2 191/2/2 200/2/2
f 200/2/2 191/2/2 201/2/2
f 191/4/2 192/4/2 202/4/2
f 201/2/2 191/2/2 202/2/2
f 192/2/2 177/2/2 203/2/2
f 202/4/2 192/4/2 203/4/2
f 203/2/2 177/2/2 204/2/2
f 177/1/2 178/1/2 205/1/2
f 204/2/2 177/2/2 205/2/2
f 178/1/2 179/1/2 205/1/2
f 205/1/2 179/1/2 206/1/2
f 179/6/2 180/6/2 207/6/2
f 206/1/2 179/1/2 207/1/2
f 207/6/2 180/6/2 208/6/2
f 194/6/2 195/6/2 209/6/2
f 196/1/2 197/1/2 210/1/2
f 209/6/2 195/6/2 210/6/2
f 195/1/2 196/1/2 210/1/2
f 210/1/2 197/1/2 211/1/2
f 197/4/2 198/4/2 212/4/2
f 211/1/2 197/1/2 212/1/2
f 198/2/2 199/2/2 213/2/2
f 212/4/2 198/4/2 213/4/2
f 199/2/2 200/2/2 213/2/2
f 200/3/2 201/3/2 214/3/2
f 213/2/2 200/2/2 214/2/2
f 201/2/2 202/2/2 215/2/2
f 214/3/2 201/3/2 215/3/2
f 202/2/2 203/2/2 215/2/2
f 203/4/2 204/4/2 216/4/2
f 215/2/2 203/2/2 216/2/2
f 205/1/2 206/1/2 217/1/2
f 216/4/2 204/4/2 217/4/2
f 204/1/2 205/1/2 217/1/2
f 217/1/2 206/1/2 218/1/2
f 206/6/2 207/6/2 219/6/2
f 218/1/2 206/1/2 219/1/2
f 219/6/2 207/6/2 220/6/2
f 210/6/2 211/6/2 221/6/2
f 211/4/2 212/4/2 222/4/2
f 221/6/2 211/6/2 222/6/2
f 213/1/2 214/1/2 223/1/2
f 222/4/2 212/4/2 223/4/2
f 212/1/2 213/1/2 223/1/2
f 215/1/2 216/1/2 224/1/2
f 216/1/2 217/1/2 224/1/2
f 217/4/2 218/4/2 224/4/2
f 218/6/2 219/6/2 225/6/2
f 224/4/2 218/4/2 225/4/2
f 225/6/2 219/6/2 226/6/2
f 222/6/2 223/6/2 227/6/2
f 223/1/2 214/1/2 228/1/2
f 227/6/2 223/6/2 228/6/2
f 214/3/2 215/3/2 229/3/2
f 228/1/2 214/1/2 229/1/2
f 215/1/2 224/1/2 230/1/2
f 229/3/2 215/3/2 230/3/2
f 224/6/2 225/6/2 231/6/2
f 230/1/2 224/1/2 231/1/2
f 231/6/2 225/6/2 232/6/2
f 228/6/2 229/6/2 233/6/2
f 230/6/2 231/6/2 233/6/2
f 229/6/2 230/6/2 233/6/2
f 233/6/2 231/6/2 234/6/2
f 237/6/3 236/6/3 235/6/3
f 238/6/3 236/6/3 237/6/3
f 243/6/3 240/6/3 239/6/3
f 244/6/3 240/6/3 243/6/3
f 245/6/3 242/6/3 241/6/3
f 246/6/3 242/6/3 245/6/3
f 251/6/3 248/6/3 247/6/3
f 252/6/3 248/6/3 251/6/3
f 253/6/3 250/6/3 249/6/3
f 254/6/3 250/6/3 253/6/3
f 259/5/3 256/5/3 255/5/3
f 260/5/3 256/5/3 259/5/3
f 263/6/3 258/6/3 257/6/3
f 264/6/3 258/6/3 263/6/3
f 265/6/3 262/6/3 261/6/3
f 266/6/3 262/6/3 265/6/3
f 271/6/3 268/6/3 267/6/3
f 272/6/3 268/6/3 271/6/3
f 273/6/3 270/6/3 269/6/3
f 274/6/3 270/6/3 273/6/3
f 279/4/3 276/4/3 275/4/3
f 280/4/3 276/4/3 279/4/3
f 281/4/3 278/4/3 277/4/3
f 282/4/3 278/4/3 281/4/3
f 287/3/3 284/3/3 283/3/3
f 288/3/3 284/3/3 287/3/3
f 291/5/3 286/5/3 285/5/3
f 292/5/3 286/5/3 291/5/3
f 293/5/3 290/5/3 289/5/3
f 294/5/3 290/5/3 293/5/3
f 295/3/4 296/3/4 299/3/4
f 299/3/4 296/3/4 300/3/4
f 297/5/4 298/5/4 303/5/4
f 303/5/4 298/5/4 304/5/4
f 301/5/4 302/5/4 305/5/4
f 305/5/4 302/5/4 306/5/4
f 307/4/4 308/4/4 311/4/4
f 311/4/4 308/4/4 312/4/4
f 309/4/4 310/4/4 313/4/4
f 313/4/4 310/4/4 314/4/4
f 315/5/4 316/5/4 319/5/4
f 319/5/4 316/5/4 320/5/4
f 317/6/4 318/6/4 323/6/4
f 323/6/4 318/6/4 324/6/4
f 321/6/4 322/6/4 325/6/4
f 325/6/4 322/6/4 326/6/4
f 327/6/4 328/6/4 331/6/4
f 331/6/4 328/6/4 332/6/4
f 329/6/4 330/6/4 333/6/4
f 333/6/4 330/6/4 334/6/4
f 335/6/4 336/6/4 339/6/4
f 339/6/4 336/6/4 340/6/4
f 337/6/4 338/6/4 341/6/4
f 341/6/4 338/6/4 342/6/4
f 343/6/4 344/6/4 347/6/4
f 347/6/4 344/6/4 348/6/4
f 345/6/4 346/6/4 349/6/4
f 349/6/4 346/6/4 350/6/4
f 351/6/4 352/6/4 353/6/4
f 353/6/4 352/6/4 354/6/4
f 357/6/5 356/6/5 355/6/5
f 358/6/5 356/6/5 357/6/5
f 361/6/5 360/6/5 359/6/5
f 362/6/5 360/6/5 361/6/5
f 365/6/5 364/6/5 363/6/5
f 366/6/5 364/6/5 365/6/5
f 369/6/5 368/6/5 367/6/5
f 370/6/5 368/6/5 369/6/5
f 373/6/5 372/6/5 371/6/5
f 374/6/5 372/6/5 373/6/5
f 377/6/5 376/6/5 375/6/5
f 378/6/5 376/6/5 377/6/5
f 381/6/5 380/6/5 379/6/5
f 382/6/5 380/6/5 381/6/5
f 385/6/5 384/6/5 383/6/5
f 386/6/5 384/6/5 385/6/5
f 389/5/5 388/5/5 387/5/5
f 390/5/5 389/5/5 387/5/5
f 391/5/5 389/5/5 390/5/5
f 394/6/5 393/6/5 392/6/5
f 395/6/5 393/6/5 394/6/5
f 398/4/5 397/4/5 396/4/5
f 399/4/5 397/4/5 398/4/5
f 402/4/5 401/4/5 400/4/5
f 403/4/5 401/4/5 402/4/5
f 406/5/5 405/5/5 404/5/5
f 407/5/5 405/5/5 406/5/5
f 410/3/5 409/3/5 408/3/5
f 411/3/5 409/3/5 410/3/5
f 414/5/5 413/5/5 412/5/5
f 415/5/5 413/5/5 414/5/5
f 416/5/6 417/5/6 418/5/6
f 418/5/6 417/5/6 419/5/6
f 420/3/6 421/3/6 422/3/6
f 422/3/6 421/3/6 423/3/6
f 424/5/6 425/5/6 426/5/6
f 426/5/6 425/5/6 427/5/6
f 428/4/6 429/4/6 430/4/6
f 430/4/6 429/4/6 431/4/6
f 432/4/6 433/4/6 434/4/6
f 434/4/6 433/4/6 435/4/6
f 436/6/6 437/6/6 438/6/6
f 438/6/6 437/6/6 439/6/6
f 440/5/6 441/5/6 442/5/6
f 440/5/6 442/5/6 443/5/6
f 443/5/6 442/5/6 444/5/6
f 445/6/6 446/6/6 447/6/6
f 447/6/6 446/6/6 448/6/6
f 449/6/6 450/6/6 451/6/6
f 451/6/6 450/6/6 452/6/6
f 453/6/6 454/6/6 455/6/6
f 455/6/6 454/6/6 456/6/6
f 457/6/6 458/6/6 459/6/6
f 459/6/6 458/6/6 460/6/6
f 461/6/6 462/6/6 463/6/6
f 463/6/6 462/6/6 464/6/6
f 465/6/6 466/6/6 467/6/6
f 467/6/6 466/6/6 468/6/6
f 469/6/6 470/6/6 471/6/6
f 471/6/6 470/6/6 472/6/6
f 473/6/6 474/6/6 475/6/6
f 475/6/6 474/6/6 476/6/6
