# MagicaVoxel @ Ephtracy

# group
o 

# material
mtllib Shield and flag-1.mtl
usemtl palette

# normals
vn 0 0 1
vn 0 0 -1
vn 0 -1 0
vn 0 1 0
vn -1 0 0
vn 1 0 0

# texcoords
vt 0.00585938 0.5
vt 0.0136719 0.5
vt 0.0410156 0.5
vt 0.0566406 0.5
vt 0.0605469 0.5

# verts
v -0.5 -0.5 0
v -0.5 0.8 0
v -0.4 -0.6 0
v -0.4 -0.5 0
v -0.4 -0.4 0
v -0.4 -0.2 0
v -0.4 0.1 0
v -0.4 0.3 0
v -0.4 0.8 0
v -0.4 0.9 0
v -0.3 -0.7 0
v -0.3 -0.6 0
v -0.3 -0.5 0
v -0.3 -0.4 0
v -0.3 -0.3 0
v -0.3 -0.2 0
v -0.3 -0.1 0
v -0.3 0.1 0
v -0.3 0.3 0
v -0.3 0.4 0
v -0.3 0.5 0
v -0.2 -0.8 0
v -0.2 -0.7 0
v -0.2 -0.6 0
v -0.2 -0.5 0
v -0.2 -0.4 0
v -0.2 -0.3 0
v -0.2 -0.1 0
v -0.2 0.1 0
v -0.2 0.3 0
v -0.2 0.4 0
v -0.2 0.5 0
v -0.2 0.6 0
v -0.2 0.8 0
v -0.2 0.9 0
v -0.2 1 0
v -0.1 -0.9 0
v -0.1 -0.8 0
v -0.1 -0.7 0
v -0.1 -0.6 0
v -0.1 -0.5 0
v -0.1 -0.1 0
v -0.1 0 0
v -0.1 0.3 0
v -0.1 0.6 0
v -0.1 0.7 0
v 0.1 -0.9 0
v 0.1 -0.8 0
v 0.1 -0.7 0
v 0.1 -0.6 0
v 0.1 -0.5 0
v 0.1 -0.1 0
v 0.1 0 0
v 0.1 0.3 0
v 0.1 0.6 0
v 0.1 0.7 0
v 0.2 -0.8 0
v 0.2 -0.7 0
v 0.2 -0.6 0
v 0.2 -0.5 0
v 0.2 -0.4 0
v 0.2 -0.3 0
v 0.2 -0.1 0
v 0.2 0.1 0
v 0.2 0.3 0
v 0.2 0.4 0
v 0.2 0.5 0
v 0.2 0.6 0
v 0.2 0.8 0
v 0.2 0.9 0
v 0.2 1 0
v 0.3 -0.7 0
v 0.3 -0.6 0
v 0.3 -0.5 0
v 0.3 -0.4 0
v 0.3 -0.3 0
v 0.3 -0.2 0
v 0.3 -0.1 0
v 0.3 0.1 0
v 0.3 0.3 0
v 0.3 0.4 0
v 0.3 0.5 0
v 0.4 -0.6 0
v 0.4 -0.5 0
v 0.4 -0.4 0
v 0.4 -0.2 0
v 0.4 0.1 0
v 0.4 0.3 0
v 0.4 0.8 0
v 0.4 0.9 0
v 0.5 -0.5 0
v 0.5 0.8 0
v -0.5 -0.5 -0.1
v -0.5 0.8 -0.1
v -0.4 -0.6 -0.1
v -0.4 -0.5 -0.1
v -0.4 -0.4 -0.1
v -0.4 -0.2 -0.1
v -0.4 0.1 -0.1
v -0.4 0.3 -0.1
v -0.4 0.8 -0.1
v -0.4 0.9 -0.1
v -0.3 -0.7 -0.1
v -0.3 -0.6 -0.1
v -0.3 -0.5 -0.1
v -0.3 -0.4 -0.1
v -0.3 -0.3 -0.1
v -0.3 -0.2 -0.1
v -0.3 -0.1 -0.1
v -0.3 0.1 -0.1
v -0.3 0.3 -0.1
v -0.3 0.4 -0.1
v -0.3 0.5 -0.1
v -0.2 -0.8 -0.1
v -0.2 -0.7 -0.1
v -0.2 -0.6 -0.1
v -0.2 -0.5 -0.1
v -0.2 -0.4 -0.1
v -0.2 -0.3 -0.1
v -0.2 -0.1 -0.1
v -0.2 0.1 -0.1
v -0.2 0.3 -0.1
v -0.2 0.4 -0.1
v -0.2 0.5 -0.1
v -0.2 0.6 -0.1
v -0.2 0.8 -0.1
v -0.2 0.9 -0.1
v -0.2 1 -0.1
v -0.1 -0.9 -0.1
v -0.1 -0.8 -0.1
v -0.1 -0.7 -0.1
v -0.1 -0.6 -0.1
v -0.1 -0.5 -0.1
v -0.1 -0.1 -0.1
v -0.1 0 -0.1
v -0.1 0.3 -0.1
v -0.1 0.6 -0.1
v -0.1 0.7 -0.1
v 0.1 -0.9 -0.1
v 0.1 -0.8 -0.1
v 0.1 -0.7 -0.1
v 0.1 -0.6 -0.1
v 0.1 -0.5 -0.1
v 0.1 -0.1 -0.1
v 0.1 0 -0.1
v 0.1 0.3 -0.1
v 0.1 0.6 -0.1
v 0.1 0.7 -0.1
v 0.2 -0.8 -0.1
v 0.2 -0.7 -0.1
v 0.2 -0.6 -0.1
v 0.2 -0.5 -0.1
v 0.2 -0.4 -0.1
v 0.2 -0.3 -0.1
v 0.2 -0.1 -0.1
v 0.2 0.1 -0.1
v 0.2 0.3 -0.1
v 0.2 0.4 -0.1
v 0.2 0.5 -0.1
v 0.2 0.6 -0.1
v 0.2 0.8 -0.1
v 0.2 0.9 -0.1
v 0.2 1 -0.1
v 0.3 -0.7 -0.1
v 0.3 -0.6 -0.1
v 0.3 -0.5 -0.1
v 0.3 -0.4 -0.1
v 0.3 -0.3 -0.1
v 0.3 -0.2 -0.1
v 0.3 -0.1 -0.1
v 0.3 0.1 -0.1
v 0.3 0.3 -0.1
v 0.3 0.4 -0.1
v 0.3 0.5 -0.1
v 0.4 -0.6 -0.1
v 0.4 -0.5 -0.1
v 0.4 -0.4 -0.1
v 0.4 -0.2 -0.1
v 0.4 0.1 -0.1
v 0.4 0.3 -0.1
v 0.4 0.8 -0.1
v 0.4 0.9 -0.1
v 0.5 -0.5 -0.1
v 0.5 0.8 -0.1
v -0.1 -0.9 0
v 0.1 -0.9 0
v -0.1 -0.9 -0.1
v 0.1 -0.9 -0.1
v -0.2 -0.8 0
v -0.1 -0.8 0
v 0.1 -0.8 0
v 0.2 -0.8 0
v -0.2 -0.8 -0.1
v -0.1 -0.8 -0.1
v 0.1 -0.8 -0.1
v 0.2 -0.8 -0.1
v -0.3 -0.7 0
v -0.2 -0.7 0
v 0.2 -0.7 0
v 0.3 -0.7 0
v -0.3 -0.7 -0.1
v -0.2 -0.7 -0.1
v 0.2 -0.7 -0.1
v 0.3 -0.7 -0.1
v -0.4 -0.6 0
v -0.3 -0.6 0
v 0.3 -0.6 0
v 0.4 -0.6 0
v -0.4 -0.6 -0.1
v -0.3 -0.6 -0.1
v 0.3 -0.6 -0.1
v 0.4 -0.6 -0.1
v -0.5 -0.5 0
v -0.4 -0.5 0
v 0.4 -0.5 0
v 0.5 -0.5 0
v -0.5 -0.5 -0.1
v -0.4 -0.5 -0.1
v 0.4 -0.5 -0.1
v 0.5 -0.5 -0.1
v -0.5 0.8 0
v -0.4 0.8 0
v 0.4 0.8 0
v 0.5 0.8 0
v -0.5 0.8 -0.1
v -0.4 0.8 -0.1
v 0.4 0.8 -0.1
v 0.5 0.8 -0.1
v -0.4 0.9 0
v -0.2 0.9 0
v 0.2 0.9 0
v 0.4 0.9 0
v -0.4 0.9 -0.1
v -0.2 0.9 -0.1
v 0.2 0.9 -0.1
v 0.4 0.9 -0.1
v -0.2 1 0
v 0.2 1 0
v -0.2 1 -0.1
v 0.2 1 -0.1
v -0.5 -0.5 0
v -0.5 -0.5 -0.1
v -0.5 0.8 0
v -0.5 0.8 -0.1
v -0.4 -0.6 0
v -0.4 -0.6 -0.1
v -0.4 -0.5 0
v -0.4 -0.5 -0.1
v -0.4 0.8 0
v -0.4 0.8 -0.1
v -0.4 0.9 0
v -0.4 0.9 -0.1
v -0.3 -0.7 0
v -0.3 -0.7 -0.1
v -0.3 -0.6 0
v -0.3 -0.6 -0.1
v -0.2 -0.8 0
v -0.2 -0.8 -0.1
v -0.2 -0.7 0
v -0.2 -0.7 -0.1
v -0.2 0.9 0
v -0.2 0.9 -0.1
v -0.2 1 0
v -0.2 1 -0.1
v -0.1 -0.9 0
v -0.1 -0.9 -0.1
v -0.1 -0.8 0
v -0.1 -0.8 -0.1
v 0.1 -0.9 0
v 0.1 -0.9 -0.1
v 0.1 -0.8 0
v 0.1 -0.8 -0.1
v 0.2 -0.8 0
v 0.2 -0.8 -0.1
v 0.2 -0.7 0
v 0.2 -0.7 -0.1
v 0.2 0.9 0
v 0.2 0.9 -0.1
v 0.2 1 0
v 0.2 1 -0.1
v 0.3 -0.7 0
v 0.3 -0.7 -0.1
v 0.3 -0.6 0
v 0.3 -0.6 -0.1
v 0.4 -0.6 0
v 0.4 -0.6 -0.1
v 0.4 -0.5 0
v 0.4 -0.5 -0.1
v 0.4 0.8 0
v 0.4 0.8 -0.1
v 0.4 0.9 0
v 0.4 0.9 -0.1
v 0.5 -0.5 0
v 0.5 -0.5 -0.1
v 0.5 0.8 0
v 0.5 0.8 -0.1

# faces
f 4/1/1 2/1/1 1/1/1
f 5/1/1 2/1/1 4/1/1
f 6/1/1 2/1/1 5/1/1
f 7/1/1 2/1/1 6/1/1
f 8/1/1 2/1/1 7/1/1
f 9/1/1 2/1/1 8/1/1
f 12/1/1 4/1/1 3/1/1
f 13/2/1 5/2/1 4/2/1
f 13/1/1 4/1/1 12/1/1
f 14/5/1 6/5/1 5/5/1
f 14/2/1 5/2/1 13/2/1
f 15/5/1 6/5/1 14/5/1
f 16/2/1 7/2/1 6/2/1
f 16/5/1 6/5/1 15/5/1
f 17/2/1 7/2/1 16/2/1
f 18/4/1 8/4/1 7/4/1
f 18/2/1 7/2/1 17/2/1
f 19/2/1 9/2/1 8/2/1
f 19/4/1 8/4/1 18/4/1
f 20/2/1 9/2/1 19/2/1
f 21/2/1 9/2/1 20/2/1
f 23/1/1 12/1/1 11/1/1
f 24/2/1 13/2/1 12/2/1
f 24/2/1 14/2/1 13/2/1
f 24/1/1 12/1/1 23/1/1
f 25/2/1 14/2/1 24/2/1
f 26/4/1 15/4/1 14/4/1
f 26/2/1 14/2/1 25/2/1
f 27/2/1 17/2/1 16/2/1
f 27/4/1 15/4/1 26/4/1
f 27/2/1 16/2/1 15/2/1
f 28/4/1 18/4/1 17/4/1
f 28/2/1 17/2/1 27/2/1
f 29/2/1 19/2/1 18/2/1
f 29/4/1 18/4/1 28/4/1
f 29/2/1 20/2/1 19/2/1
f 30/2/1 20/2/1 29/2/1
f 31/3/1 21/3/1 20/3/1
f 31/2/1 20/2/1 30/2/1
f 32/2/1 9/2/1 21/2/1
f 32/3/1 21/3/1 31/3/1
f 33/2/1 9/2/1 32/2/1
f 34/1/1 10/1/1 9/1/1
f 34/2/1 9/2/1 33/2/1
f 35/1/1 10/1/1 34/1/1
f 38/1/1 23/1/1 22/1/1
f 39/2/1 25/2/1 24/2/1
f 39/2/1 24/2/1 23/2/1
f 39/1/1 23/1/1 38/1/1
f 40/2/1 25/2/1 39/2/1
f 41/4/1 26/4/1 25/4/1
f 41/2/1 25/2/1 40/2/1
f 41/4/1 27/4/1 26/4/1
f 41/4/1 28/4/1 27/4/1
f 42/2/1 30/2/1 29/2/1
f 42/4/1 28/4/1 41/4/1
f 42/2/1 29/2/1 28/2/1
f 43/2/1 30/2/1 42/2/1
f 44/3/1 33/3/1 32/3/1
f 44/2/1 30/2/1 43/2/1
f 44/3/1 31/3/1 30/3/1
f 44/3/1 32/3/1 31/3/1
f 45/2/1 35/2/1 34/2/1
f 45/3/1 33/3/1 44/3/1
f 45/2/1 34/2/1 33/2/1
f 46/2/1 35/2/1 45/2/1
f 47/1/1 38/1/1 37/1/1
f 48/2/1 40/2/1 39/2/1
f 48/1/1 38/1/1 47/1/1
f 48/2/1 39/2/1 38/2/1
f 49/2/1 40/2/1 48/2/1
f 50/4/1 41/4/1 40/4/1
f 50/2/1 40/2/1 49/2/1
f 51/2/1 43/2/1 42/2/1
f 51/4/1 41/4/1 50/4/1
f 51/2/1 42/2/1 41/2/1
f 52/2/1 43/2/1 51/2/1
f 53/3/1 46/3/1 45/3/1
f 53/2/1 43/2/1 52/2/1
f 53/3/1 44/3/1 43/3/1
f 53/3/1 45/3/1 44/3/1
f 54/3/1 46/3/1 53/3/1
f 55/3/1 46/3/1 54/3/1
f 56/2/1 35/2/1 46/2/1
f 56/3/1 46/3/1 55/3/1
f 57/1/1 49/1/1 48/1/1
f 58/2/1 50/2/1 49/2/1
f 58/1/1 49/1/1 57/1/1
f 58/2/1 51/2/1 50/2/1
f 59/2/1 51/2/1 58/2/1
f 60/4/1 52/4/1 51/4/1
f 60/2/1 51/2/1 59/2/1
f 61/4/1 52/4/1 60/4/1
f 62/4/1 52/4/1 61/4/1
f 63/2/1 54/2/1 53/2/1
f 63/4/1 52/4/1 62/4/1
f 63/2/1 53/2/1 52/2/1
f 64/2/1 54/2/1 63/2/1
f 65/3/1 55/3/1 54/3/1
f 65/2/1 54/2/1 64/2/1
f 66/3/1 55/3/1 65/3/1
f 67/3/1 55/3/1 66/3/1
f 68/2/1 56/2/1 55/2/1
f 68/3/1 55/3/1 67/3/1
f 69/2/1 35/2/1 56/2/1
f 69/2/1 56/2/1 68/2/1
f 70/1/1 36/1/1 35/1/1
f 70/2/1 35/2/1 69/2/1
f 71/1/1 36/1/1 70/1/1
f 72/1/1 59/1/1 58/1/1
f 73/2/1 61/2/1 60/2/1
f 73/1/1 59/1/1 72/1/1
f 73/2/1 60/2/1 59/2/1
f 74/2/1 61/2/1 73/2/1
f 75/4/1 62/4/1 61/4/1
f 75/2/1 61/2/1 74/2/1
f 76/2/1 63/2/1 62/2/1
f 76/4/1 62/4/1 75/4/1
f 77/2/1 63/2/1 76/2/1
f 78/4/1 64/4/1 63/4/1
f 78/2/1 63/2/1 77/2/1
f 79/2/1 66/2/1 65/2/1
f 79/4/1 64/4/1 78/4/1
f 79/2/1 65/2/1 64/2/1
f 80/2/1 66/2/1 79/2/1
f 81/3/1 67/3/1 66/3/1
f 81/2/1 66/2/1 80/2/1
f 82/2/1 68/2/1 67/2/1
f 82/3/1 67/3/1 81/3/1
f 82/2/1 69/2/1 68/2/1
f 83/1/1 74/1/1 73/1/1
f 84/2/1 75/2/1 74/2/1
f 84/1/1 74/1/1 83/1/1
f 85/5/1 77/5/1 76/5/1
f 85/2/1 75/2/1 84/2/1
f 85/5/1 76/5/1 75/5/1
f 86/2/1 79/2/1 78/2/1
f 86/5/1 77/5/1 85/5/1
f 86/2/1 78/2/1 77/2/1
f 87/4/1 80/4/1 79/4/1
f 87/2/1 79/2/1 86/2/1
f 88/2/1 81/2/1 80/2/1
f 88/4/1 80/4/1 87/4/1
f 88/2/1 82/2/1 81/2/1
f 89/2/1 69/2/1 82/2/1
f 89/2/1 82/2/1 88/2/1
f 89/1/1 70/1/1 69/1/1
f 90/1/1 70/1/1 89/1/1
f 91/1/1 87/1/1 86/1/1
f 91/1/1 85/1/1 84/1/1
f 91/1/1 89/1/1 88/1/1
f 91/1/1 88/1/1 87/1/1
f 91/1/1 86/1/1 85/1/1
f 92/1/1 89/1/1 91/1/1
f 93/1/2 94/1/2 96/1/2
f 96/1/2 94/1/2 97/1/2
f 97/1/2 94/1/2 98/1/2
f 98/1/2 94/1/2 99/1/2
f 99/1/2 94/1/2 100/1/2
f 100/1/2 94/1/2 101/1/2
f 95/1/2 96/1/2 104/1/2
f 96/2/2 97/2/2 105/2/2
f 104/1/2 96/1/2 105/1/2
f 97/5/2 98/5/2 106/5/2
f 105/2/2 97/2/2 106/2/2
f 106/5/2 98/5/2 107/5/2
f 98/2/2 99/2/2 108/2/2
f 107/5/2 98/5/2 108/5/2
f 108/2/2 99/2/2 109/2/2
f 99/4/2 100/4/2 110/4/2
f 109/2/2 99/2/2 110/2/2
f 100/2/2 101/2/2 111/2/2
f 110/4/2 100/4/2 111/4/2
f 111/2/2 101/2/2 112/2/2
f 112/2/2 101/2/2 113/2/2
f 103/1/2 104/1/2 115/1/2
f 104/2/2 105/2/2 116/2/2
f 105/2/2 106/2/2 116/2/2
f 115/1/2 104/1/2 116/1/2
f 116/2/2 106/2/2 117/2/2
f 106/4/2 107/4/2 118/4/2
f 117/2/2 106/2/2 118/2/2
f 108/2/2 109/2/2 119/2/2
f 118/4/2 107/4/2 119/4/2
f 107/2/2 108/2/2 119/2/2
f 109/4/2 110/4/2 120/4/2
f 119/2/2 109/2/2 120/2/2
f 110/2/2 111/2/2 121/2/2
f 120/4/2 110/4/2 121/4/2
f 111/2/2 112/2/2 121/2/2
f 121/2/2 112/2/2 122/2/2
f 112/3/2 113/3/2 123/3/2
f 122/2/2 112/2/2 123/2/2
f 113/2/2 101/2/2 124/2/2
f 123/3/2 113/3/2 124/3/2
f 124/2/2 101/2/2 125/2/2
f 101/1/2 102/1/2 126/1/2
f 125/2/2 101/2/2 126/2/2
f 126/1/2 102/1/2 127/1/2
f 114/1/2 115/1/2 130/1/2
f 116/2/2 117/2/2 131/2/2
f 115/2/2 116/2/2 131/2/2
f 130/1/2 115/1/2 131/1/2
f 131/2/2 117/2/2 132/2/2
f 117/4/2 118/4/2 133/4/2
f 132/2/2 117/2/2 133/2/2
f 118/4/2 119/4/2 133/4/2
f 119/4/2 120/4/2 133/4/2
f 121/2/2 122/2/2 134/2/2
f 133/4/2 120/4/2 134/4/2
f 120/2/2 121/2/2 134/2/2
f 134/2/2 122/2/2 135/2/2
f 124/3/2 125/3/2 136/3/2
f 135/2/2 122/2/2 136/2/2
f 122/3/2 123/3/2 136/3/2
f 123/3/2 124/3/2 136/3/2
f 126/2/2 127/2/2 137/2/2
f 136/3/2 125/3/2 137/3/2
f 125/2/2 126/2/2 137/2/2
f 137/2/2 127/2/2 138/2/2
f 129/1/2 130/1/2 139/1/2
f 131/2/2 132/2/2 140/2/2
f 139/1/2 130/1/2 140/1/2
f 130/2/2 131/2/2 140/2/2
f 140/2/2 132/2/2 141/2/2
f 132/4/2 133/4/2 142/4/2
f 141/2/2 132/2/2 142/2/2
f 134/2/2 135/2/2 143/2/2
f 142/4/2 133/4/2 143/4/2
f 133/2/2 134/2/2 143/2/2
f 143/2/2 135/2/2 144/2/2
f 137/3/2 138/3/2 145/3/2
f 144/2/2 135/2/2 145/2/2
f 135/3/2 136/3/2 145/3/2
f 136/3/2 137/3/2 145/3/2
f 145/3/2 138/3/2 146/3/2
f 146/3/2 138/3/2 147/3/2
f 138/2/2 127/2/2 148/2/2
f 147/3/2 138/3/2 148/3/2
f 140/1/2 141/1/2 149/1/2
f 141/2/2 142/2/2 150/2/2
f 149/1/2 141/1/2 150/1/2
f 142/2/2 143/2/2 150/2/2
f 150/2/2 143/2/2 151/2/2
f 143/4/2 144/4/2 152/4/2
f 151/2/2 143/2/2 152/2/2
f 152/4/2 144/4/2 153/4/2
f 153/4/2 144/4/2 154/4/2
f 145/2/2 146/2/2 155/2/2
f 154/4/2 144/4/2 155/4/2
f 144/2/2 145/2/2 155/2/2
f 155/2/2 146/2/2 156/2/2
f 146/3/2 147/3/2 157/3/2
f 156/2/2 146/2/2 157/2/2
f 157/3/2 147/3/2 158/3/2
f 158/3/2 147/3/2 159/3/2
f 147/2/2 148/2/2 160/2/2
f 159/3/2 147/3/2 160/3/2
f 148/2/2 127/2/2 161/2/2
f 160/2/2 148/2/2 161/2/2
f 127/1/2 128/1/2 162/1/2
f 161/2/2 127/2/2 162/2/2
f 162/1/2 128/1/2 163/1/2
f 150/1/2 151/1/2 164/1/2
f 152/2/2 153/2/2 165/2/2
f 164/1/2 151/1/2 165/1/2
f 151/2/2 152/2/2 165/2/2
f 165/2/2 153/2/2 166/2/2
f 153/4/2 154/4/2 167/4/2
f 166/2/2 153/2/2 167/2/2
f 154/2/2 155/2/2 168/2/2
f 167/4/2 154/4/2 168/4/2
f 168/2/2 155/2/2 169/2/2
f 155/4/2 156/4/2 170/4/2
f 169/2/2 155/2/2 170/2/2
f 157/2/2 158/2/2 171/2/2
f 170/4/2 156/4/2 171/4/2
f 156/2/2 157/2/2 171/2/2
f 171/2/2 158/2/2 172/2/2
f 158/3/2 159/3/2 173/3/2
f 172/2/2 158/2/2 173/2/2
f 159/2/2 160/2/2 174/2/2
f 173/3/2 159/3/2 174/3/2
f 160/2/2 161/2/2 174/2/2
f 165/1/2 166/1/2 175/1/2
f 166/2/2 167/2/2 176/2/2
f 175/1/2 166/1/2 176/1/2
f 168/5/2 169/5/2 177/5/2
f 176/2/2 167/2/2 177/2/2
f 167/5/2 168/5/2 177/5/2
f 170/2/2 171/2/2 178/2/2
f 177/5/2 169/5/2 178/5/2
f 169/2/2 170/2/2 178/2/2
f 171/4/2 172/4/2 179/4/2
f 178/2/2 171/2/2 179/2/2
f 172/2/2 173/2/2 180/2/2
f 179/4/2 172/4/2 180/4/2
f 173/2/2 174/2/2 180/2/2
f 174/2/2 161/2/2 181/2/2
f 180/2/2 174/2/2 181/2/2
f 161/1/2 162/1/2 181/1/2
f 181/1/2 162/1/2 182/1/2
f 178/1/2 179/1/2 183/1/2
f 176/1/2 177/1/2 183/1/2
f 180/1/2 181/1/2 183/1/2
f 179/1/2 180/1/2 183/1/2
f 177/1/2 178/1/2 183/1/2
f 183/1/2 181/1/2 184/1/2
f 187/1/3 186/1/3 185/1/3
f 188/1/3 186/1/3 187/1/3
f 193/1/3 190/1/3 189/1/3
f 194/1/3 190/1/3 193/1/3
f 195/1/3 192/1/3 191/1/3
f 196/1/3 192/1/3 195/1/3
f 201/1/3 198/1/3 197/1/3
f 202/1/3 198/1/3 201/1/3
f 203/1/3 200/1/3 199/1/3
f 204/1/3 200/1/3 203/1/3
f 209/1/3 206/1/3 205/1/3
f 210/1/3 206/1/3 209/1/3
f 211/1/3 208/1/3 207/1/3
f 212/1/3 208/1/3 211/1/3
f 217/1/3 214/1/3 213/1/3
f 218/1/3 214/1/3 217/1/3
f 219/1/3 216/1/3 215/1/3
f 220/1/3 216/1/3 219/1/3
f 221/1/4 222/1/4 225/1/4
f 225/1/4 222/1/4 226/1/4
f 223/1/4 224/1/4 227/1/4
f 227/1/4 224/1/4 228/1/4
f 229/1/4 230/1/4 233/1/4
f 233/1/4 230/1/4 234/1/4
f 231/1/4 232/1/4 235/1/4
f 235/1/4 232/1/4 236/1/4
f 237/1/4 238/1/4 239/1/4
f 239/1/4 238/1/4 240/1/4
f 243/1/5 242/1/5 241/1/5
f 244/1/5 242/1/5 243/1/5
f 247/1/5 246/1/5 245/1/5
f 248/1/5 246/1/5 247/1/5
f 251/1/5 250/1/5 249/1/5
f 252/1/5 250/1/5 251/1/5
f 255/1/5 254/1/5 253/1/5
f 256/1/5 254/1/5 255/1/5
f 259/1/5 258/1/5 257/1/5
f 260/1/5 258/1/5 259/1/5
f 263/1/5 262/1/5 261/1/5
f 264/1/5 262/1/5 263/1/5
f 267/1/5 266/1/5 265/1/5
f 268/1/5 266/1/5 267/1/5
f 269/1/6 270/1/6 271/1/6
f 271/1/6 270/1/6 272/1/6
f 273/1/6 274/1/6 275/1/6
f 275/1/6 274/1/6 276/1/6
f 277/1/6 278/1/6 279/1/6
f 279/1/6 278/1/6 280/1/6
f 281/1/6 282/1/6 283/1/6
f 283/1/6 282/1/6 284/1/6
f 285/1/6 286/1/6 287/1/6
f 287/1/6 286/1/6 288/1/6
f 289/1/6 290/1/6 291/1/6
f 291/1/6 290/1/6 292/1/6
f 293/1/6 294/1/6 295/1/6
f 295/1/6 294/1/6 296/1/6
