# MagicaVoxel @ Ephtracy

# group
o 

# material
mtllib Weapon Decor-0.mtl
usemtl palette

# normals
vn -1 0 0
vn 1 0 0
vn 0 0 1
vn 0 0 -1
vn 0 -1 0
vn 0 1 0

# texcoords
vt 0.306641 0.5
vt 0.513672 0.5
vt 0.583984 0.5
vt 0.662109 0.5
vt 0.962891 0.5

# verts
v -0.1 -0.7 1.2
v -0.1 -0.7 1.1
v -0.1 -0.6 1.1
v -0.1 -0.6 1
v -0.1 -0.5 1
v -0.1 -0.5 0.9
v -0.1 -0.2 2.4
v -0.1 -0.2 2.2
v -0.1 -0.2 1.3
v -0.1 -0.2 1.2
v -0.1 -0.2 0.9
v -0.1 -0.2 -0.9
v -0.1 -0.1 2.2
v -0.1 -0.1 1.3
v -0.1 -0.1 0.9
v -0.1 -0.1 -0.9
v -0.1 -0.1 -2
v -0.1 0.1 2.2
v -0.1 0.1 1.3
v -0.1 0.1 0.9
v -0.1 0.1 -0.9
v -0.1 0.1 -2
v -0.1 0.2 2.4
v -0.1 0.2 2.2
v -0.1 0.2 1.3
v -0.1 0.2 1.2
v -0.1 0.2 0.9
v -0.1 0.2 -0.9
v -0.1 0.5 1
v -0.1 0.5 0.9
v -0.1 0.6 1.1
v -0.1 0.6 1
v -0.1 0.7 1.2
v -0.1 0.7 1.1
v 0 -0.3 2.4
v 0 -0.3 2.2
v 0 -0.3 1.3
v 0 -0.3 1.2
v 0 -0.3 0.9
v 0 -0.3 0.8
v 0 -0.2 2.4
v 0 -0.2 2.2
v 0 -0.2 1.3
v 0 -0.2 1.2
v 0 -0.2 0.9
v 0 -0.2 0.8
v 0 -0.2 -0.9
v 0 -0.2 -2.2
v 0 -0.1 -0.9
v 0 -0.1 -2
v 0 -0.1 -2.2
v 0 -0.1 -2.4
v 0 0.1 -0.9
v 0 0.1 -2
v 0 0.1 -2.2
v 0 0.1 -2.4
v 0 0.2 2.4
v 0 0.2 2.2
v 0 0.2 1.3
v 0 0.2 1.2
v 0 0.2 0.9
v 0 0.2 0.8
v 0 0.2 -0.9
v 0 0.2 -2.2
v 0 0.3 2.4
v 0 0.3 2.2
v 0 0.3 1.3
v 0 0.3 1.2
v 0 0.3 0.9
v 0 0.3 0.8
v 0.1 -0.7 1.2
v 0.1 -0.7 1.1
v 0.1 -0.6 1.1
v 0.1 -0.6 1
v 0.1 -0.5 1
v 0.1 -0.5 0.9
v 0.1 -0.3 2.4
v 0.1 -0.3 2.2
v 0.1 -0.3 1.3
v 0.1 -0.3 1.2
v 0.1 -0.3 0.9
v 0.1 -0.3 0.8
v 0.1 -0.2 0.9
v 0.1 -0.2 0.8
v 0.1 -0.2 -2.2
v 0.1 -0.1 2.2
v 0.1 -0.1 1.3
v 0.1 -0.1 0.8
v 0.1 -0.1 -2.2
v 0.1 -0.1 -2.4
v 0.1 0.1 2.2
v 0.1 0.1 1.3
v 0.1 0.1 0.8
v 0.1 0.1 -2.2
v 0.1 0.1 -2.4
v 0.1 0.2 0.9
v 0.1 0.2 0.8
v 0.1 0.2 -2.2
v 0.1 0.3 2.4
v 0.1 0.3 2.2
v 0.1 0.3 1.3
v 0.1 0.3 1.2
v 0.1 0.3 0.9
v 0.1 0.3 0.8
v 0.1 0.5 1
v 0.1 0.5 0.9
v 0.1 0.6 1.1
v 0.1 0.6 1
v 0.1 0.7 1.2
v 0.1 0.7 1.1
v -0.1 -0.2 2.4
v -0.1 0.2 2.4
v 0 -0.3 2.4
v 0 -0.2 2.4
v 0 0.2 2.4
v 0 0.3 2.4
v 0.1 -0.3 2.4
v 0.1 0.3 2.4
v -0.1 -0.2 1.3
v -0.1 -0.1 1.3
v -0.1 0.1 1.3
v -0.1 0.2 1.3
v 0 -0.3 1.3
v 0 -0.2 1.3
v 0 0.2 1.3
v 0 0.3 1.3
v 0.1 -0.3 1.3
v 0.1 -0.1 1.3
v 0.1 0.1 1.3
v 0.1 0.3 1.3
v -0.1 -0.7 1.2
v -0.1 -0.2 1.2
v -0.1 0.2 1.2
v -0.1 0.7 1.2
v 0 -0.3 1.2
v 0 -0.2 1.2
v 0 0.2 1.2
v 0 0.3 1.2
v 0.1 -0.7 1.2
v 0.1 -0.3 1.2
v 0.1 0.3 1.2
v 0.1 0.7 1.2
v -0.1 -0.2 2.2
v -0.1 -0.1 2.2
v -0.1 0.1 2.2
v -0.1 0.2 2.2
v 0 -0.3 2.2
v 0 -0.2 2.2
v 0 0.2 2.2
v 0 0.3 2.2
v 0.1 -0.3 2.2
v 0.1 -0.1 2.2
v 0.1 0.1 2.2
v 0.1 0.3 2.2
v -0.1 -0.7 1.1
v -0.1 -0.6 1.1
v -0.1 0.6 1.1
v -0.1 0.7 1.1
v 0.1 -0.7 1.1
v 0.1 -0.6 1.1
v 0.1 0.6 1.1
v 0.1 0.7 1.1
v -0.1 -0.6 1
v -0.1 -0.5 1
v -0.1 0.5 1
v -0.1 0.6 1
v 0.1 -0.6 1
v 0.1 -0.5 1
v 0.1 0.5 1
v 0.1 0.6 1
v -0.1 -0.5 0.9
v -0.1 -0.2 0.9
v -0.1 0.2 0.9
v -0.1 0.5 0.9
v 0 -0.3 0.9
v 0 -0.2 0.9
v 0 0.2 0.9
v 0 0.3 0.9
v 0.1 -0.5 0.9
v 0.1 -0.3 0.9
v 0.1 0.3 0.9
v 0.1 0.5 0.9
v 0 -0.3 0.8
v 0 -0.2 0.8
v 0 0.2 0.8
v 0 0.3 0.8
v 0.1 -0.3 0.8
v 0.1 -0.2 0.8
v 0.1 0.2 0.8
v 0.1 0.3 0.8
v -0.1 -0.2 -0.9
v -0.1 -0.1 -0.9
v -0.1 0.1 -0.9
v -0.1 0.2 -0.9
v 0 -0.2 -0.9
v 0 -0.1 -0.9
v 0 0.1 -0.9
v 0 0.2 -0.9
v -0.1 -0.1 -2
v -0.1 0.1 -2
v 0 -0.1 -2
v 0 0.1 -2
v 0 -0.2 -2.2
v 0 -0.1 -2.2
v 0 0.1 -2.2
v 0 0.2 -2.2
v 0.1 -0.2 -2.2
v 0.1 -0.1 -2.2
v 0.1 0.1 -2.2
v 0.1 0.2 -2.2
v 0 -0.1 -2.4
v 0 0.1 -2.4
v 0.1 -0.1 -2.4
v 0.1 0.1 -2.4
v -0.1 -0.7 1.2
v 0.1 -0.7 1.2
v -0.1 -0.7 1.1
v 0.1 -0.7 1.1
v -0.1 -0.6 1.1
v 0.1 -0.6 1.1
v -0.1 -0.6 1
v 0.1 -0.6 1
v -0.1 -0.5 1
v 0.1 -0.5 1
v -0.1 -0.5 0.9
v 0.1 -0.5 0.9
v 0 -0.3 2.4
v 0.1 -0.3 2.4
v 0 -0.3 2.2
v 0.1 -0.3 2.2
v 0 -0.3 1.3
v 0.1 -0.3 1.3
v 0 -0.3 1.2
v 0.1 -0.3 1.2
v 0 -0.3 0.9
v 0.1 -0.3 0.9
v 0 -0.3 0.8
v 0.1 -0.3 0.8
v -0.1 -0.2 2.4
v 0 -0.2 2.4
v -0.1 -0.2 2.2
v 0 -0.2 2.2
v -0.1 -0.2 1.3
v 0 -0.2 1.3
v -0.1 -0.2 1.2
v 0 -0.2 1.2
v -0.1 -0.2 0.9
v 0 -0.2 0.9
v 0 -0.2 0.8
v 0.1 -0.2 0.8
v -0.1 -0.2 -0.9
v 0 -0.2 -0.9
v 0 -0.2 -2.2
v 0.1 -0.2 -2.2
v -0.1 -0.1 2.2
v 0.1 -0.1 2.2
v -0.1 -0.1 1.3
v 0.1 -0.1 1.3
v -0.1 -0.1 -0.9
v 0 -0.1 -0.9
v -0.1 -0.1 -2
v 0 -0.1 -2
v 0 -0.1 -2.2
v 0.1 -0.1 -2.2
v 0 -0.1 -2.4
v 0.1 -0.1 -2.4
v -0.1 0.1 2.2
v 0.1 0.1 2.2
v -0.1 0.1 1.3
v 0.1 0.1 1.3
v -0.1 0.1 -0.9
v 0 0.1 -0.9
v -0.1 0.1 -2
v 0 0.1 -2
v 0 0.1 -2.2
v 0.1 0.1 -2.2
v 0 0.1 -2.4
v 0.1 0.1 -2.4
v -0.1 0.2 2.4
v 0 0.2 2.4
v -0.1 0.2 2.2
v 0 0.2 2.2
v -0.1 0.2 1.3
v 0 0.2 1.3
v -0.1 0.2 1.2
v 0 0.2 1.2
v -0.1 0.2 0.9
v 0 0.2 0.9
v 0 0.2 0.8
v 0.1 0.2 0.8
v -0.1 0.2 -0.9
v 0 0.2 -0.9
v 0 0.2 -2.2
v 0.1 0.2 -2.2
v 0 0.3 2.4
v 0.1 0.3 2.4
v 0 0.3 2.2
v 0.1 0.3 2.2
v 0 0.3 1.3
v 0.1 0.3 1.3
v 0 0.3 1.2
v 0.1 0.3 1.2
v 0 0.3 0.9
v 0.1 0.3 0.9
v 0 0.3 0.8
v 0.1 0.3 0.8
v -0.1 0.5 1
v 0.1 0.5 1
v -0.1 0.5 0.9
v 0.1 0.5 0.9
v -0.1 0.6 1.1
v 0.1 0.6 1.1
v -0.1 0.6 1
v 0.1 0.6 1
v -0.1 0.7 1.2
v 0.1 0.7 1.2
v -0.1 0.7 1.1
v 0.1 0.7 1.1

# faces
f 3/5/1 2/5/1 1/5/1
f 5/1/1 4/1/1 3/1/1
f 10/5/1 3/5/1 1/5/1
f 11/1/1 6/1/1 5/1/1
f 13/2/1 8/2/1 7/2/1
f 14/2/1 10/2/1 9/2/1
f 15/4/1 12/4/1 11/4/1
f 15/1/1 11/1/1 5/1/1
f 16/4/1 12/4/1 15/4/1
f 18/2/1 14/2/1 13/2/1
f 18/2/1 13/2/1 7/2/1
f 19/2/1 10/2/1 14/2/1
f 19/2/1 14/2/1 18/2/1
f 20/3/1 17/3/1 16/3/1
f 20/3/1 16/3/1 15/3/1
f 20/1/1 15/1/1 5/1/1
f 21/3/1 17/3/1 20/3/1
f 22/3/1 17/3/1 21/3/1
f 23/2/1 18/2/1 7/2/1
f 24/2/1 18/2/1 23/2/1
f 25/2/1 10/2/1 19/2/1
f 26/5/1 3/5/1 10/5/1
f 26/2/1 10/2/1 25/2/1
f 27/4/1 21/4/1 20/4/1
f 27/1/1 20/1/1 5/1/1
f 28/4/1 21/4/1 27/4/1
f 29/1/1 5/1/1 3/1/1
f 29/1/1 27/1/1 5/1/1
f 30/1/1 27/1/1 29/1/1
f 31/5/1 3/5/1 26/5/1
f 31/1/1 29/1/1 3/1/1
f 32/1/1 29/1/1 31/1/1
f 33/5/1 31/5/1 26/5/1
f 34/5/1 31/5/1 33/5/1
f 41/2/1 36/2/1 35/2/1
f 42/2/1 36/2/1 41/2/1
f 43/2/1 38/2/1 37/2/1
f 44/2/1 38/2/1 43/2/1
f 45/4/1 40/4/1 39/4/1
f 46/4/1 40/4/1 45/4/1
f 49/4/1 48/4/1 47/4/1
f 50/4/1 48/4/1 49/4/1
f 51/4/1 48/4/1 50/4/1
f 54/3/1 51/3/1 50/3/1
f 55/4/1 52/4/1 51/4/1
f 55/3/1 51/3/1 54/3/1
f 56/4/1 52/4/1 55/4/1
f 63/4/1 54/4/1 53/4/1
f 63/4/1 55/4/1 54/4/1
f 64/4/1 55/4/1 63/4/1
f 65/2/1 58/2/1 57/2/1
f 66/2/1 58/2/1 65/2/1
f 67/2/1 60/2/1 59/2/1
f 68/2/1 60/2/1 67/2/1
f 69/4/1 62/4/1 61/4/1
f 70/4/1 62/4/1 69/4/1
f 71/5/2 72/5/2 73/5/2
f 73/1/2 74/1/2 75/1/2
f 71/5/2 73/5/2 80/5/2
f 75/1/2 76/1/2 81/1/2
f 75/1/2 81/1/2 83/1/2
f 81/4/2 82/4/2 83/4/2
f 83/4/2 82/4/2 84/4/2
f 77/2/2 78/2/2 86/2/2
f 79/2/2 80/2/2 87/2/2
f 84/4/2 85/4/2 88/4/2
f 83/3/2 84/3/2 88/3/2
f 88/4/2 85/4/2 89/4/2
f 86/2/2 87/2/2 91/2/2
f 77/2/2 86/2/2 91/2/2
f 87/2/2 80/2/2 92/2/2
f 91/2/2 87/2/2 92/2/2
f 88/3/2 89/3/2 93/3/2
f 83/3/2 88/3/2 93/3/2
f 89/4/2 90/4/2 94/4/2
f 93/3/2 89/3/2 94/3/2
f 94/4/2 90/4/2 95/4/2
f 83/3/2 93/3/2 96/3/2
f 75/1/2 83/1/2 96/1/2
f 93/4/2 94/4/2 97/4/2
f 96/3/2 93/3/2 97/3/2
f 97/4/2 94/4/2 98/4/2
f 77/2/2 91/2/2 99/2/2
f 99/2/2 91/2/2 100/2/2
f 92/2/2 80/2/2 101/2/2
f 80/5/2 73/5/2 102/5/2
f 101/2/2 80/2/2 102/2/2
f 75/1/2 96/1/2 103/1/2
f 96/4/2 97/4/2 103/4/2
f 103/4/2 97/4/2 104/4/2
f 73/1/2 75/1/2 105/1/2
f 75/1/2 103/1/2 105/1/2
f 105/1/2 103/1/2 106/1/2
f 102/5/2 73/5/2 107/5/2
f 73/1/2 105/1/2 107/1/2
f 107/1/2 105/1/2 108/1/2
f 102/5/2 107/5/2 109/5/2
f 109/5/2 107/5/2 110/5/2
f 114/2/3 112/2/3 111/2/3
f 115/2/3 112/2/3 114/2/3
f 117/2/3 114/2/3 113/2/3
f 117/2/3 116/2/3 115/2/3
f 117/2/3 115/2/3 114/2/3
f 118/2/3 116/2/3 117/2/3
f 124/2/3 120/2/3 119/2/3
f 125/2/3 122/2/3 121/2/3
f 127/2/3 124/2/3 123/2/3
f 128/2/3 120/2/3 124/2/3
f 128/2/3 124/2/3 127/2/3
f 129/2/3 126/2/3 125/2/3
f 129/2/3 125/2/3 121/2/3
f 130/2/3 126/2/3 129/2/3
f 135/5/3 132/5/3 131/5/3
f 136/5/3 132/5/3 135/5/3
f 137/5/3 134/5/3 133/5/3
f 138/5/3 134/5/3 137/5/3
f 139/5/3 135/5/3 131/5/3
f 140/5/3 135/5/3 139/5/3
f 141/5/3 134/5/3 138/5/3
f 142/5/3 134/5/3 141/5/3
f 143/2/4 144/2/4 148/2/4
f 145/2/4 146/2/4 149/2/4
f 147/2/4 148/2/4 151/2/4
f 148/2/4 144/2/4 152/2/4
f 151/2/4 148/2/4 152/2/4
f 149/2/4 150/2/4 153/2/4
f 145/2/4 149/2/4 153/2/4
f 153/2/4 150/2/4 154/2/4
f 155/5/4 156/5/4 159/5/4
f 159/5/4 156/5/4 160/5/4
f 157/5/4 158/5/4 161/5/4
f 161/5/4 158/5/4 162/5/4
f 163/1/4 164/1/4 167/1/4
f 167/1/4 164/1/4 168/1/4
f 165/1/4 166/1/4 169/1/4
f 169/1/4 166/1/4 170/1/4
f 171/1/4 172/1/4 175/1/4
f 175/1/4 172/1/4 176/1/4
f 173/1/4 174/1/4 177/1/4
f 177/1/4 174/1/4 178/1/4
f 171/1/4 175/1/4 179/1/4
f 179/1/4 175/1/4 180/1/4
f 178/1/4 174/1/4 181/1/4
f 181/1/4 174/1/4 182/1/4
f 183/4/4 184/4/4 187/4/4
f 187/4/4 184/4/4 188/4/4
f 185/4/4 186/4/4 189/4/4
f 189/4/4 186/4/4 190/4/4
f 191/4/4 192/4/4 195/4/4
f 195/4/4 192/4/4 196/4/4
f 193/4/4 194/4/4 197/4/4
f 197/4/4 194/4/4 198/4/4
f 199/3/4 200/3/4 201/3/4
f 201/3/4 200/3/4 202/3/4
f 203/4/4 204/4/4 207/4/4
f 207/4/4 204/4/4 208/4/4
f 205/4/4 206/4/4 209/4/4
f 209/4/4 206/4/4 210/4/4
f 211/4/4 212/4/4 213/4/4
f 213/4/4 212/4/4 214/4/4
f 217/5/5 216/5/5 215/5/5
f 218/5/5 216/5/5 217/5/5
f 221/1/5 220/1/5 219/1/5
f 222/1/5 220/1/5 221/1/5
f 225/1/5 224/1/5 223/1/5
f 226/1/5 224/1/5 225/1/5
f 229/2/5 228/2/5 227/2/5
f 230/2/5 228/2/5 229/2/5
f 233/2/5 232/2/5 231/2/5
f 234/2/5 232/2/5 233/2/5
f 237/4/5 236/4/5 235/4/5
f 238/4/5 236/4/5 237/4/5
f 241/2/5 240/2/5 239/2/5
f 242/2/5 240/2/5 241/2/5
f 245/2/5 244/2/5 243/2/5
f 246/2/5 244/2/5 245/2/5
f 249/4/5 248/4/5 247/4/5
f 251/4/5 249/4/5 247/4/5
f 251/4/5 250/4/5 249/4/5
f 252/4/5 250/4/5 251/4/5
f 253/4/5 250/4/5 252/4/5
f 254/4/5 250/4/5 253/4/5
f 257/2/5 256/2/5 255/2/5
f 258/2/5 256/2/5 257/2/5
f 261/3/5 260/3/5 259/3/5
f 262/3/5 260/3/5 261/3/5
f 265/4/5 264/4/5 263/4/5
f 266/4/5 264/4/5 265/4/5
f 267/2/6 268/2/6 269/2/6
f 269/2/6 268/2/6 270/2/6
f 271/3/6 272/3/6 273/3/6
f 273/3/6 272/3/6 274/3/6
f 275/4/6 276/4/6 277/4/6
f 277/4/6 276/4/6 278/4/6
f 279/2/6 280/2/6 281/2/6
f 281/2/6 280/2/6 282/2/6
f 283/2/6 284/2/6 285/2/6
f 285/2/6 284/2/6 286/2/6
f 287/4/6 288/4/6 289/4/6
f 287/4/6 289/4/6 291/4/6
f 289/4/6 290/4/6 291/4/6
f 291/4/6 290/4/6 292/4/6
f 292/4/6 290/4/6 293/4/6
f 293/4/6 290/4/6 294/4/6
f 295/2/6 296/2/6 297/2/6
f 297/2/6 296/2/6 298/2/6
f 299/2/6 300/2/6 301/2/6
f 301/2/6 300/2/6 302/2/6
f 303/4/6 304/4/6 305/4/6
f 305/4/6 304/4/6 306/4/6
f 307/1/6 308/1/6 309/1/6
f 309/1/6 308/1/6 310/1/6
f 311/1/6 312/1/6 313/1/6
f 313/1/6 312/1/6 314/1/6
f 315/5/6 316/5/6 317/5/6
f 317/5/6 316/5/6 318/5/6
