# MagicaVoxel @ Ephtracy

# group
o 

# material
mtllib Road and grass-3.mtl
usemtl palette

# normals
vn -1 0 0
vn 1 0 0
vn 0 0 1
vn 0 0 -1
vn 0 -1 0
vn 0 1 0

# texcoords
vt 0.0488281 0.5
vt 0.0644531 0.5
vt 0.294922 0.5

# verts
v -1.4 -0.6 0.5
v -1.4 -0.6 -0.5
v -1.4 -0.4 0.5
v -1.4 -0.4 0.4
v -1.4 -0.2 0.5
v -1.4 -0.2 0.4
v -1.4 -0.1 0.5
v -1.4 -0.1 0.4
v -1.4 -5.96046e-08 0.5
v -1.4 -5.96046e-08 0.4
v -1.4 0.1 0.5
v -1.4 0.1 0.4
v -1.4 0.2 0.5
v -1.4 0.2 0.4
v -1.4 0.3 0.5
v -1.4 0.3 0.4
v -1.4 0.5 0.5
v -1.4 0.5 0.4
v -1.4 0.7 0.5
v -1.4 0.7 -0.5
v 0.3 -0.6 -0.4
v 0.3 -0.6 -0.5
v 0.3 -0.3 -0.4
v 0.3 -0.3 -0.5
v 0.2 -0.6 -0.4
v 0.2 -0.6 -0.5
v 0.2 -0.3 -0.4
v 0.2 -0.3 -0.5
v 1.5 -0.6 0.5
v 1.5 -0.6 -0.5
v 1.5 -0.4 0.5
v 1.5 -0.4 0.4
v 1.5 -0.2 0.5
v 1.5 -0.2 0.4
v 1.5 0.4 0.5
v 1.5 0.4 0.4
v 1.5 0.6 0.5
v 1.5 0.6 0.4
v 1.5 0.7 0.5
v 1.5 0.7 -0.5
v -1.4 -0.6 0.5
v -1.4 -0.4 0.5
v -1.4 -0.2 0.5
v -1.4 -0.1 0.5
v -1.4 -5.96046e-08 0.5
v -1.4 0.1 0.5
v -1.4 0.2 0.5
v -1.4 0.3 0.5
v -1.4 0.5 0.5
v -1.4 0.7 0.5
v -1.3 -5.96046e-08 0.5
v -1.3 0.1 0.5
v -1.2 -0.4 0.5
v -1.2 -0.2 0.5
v -1.2 0.3 0.5
v -1.2 0.5 0.5
v -1.1 0.1 0.5
v -1.1 0.2 0.5
v -1.1 0.3 0.5
v -1 -0.2 0.5
v -1 -0.1 0.5
v -1 0.1 0.5
v -0.9 -0.3 0.5
v -0.9 -0.2 0.5
v -0.9 -0.1 0.5
v -0.8 0.2 0.5
v -0.8 0.3 0.5
v -0.8 0.5 0.5
v -0.8 0.6 0.5
v -0.7 -5.96046e-08 0.5
v -0.7 0.2 0.5
v -0.6 0.3 0.5
v -0.6 0.5 0.5
v -0.6 0.6 0.5
v -0.4 -0.3 0.5
v -0.4 -0.2 0.5
v -0.4 -0.1 0.5
v -0.4 -5.96046e-08 0.5
v -0.4 0.2 0.5
v -0.4 0.4 0.5
v -0.4 0.6 0.5
v -0.2 -0.3 0.5
v -0.2 -0.2 0.5
v -0.2 0.4 0.5
v -0.2 0.6 0.5
v 0 0.4 0.5
v 0 0.5 0.5
v 0.1 0.4 0.5
v 0.1 0.5 0.5
v 0.2 0.4 0.5
v 0.2 0.6 0.5
v 0.3 0.1 0.5
v 0.3 0.2 0.5
v 0.5 -0.1 0.5
v 0.5 -5.96046e-08 0.5
v 0.5 0.3 0.5
v 0.5 0.4 0.5
v 0.5 0.5 0.5
v 0.6 -0.2 0.5
v 0.6 -0.1 0.5
v 0.6 0.1 0.5
v 0.6 0.2 0.5
v 0.7 -0.1 0.5
v 0.7 -5.96046e-08 0.5
v 0.7 0.5 0.5
v 0.7 0.6 0.5
v 0.8 0.4 0.5
v 0.8 0.5 0.5
v 0.8 0.6 0.5
v 0.9 -0.2 0.5
v 0.9 -0.1 0.5
v 0.9 0.1 0.5
v 0.9 0.2 0.5
v 0.9 0.3 0.5
v 0.9 0.4 0.5
v 1 0.2 0.5
v 1 0.4 0.5
v 1 0.6 0.5
v 1.2 -0.1 0.5
v 1.2 -5.96046e-08 0.5
v 1.2 0.1 0.5
v 1.2 0.2 0.5
v 1.3 -0.4 0.5
v 1.3 -0.2 0.5
v 1.3 -5.96046e-08 0.5
v 1.3 0.1 0.5
v 1.3 0.2 0.5
v 1.3 0.4 0.5
v 1.3 0.5 0.5
v 1.3 0.6 0.5
v 1.4 0.4 0.5
v 1.4 0.5 0.5
v 1.5 -0.6 0.5
v 1.5 -0.4 0.5
v 1.5 -0.2 0.5
v 1.5 0.4 0.5
v 1.5 0.6 0.5
v 1.5 0.7 0.5
v 0.2 -0.6 -0.4
v 0.2 -0.3 -0.4
v 0.3 -0.6 -0.4
v 0.3 -0.3 -0.4
v -1.4 -0.6 -0.5
v -1.4 0.7 -0.5
v 0.2 -0.6 -0.5
v 0.2 -0.3 -0.5
v 0.3 -0.6 -0.5
v 0.3 -0.3 -0.5
v 1.5 -0.6 -0.5
v 1.5 0.7 -0.5
v -1.4 -0.6 0.5
v 1.5 -0.6 0.5
v 0.2 -0.6 -0.4
v 0.3 -0.6 -0.4
v -1.4 -0.6 -0.5
v 0.2 -0.6 -0.5
v 0.3 -0.6 -0.5
v 1.5 -0.6 -0.5
v 0.2 -0.3 -0.4
v 0.3 -0.3 -0.4
v 0.2 -0.3 -0.5
v 0.3 -0.3 -0.5
v -1.4 0.7 0.5
v 1.5 0.7 0.5
v -1.4 0.7 -0.5
v 1.5 0.7 -0.5

# faces
f 3/1/1 2/1/1 1/1/1
f 4/1/1 2/1/1 3/1/1
f 5/3/1 4/3/1 3/3/1
f 6/1/1 2/1/1 4/1/1
f 6/3/1 4/3/1 5/3/1
f 7/1/1 6/1/1 5/1/1
f 8/1/1 2/1/1 6/1/1
f 8/1/1 6/1/1 7/1/1
f 9/3/1 8/3/1 7/3/1
f 10/1/1 2/1/1 8/1/1
f 10/3/1 8/3/1 9/3/1
f 11/2/1 10/2/1 9/2/1
f 12/1/1 2/1/1 10/1/1
f 12/2/1 10/2/1 11/2/1
f 13/3/1 12/3/1 11/3/1
f 14/1/1 2/1/1 12/1/1
f 14/3/1 12/3/1 13/3/1
f 15/1/1 14/1/1 13/1/1
f 16/1/1 2/1/1 14/1/1
f 16/1/1 14/1/1 15/1/1
f 17/3/1 16/3/1 15/3/1
f 18/1/1 2/1/1 16/1/1
f 18/3/1 16/3/1 17/3/1
f 19/1/1 18/1/1 17/1/1
f 20/1/1 2/1/1 18/1/1
f 20/1/1 18/1/1 19/1/1
f 23/1/1 22/1/1 21/1/1
f 24/1/1 22/1/1 23/1/1
f 25/1/2 26/1/2 27/1/2
f 27/1/2 26/1/2 28/1/2
f 29/1/2 30/1/2 31/1/2
f 31/1/2 30/1/2 32/1/2
f 31/3/2 32/3/2 33/3/2
f 32/1/2 30/1/2 34/1/2
f 33/3/2 32/3/2 34/3/2
f 33/1/2 34/1/2 35/1/2
f 34/1/2 30/1/2 36/1/2
f 35/1/2 34/1/2 36/1/2
f 35/3/2 36/3/2 37/3/2
f 36/1/2 30/1/2 38/1/2
f 37/3/2 36/3/2 38/3/2
f 37/1/2 38/1/2 39/1/2
f 38/1/2 30/1/2 40/1/2
f 39/1/2 38/1/2 40/1/2
f 51/3/3 45/3/3 44/3/3
f 51/2/3 46/2/3 45/2/3
f 52/3/3 47/3/3 46/3/3
f 52/2/3 46/2/3 51/2/3
f 53/1/3 42/1/3 41/1/3
f 53/3/3 43/3/3 42/3/3
f 54/1/3 44/1/3 43/1/3
f 54/3/3 43/3/3 53/3/3
f 55/3/3 49/3/3 48/3/3
f 55/1/3 48/1/3 47/1/3
f 56/1/3 50/1/3 49/1/3
f 56/3/3 49/3/3 55/3/3
f 57/3/3 47/3/3 52/3/3
f 57/3/3 52/3/3 51/3/3
f 58/1/3 56/1/3 55/1/3
f 58/3/3 47/3/3 57/3/3
f 58/1/3 55/1/3 47/1/3
f 59/1/3 56/1/3 58/1/3
f 60/1/3 54/1/3 53/1/3
f 60/1/3 44/1/3 54/1/3
f 61/3/3 57/3/3 51/3/3
f 61/1/3 44/1/3 60/1/3
f 61/3/3 51/3/3 44/3/3
f 62/1/3 58/1/3 57/1/3
f 62/3/3 57/3/3 61/3/3
f 63/1/3 60/1/3 53/1/3
f 64/2/3 61/2/3 60/2/3
f 64/1/3 60/1/3 63/1/3
f 65/1/3 62/1/3 61/1/3
f 65/2/3 61/2/3 64/2/3
f 66/1/3 58/1/3 62/1/3
f 66/1/3 62/1/3 65/1/3
f 66/2/3 59/2/3 58/2/3
f 67/1/3 56/1/3 59/1/3
f 67/2/3 59/2/3 66/2/3
f 68/1/3 50/1/3 56/1/3
f 68/1/3 56/1/3 67/1/3
f 69/1/3 50/1/3 68/1/3
f 70/1/3 67/1/3 66/1/3
f 70/1/3 66/1/3 65/1/3
f 71/1/3 67/1/3 70/1/3
f 72/3/3 68/3/3 67/3/3
f 72/1/3 67/1/3 71/1/3
f 73/2/3 69/2/3 68/2/3
f 73/3/3 68/3/3 72/3/3
f 74/1/3 50/1/3 69/1/3
f 74/2/3 69/2/3 73/2/3
f 75/3/3 65/3/3 64/3/3
f 75/3/3 64/3/3 63/3/3
f 75/1/3 63/1/3 53/1/3
f 76/3/3 65/3/3 75/3/3
f 77/1/3 70/1/3 65/1/3
f 77/3/3 65/3/3 76/3/3
f 78/3/3 71/3/3 70/3/3
f 78/1/3 70/1/3 77/1/3
f 79/1/3 73/1/3 72/1/3
f 79/3/3 71/3/3 78/3/3
f 79/1/3 72/1/3 71/1/3
f 79/1/3 74/1/3 73/1/3
f 80/1/3 74/1/3 79/1/3
f 81/1/3 50/1/3 74/1/3
f 81/1/3 74/1/3 80/1/3
f 82/1/3 75/1/3 53/1/3
f 82/2/3 76/2/3 75/2/3
f 83/1/3 78/1/3 77/1/3
f 83/2/3 76/2/3 82/2/3
f 83/1/3 80/1/3 79/1/3
f 83/1/3 79/1/3 78/1/3
f 83/1/3 77/1/3 76/1/3
f 84/2/3 81/2/3 80/2/3
f 84/1/3 80/1/3 83/1/3
f 85/1/3 50/1/3 81/1/3
f 85/2/3 81/2/3 84/2/3
f 86/1/3 83/1/3 82/1/3
f 86/1/3 84/1/3 83/1/3
f 86/1/3 85/1/3 84/1/3
f 87/1/3 85/1/3 86/1/3
f 88/1/3 86/1/3 82/1/3
f 88/2/3 87/2/3 86/2/3
f 89/1/3 85/1/3 87/1/3
f 89/2/3 87/2/3 88/2/3
f 90/1/3 88/1/3 82/1/3
f 90/1/3 89/1/3 88/1/3
f 91/1/3 50/1/3 85/1/3
f 91/1/3 89/1/3 90/1/3
f 91/1/3 85/1/3 89/1/3
f 92/1/3 90/1/3 82/1/3
f 93/1/3 90/1/3 92/1/3
f 94/1/3 92/1/3 82/1/3
f 95/1/3 92/1/3 94/1/3
f 96/1/3 90/1/3 93/1/3
f 97/2/3 91/2/3 90/2/3
f 97/1/3 90/1/3 96/1/3
f 98/2/3 91/2/3 97/2/3
f 99/1/3 94/1/3 82/1/3
f 100/3/3 95/3/3 94/3/3
f 100/1/3 94/1/3 99/1/3
f 101/1/3 92/1/3 95/1/3
f 101/2/3 93/2/3 92/2/3
f 102/1/3 96/1/3 93/1/3
f 102/2/3 93/2/3 101/2/3
f 103/3/3 95/3/3 100/3/3
f 103/3/3 100/3/3 99/3/3
f 104/1/3 101/1/3 95/1/3
f 104/3/3 95/3/3 103/3/3
f 104/1/3 102/1/3 101/1/3
f 105/3/3 98/3/3 97/3/3
f 105/2/3 91/2/3 98/2/3
f 105/3/3 97/3/3 96/3/3
f 106/1/3 50/1/3 91/1/3
f 106/2/3 91/2/3 105/2/3
f 107/3/3 105/3/3 96/3/3
f 108/1/3 106/1/3 105/1/3
f 108/3/3 105/3/3 107/3/3
f 109/1/3 50/1/3 106/1/3
f 109/1/3 106/1/3 108/1/3
f 110/3/3 103/3/3 99/3/3
f 110/1/3 99/1/3 82/1/3
f 111/1/3 104/1/3 103/1/3
f 111/3/3 103/3/3 110/3/3
f 112/1/3 102/1/3 104/1/3
f 112/1/3 104/1/3 111/1/3
f 113/1/3 96/1/3 102/1/3
f 113/1/3 102/1/3 112/1/3
f 114/3/3 107/3/3 96/3/3
f 114/1/3 96/1/3 113/1/3
f 115/2/3 108/2/3 107/2/3
f 115/3/3 107/3/3 114/3/3
f 115/2/3 109/2/3 108/2/3
f 116/1/3 114/1/3 113/1/3
f 116/2/3 113/2/3 112/2/3
f 116/1/3 115/1/3 114/1/3
f 117/2/3 109/2/3 115/2/3
f 117/1/3 115/1/3 116/1/3
f 118/1/3 50/1/3 109/1/3
f 118/2/3 109/2/3 117/2/3
f 119/3/3 112/3/3 111/3/3
f 119/1/3 111/1/3 110/1/3
f 120/3/3 112/3/3 119/3/3
f 121/2/3 116/2/3 112/2/3
f 121/3/3 112/3/3 120/3/3
f 122/3/3 117/3/3 116/3/3
f 122/2/3 116/2/3 121/2/3
f 123/1/3 82/1/3 53/1/3
f 123/1/3 120/1/3 119/1/3
f 123/1/3 53/1/3 41/1/3
f 123/1/3 119/1/3 110/1/3
f 123/1/3 110/1/3 82/1/3
f 124/1/3 120/1/3 123/1/3
f 125/3/3 121/3/3 120/3/3
f 125/1/3 120/1/3 124/1/3
f 126/1/3 122/1/3 121/1/3
f 126/3/3 121/3/3 125/3/3
f 127/3/3 117/3/3 122/3/3
f 127/1/3 122/1/3 126/1/3
f 128/1/3 118/1/3 117/1/3
f 128/3/3 117/3/3 127/3/3
f 129/1/3 118/1/3 128/1/3
f 130/1/3 50/1/3 118/1/3
f 130/1/3 118/1/3 129/1/3
f 131/1/3 126/1/3 125/1/3
f 131/1/3 125/1/3 124/1/3
f 131/1/3 127/1/3 126/1/3
f 131/1/3 128/1/3 127/1/3
f 131/1/3 129/1/3 128/1/3
f 132/3/3 130/3/3 129/3/3
f 132/1/3 129/1/3 131/1/3
f 133/1/3 123/1/3 41/1/3
f 134/3/3 124/3/3 123/3/3
f 134/1/3 123/1/3 133/1/3
f 135/1/3 131/1/3 124/1/3
f 135/3/3 124/3/3 134/3/3
f 136/3/3 132/3/3 131/3/3
f 136/1/3 131/1/3 135/1/3
f 137/1/3 50/1/3 130/1/3
f 137/3/3 132/3/3 136/3/3
f 137/3/3 130/3/3 132/3/3
f 138/1/3 50/1/3 137/1/3
f 139/1/4 140/1/4 141/1/4
f 141/1/4 140/1/4 142/1/4
f 143/1/4 144/1/4 145/1/4
f 145/1/4 144/1/4 146/1/4
f 146/1/4 144/1/4 148/1/4
f 147/1/4 148/1/4 149/1/4
f 148/1/4 144/1/4 150/1/4
f 149/1/4 148/1/4 150/1/4
f 153/1/5 152/1/5 151/1/5
f 154/1/5 152/1/5 153/1/5
f 155/1/5 153/1/5 151/1/5
f 156/1/5 153/1/5 155/1/5
f 157/1/5 152/1/5 154/1/5
f 158/1/5 152/1/5 157/1/5
f 161/1/5 160/1/5 159/1/5
f 162/1/5 160/1/5 161/1/5
f 163/1/6 164/1/6 165/1/6
f 165/1/6 164/1/6 166/1/6
