# MagicaVoxel @ Ephtracy

# group
o 

# material
mtllib Royal  coridoro and ega-0.mtl
usemtl palette

# normals
vn -1 0 0
vn 1 0 0
vn 0 0 1
vn 0 0 -1
vn 0 -1 0
vn 0 1 0

# texcoords
vt 0.326172 0.5
vt 0.330078 0.5
vt 0.740234 0.5

# verts
v -0.4 -0.2 0.1
v -0.4 -0.2 -0.2
v -0.4 -0.1 0.2
v -0.4 -0.1 0.1
v -0.4 -0.1 -0.1
v -0.4 -0.1 -0.2
v -0.4 -0.1 -0.3
v -0.4 0 0
v -0.4 0 -0.1
v -0.4 0.1 0.2
v -0.4 0.1 0.1
v -0.4 0.1 0
v -0.4 0.1 -0.1
v -0.4 0.1 -0.2
v -0.4 0.1 -0.3
v -0.4 0.2 0.1
v -0.4 0.2 0
v -0.4 0.2 -0.1
v -0.4 0.2 -0.2
v -0.4 0.3 0
v -0.4 0.3 -0.1
v -0.3 -0.2 0.3
v -0.3 -0.2 0.1
v -0.3 -0.2 -0.2
v -0.3 -0.2 -0.4
v -0.3 -0.1 0.3
v -0.3 -0.1 0.2
v -0.3 -0.1 0.1
v -0.3 -0.1 -0.2
v -0.3 -0.1 -0.3
v -0.3 -0.1 -0.4
v -0.3 0.1 0.3
v -0.3 0.1 0.2
v -0.3 0.1 0.1
v -0.3 0.1 -0.2
v -0.3 0.1 -0.3
v -0.3 0.1 -0.4
v -0.3 0.2 0.3
v -0.3 0.2 0.2
v -0.3 0.2 0.1
v -0.3 0.2 0
v -0.3 0.2 -0.1
v -0.3 0.2 -0.2
v -0.3 0.2 -0.3
v -0.3 0.2 -0.4
v -0.3 0.3 0.2
v -0.3 0.3 0.1
v -0.3 0.3 0
v -0.3 0.3 -0.1
v -0.3 0.3 -0.2
v -0.3 0.3 -0.3
v -0.3 0.4 0.1
v -0.3 0.4 -0.2
v -0.2 -0.1 0.4
v -0.2 -0.1 0.3
v -0.2 -0.1 -0.4
v -0.2 -0.1 -0.5
v -0.2 0.1 0.4
v -0.2 0.1 0.3
v -0.2 0.1 -0.4
v -0.2 0.1 -0.5
v -0.2 0.2 0.3
v -0.2 0.2 0.2
v -0.2 0.2 -0.3
v -0.2 0.2 -0.4
v -0.2 0.3 0.3
v -0.2 0.3 0.2
v -0.2 0.3 0.1
v -0.2 0.3 -0.2
v -0.2 0.3 -0.3
v -0.2 0.3 -0.4
v -0.2 0.4 0.2
v -0.2 0.4 0.1
v -0.2 0.4 0
v -0.2 0.4 -0.1
v -0.2 0.4 -0.2
v -0.2 0.4 -0.3
v -0.2 0.5 0
v -0.2 0.5 -0.1
v -0.1 -0.2 0.4
v -0.1 -0.2 0.3
v -0.1 -0.2 -0.4
v -0.1 -0.2 -0.5
v -0.1 -0.1 0.4
v -0.1 -0.1 0.3
v -0.1 -0.1 -0.4
v -0.1 -0.1 -0.5
v -0.1 0.1 0.4
v -0.1 0.1 0.3
v -0.1 0.1 -0.4
v -0.1 0.1 -0.5
v -0.1 0.2 0.4
v -0.1 0.2 0.3
v -0.1 0.2 -0.4
v -0.1 0.2 -0.5
v -0.1 0.3 0.3
v -0.1 0.3 0.2
v -0.1 0.3 -0.3
v -0.1 0.3 -0.4
v -0.1 0.4 0.3
v -0.1 0.4 0.2
v -0.1 0.4 0.1
v -0.1 0.4 0
v -0.1 0.4 -0.1
v -0.1 0.4 -0.2
v -0.1 0.4 -0.3
v -0.1 0.4 -0.4
v -0.1 0.5 0.1
v -0.1 0.5 0
v -0.1 0.5 -0.1
v -0.1 0.5 -0.2
v 0 0.2 0.4
v 0 0.2 0.3
v 0 0.2 -0.4
v 0 0.2 -0.5
v 0 0.3 0.4
v 0 0.3 0.3
v 0 0.3 -0.4
v 0 0.3 -0.5
v 0 0.4 0.2
v 0 0.4 0.1
v 0 0.4 -0.2
v 0 0.4 -0.3
v 0 0.5 0.2
v 0 0.5 0.1
v 0 0.5 -0.2
v 0 0.5 -0.3
v 0.1 0.2 0.4
v 0.1 0.2 0.3
v 0.1 0.2 -0.4
v 0.1 0.2 -0.5
v 0.1 0.3 0.4
v 0.1 0.3 0.3
v 0.1 0.3 -0.4
v 0.1 0.3 -0.5
v 0.1 0.4 -0.2
v 0.1 0.4 -0.3
v 0.1 0.5 -0.2
v 0.1 0.5 -0.3
v 0.2 -0.2 0.4
v 0.2 -0.2 0.3
v 0.2 -0.2 -0.4
v 0.2 -0.2 -0.5
v 0.2 -0.1 0.4
v 0.2 -0.1 0.3
v 0.2 -0.1 -0.4
v 0.2 -0.1 -0.5
v 0.2 0.1 0.4
v 0.2 0.1 0.3
v 0.2 0.1 -0.4
v 0.2 0.1 -0.5
v 0.2 0.2 0.4
v 0.2 0.2 0.3
v 0.2 0.2 -0.4
v 0.2 0.2 -0.5
v 0.2 0.3 0.3
v 0.2 0.3 0.2
v 0.2 0.3 -0.3
v 0.2 0.3 -0.4
v 0.2 0.4 0.3
v 0.2 0.4 0.2
v 0.2 0.4 0.1
v 0.2 0.4 0
v 0.2 0.4 -0.1
v 0.2 0.4 -0.2
v 0.2 0.4 -0.3
v 0.2 0.4 -0.4
v 0.2 0.5 0.2
v 0.2 0.5 0.1
v 0.2 0.5 0
v 0.2 0.5 -0.1
v 0.2 0.5 -0.2
v 0.3 -0.1 0.4
v 0.3 -0.1 0.3
v 0.3 -0.1 -0.4
v 0.3 -0.1 -0.5
v 0.3 0 0.3
v 0.3 0.1 0.4
v 0.3 0.1 0.3
v 0.3 0.1 -0.4
v 0.3 0.1 -0.5
v 0.3 0.2 0.3
v 0.3 0.2 0.2
v 0.3 0.2 -0.3
v 0.3 0.2 -0.4
v 0.3 0.3 0.3
v 0.3 0.3 0.2
v 0.3 0.3 0.1
v 0.3 0.3 -0.2
v 0.3 0.3 -0.3
v 0.3 0.3 -0.4
v 0.3 0.4 0.2
v 0.3 0.4 0.1
v 0.3 0.4 0
v 0.3 0.4 -0.1
v 0.3 0.4 -0.2
v 0.3 0.4 -0.3
v 0.3 0.5 0
v 0.3 0.5 -0.1
v 0.4 -0.2 0.3
v 0.4 -0.2 0.1
v 0.4 -0.2 -0.2
v 0.4 -0.2 -0.4
v 0.4 -0.1 0.3
v 0.4 -0.1 0.2
v 0.4 -0.1 0.1
v 0.4 -0.1 -0.2
v 0.4 -0.1 -0.3
v 0.4 -0.1 -0.4
v 0.4 0 0.3
v 0.4 0 0.2
v 0.4 0.1 0.2
v 0.4 0.1 0.1
v 0.4 0.1 -0.2
v 0.4 0.1 -0.3
v 0.4 0.2 0.3
v 0.4 0.2 0.2
v 0.4 0.2 0.1
v 0.4 0.2 0
v 0.4 0.2 -0.1
v 0.4 0.2 -0.2
v 0.4 0.2 -0.3
v 0.4 0.2 -0.4
v 0.4 0.3 0.2
v 0.4 0.3 0.1
v 0.4 0.3 0
v 0.4 0.3 -0.1
v 0.4 0.3 -0.2
v 0.4 0.3 -0.3
v 0.4 0.4 0.1
v 0.4 0.4 -0.2
v 0.5 -0.2 0.1
v 0.5 -0.2 -0.2
v 0.5 -0.1 0.2
v 0.5 -0.1 0.1
v 0.5 -0.1 -0.2
v 0.5 -0.1 -0.3
v 0.5 0.1 0.2
v 0.5 0.1 0.1
v 0.5 0.1 0
v 0.5 0.1 -0.1
v 0.5 0.1 -0.2
v 0.5 0.1 -0.3
v 0.5 0.2 0.1
v 0.5 0.2 0
v 0.5 0.2 -0.1
v 0.5 0.2 -0.2
v 0.5 0.3 0
v 0.5 0.3 -0.1
v -0.2 -0.1 0.4
v -0.2 0.1 0.4
v -0.1 -0.2 0.4
v -0.1 -0.1 0.4
v -0.1 0.1 0.4
v -0.1 0.2 0.4
v 0 0.1 0.4
v 0 0.2 0.4
v 0 0.3 0.4
v 0.1 0.1 0.4
v 0.1 0.2 0.4
v 0.1 0.3 0.4
v 0.2 -0.2 0.4
v 0.2 -0.1 0.4
v 0.2 0.1 0.4
v 0.2 0.2 0.4
v 0.3 -0.1 0.4
v 0.3 0.1 0.4
v -0.3 -0.2 0.3
v -0.3 -0.1 0.3
v -0.3 0.1 0.3
v -0.3 0.2 0.3
v -0.2 -0.1 0.3
v -0.2 0.1 0.3
v -0.2 0.2 0.3
v -0.2 0.3 0.3
v -0.1 -0.2 0.3
v -0.1 -0.1 0.3
v -0.1 0.1 0.3
v -0.1 0.2 0.3
v -0.1 0.3 0.3
v -0.1 0.4 0.3
v 0 0.2 0.3
v 0 0.3 0.3
v 0.1 0.2 0.3
v 0.1 0.3 0.3
v 0.2 -0.2 0.3
v 0.2 -0.1 0.3
v 0.2 0.1 0.3
v 0.2 0.2 0.3
v 0.2 0.3 0.3
v 0.2 0.4 0.3
v 0.3 -0.1 0.3
v 0.3 0 0.3
v 0.3 0.1 0.3
v 0.3 0.2 0.3
v 0.3 0.3 0.3
v 0.4 -0.2 0.3
v 0.4 -0.1 0.3
v 0.4 0 0.3
v 0.4 0.2 0.3
v -0.4 -0.1 0.2
v -0.4 0.1 0.2
v -0.3 -0.1 0.2
v -0.3 0.1 0.2
v -0.3 0.2 0.2
v -0.3 0.3 0.2
v -0.2 0.2 0.2
v -0.2 0.3 0.2
v -0.2 0.4 0.2
v -0.1 0.3 0.2
v -0.1 0.4 0.2
v 0 0.4 0.2
v 0 0.5 0.2
v 0.1 0.4 0.2
v 0.1 0.5 0.2
v 0.2 0.3 0.2
v 0.2 0.4 0.2
v 0.2 0.5 0.2
v 0.3 0.2 0.2
v 0.3 0.3 0.2
v 0.3 0.4 0.2
v 0.4 -0.1 0.2
v 0.4 0 0.2
v 0.4 0.1 0.2
v 0.4 0.2 0.2
v 0.4 0.3 0.2
v 0.5 -0.1 0.2
v 0.5 0.1 0.2
v -0.4 -0.2 0.1
v -0.4 -0.1 0.1
v -0.4 0.1 0.1
v -0.4 0.2 0.1
v -0.3 -0.2 0.1
v -0.3 -0.1 0.1
v -0.3 0.1 0.1
v -0.3 0.2 0.1
v -0.3 0.3 0.1
v -0.3 0.4 0.1
v -0.2 0.3 0.1
v -0.2 0.4 0.1
v -0.1 0.4 0.1
v -0.1 0.5 0.1
v 0 0.4 0.1
v 0 0.5 0.1
v 0.3 0.3 0.1
v 0.3 0.4 0.1
v 0.4 -0.2 0.1
v 0.4 -0.1 0.1
v 0.4 0.1 0.1
v 0.4 0.2 0.1
v 0.4 0.3 0.1
v 0.4 0.4 0.1
v 0.5 -0.2 0.1
v 0.5 -0.1 0.1
v 0.5 0.1 0.1
v 0.5 0.2 0.1
v -0.4 0.2 0
v -0.4 0.3 0
v -0.3 0.2 0
v -0.3 0.3 0
v -0.2 0.4 0
v -0.2 0.5 0
v -0.1 0.4 0
v -0.1 0.5 0
v 0.2 0.4 0
v 0.2 0.5 0
v 0.3 0.4 0
v 0.3 0.5 0
v 0.4 0.2 0
v 0.4 0.3 0
v 0.5 0.2 0
v 0.5 0.3 0
v -0.4 0.2 -0.1
v -0.4 0.3 -0.1
v -0.3 0.2 -0.1
v -0.3 0.3 -0.1
v -0.2 0.4 -0.1
v -0.2 0.5 -0.1
v -0.1 0.4 -0.1
v -0.1 0.5 -0.1
v 0.2 0.4 -0.1
v 0.2 0.5 -0.1
v 0.3 0.4 -0.1
v 0.3 0.5 -0.1
v 0.4 0.2 -0.1
v 0.4 0.3 -0.1
v 0.5 0.2 -0.1
v 0.5 0.3 -0.1
v -0.4 -0.2 -0.2
v -0.4 -0.1 -0.2
v -0.4 0.1 -0.2
v -0.4 0.2 -0.2
v -0.3 -0.2 -0.2
v -0.3 -0.1 -0.2
v -0.3 0.1 -0.2
v -0.3 0.2 -0.2
v -0.3 0.3 -0.2
v -0.3 0.4 -0.2
v -0.2 0.3 -0.2
v -0.2 0.4 -0.2
v -0.1 0.4 -0.2
v -0.1 0.5 -0.2
v 0 0.4 -0.2
v 0 0.5 -0.2
v 0.1 0.4 -0.2
v 0.1 0.5 -0.2
v 0.2 0.4 -0.2
v 0.2 0.5 -0.2
v 0.3 0.3 -0.2
v 0.3 0.4 -0.2
v 0.4 -0.2 -0.2
v 0.4 -0.1 -0.2
v 0.4 0.1 -0.2
v 0.4 0.2 -0.2
v 0.4 0.3 -0.2
v 0.4 0.4 -0.2
v 0.5 -0.2 -0.2
v 0.5 -0.1 -0.2
v 0.5 0.1 -0.2
v 0.5 0.2 -0.2
v -0.4 -0.1 -0.3
v -0.4 0.1 -0.3
v -0.3 -0.1 -0.3
v -0.3 0.1 -0.3
v -0.3 0.2 -0.3
v -0.3 0.3 -0.3
v -0.2 0.2 -0.3
v -0.2 0.3 -0.3
v -0.2 0.4 -0.3
v -0.1 0.3 -0.3
v -0.1 0.4 -0.3
v 0 0.4 -0.3
v 0 0.5 -0.3
v 0.1 0.4 -0.3
v 0.1 0.5 -0.3
v 0.2 0.3 -0.3
v 0.2 0.4 -0.3
v 0.3 0.2 -0.3
v 0.3 0.3 -0.3
v 0.3 0.4 -0.3
v 0.4 -0.1 -0.3
v 0.4 0.1 -0.3
v 0.4 0.2 -0.3
v 0.4 0.3 -0.3
v 0.5 -0.1 -0.3
v 0.5 0.1 -0.3
v -0.3 -0.2 -0.4
v -0.3 -0.1 -0.4
v -0.3 0.1 -0.4
v -0.3 0.2 -0.4
v -0.2 -0.1 -0.4
v -0.2 0.1 -0.4
v -0.2 0.2 -0.4
v -0.2 0.3 -0.4
v -0.1 -0.2 -0.4
v -0.1 -0.1 -0.4
v -0.1 0.1 -0.4
v -0.1 0.2 -0.4
v -0.1 0.3 -0.4
v -0.1 0.4 -0.4
v 0 0.2 -0.4
v 0 0.3 -0.4
v 0.1 0.2 -0.4
v 0.1 0.3 -0.4
v 0.2 -0.2 -0.4
v 0.2 -0.1 -0.4
v 0.2 0.1 -0.4
v 0.2 0.2 -0.4
v 0.2 0.3 -0.4
v 0.2 0.4 -0.4
v 0.3 -0.1 -0.4
v 0.3 0.1 -0.4
v 0.3 0.2 -0.4
v 0.3 0.3 -0.4
v 0.4 -0.2 -0.4
v 0.4 -0.1 -0.4
v 0.4 0.2 -0.4
v -0.2 -0.1 -0.5
v -0.2 0.1 -0.5
v -0.1 -0.2 -0.5
v -0.1 -0.1 -0.5
v -0.1 0.1 -0.5
v -0.1 0.2 -0.5
v 0 -0.1 -0.5
v 0 0 -0.5
v 0 0.1 -0.5
v 0 0.2 -0.5
v 0 0.3 -0.5
v 0.1 0 -0.5
v 0.1 0.1 -0.5
v 0.1 0.2 -0.5
v 0.1 0.3 -0.5
v 0.2 -0.2 -0.5
v 0.2 -0.1 -0.5
v 0.2 0.1 -0.5
v 0.2 0.2 -0.5
v 0.3 -0.1 -0.5
v 0.3 0.1 -0.5
v -0.1 -0.2 0.4
v 0.2 -0.2 0.4
v -0.3 -0.2 0.3
v -0.1 -0.2 0.3
v 0.2 -0.2 0.3
v 0.4 -0.2 0.3
v -0.4 -0.2 0.1
v -0.3 -0.2 0.1
v 0.4 -0.2 0.1
v 0.5 -0.2 0.1
v -0.4 -0.2 -0.2
v -0.3 -0.2 -0.2
v 0.4 -0.2 -0.2
v 0.5 -0.2 -0.2
v -0.3 -0.2 -0.4
v -0.1 -0.2 -0.4
v 0.2 -0.2 -0.4
v 0.4 -0.2 -0.4
v -0.1 -0.2 -0.5
v 0.2 -0.2 -0.5
v -0.2 -0.1 0.4
v -0.1 -0.1 0.4
v 0.2 -0.1 0.4
v 0.3 -0.1 0.4
v -0.2 -0.1 0.3
v -0.1 -0.1 0.3
v 0.2 -0.1 0.3
v 0.3 -0.1 0.3
v -0.4 -0.1 0.2
v -0.3 -0.1 0.2
v 0.4 -0.1 0.2
v 0.5 -0.1 0.2
v -0.4 -0.1 0.1
v -0.3 -0.1 0.1
v 0.4 -0.1 0.1
v 0.5 -0.1 0.1
v -0.4 -0.1 -0.2
v -0.3 -0.1 -0.2
v 0.4 -0.1 -0.2
v 0.5 -0.1 -0.2
v -0.4 -0.1 -0.3
v -0.3 -0.1 -0.3
v 0.4 -0.1 -0.3
v 0.5 -0.1 -0.3
v -0.2 -0.1 -0.4
v -0.1 -0.1 -0.4
v 0.2 -0.1 -0.4
v 0.3 -0.1 -0.4
v -0.2 -0.1 -0.5
v -0.1 -0.1 -0.5
v 0.2 -0.1 -0.5
v 0.3 -0.1 -0.5
v -0.2 0.1 0.4
v -0.1 0.1 0.4
v 0.2 0.1 0.4
v 0.3 0.1 0.4
v -0.2 0.1 0.3
v -0.1 0.1 0.3
v 0.2 0.1 0.3
v 0.3 0.1 0.3
v -0.4 0.1 0.2
v -0.3 0.1 0.2
v 0.4 0.1 0.2
v 0.5 0.1 0.2
v -0.4 0.1 0.1
v -0.3 0.1 0.1
v 0.4 0.1 0.1
v 0.5 0.1 0.1
v -0.4 0.1 -0.2
v -0.3 0.1 -0.2
v 0.4 0.1 -0.2
v 0.5 0.1 -0.2
v -0.4 0.1 -0.3
v -0.3 0.1 -0.3
v 0.4 0.1 -0.3
v 0.5 0.1 -0.3
v -0.2 0.1 -0.4
v -0.1 0.1 -0.4
v 0.2 0.1 -0.4
v 0.3 0.1 -0.4
v -0.2 0.1 -0.5
v -0.1 0.1 -0.5
v 0.2 0.1 -0.5
v 0.3 0.1 -0.5
v -0.1 0.2 0.4
v 0 0.2 0.4
v 0.1 0.2 0.4
v 0.2 0.2 0.4
v -0.3 0.2 0.3
v -0.2 0.2 0.3
v -0.1 0.2 0.3
v 0 0.2 0.3
v 0.1 0.2 0.3
v 0.2 0.2 0.3
v 0.3 0.2 0.3
v 0.4 0.2 0.3
v -0.3 0.2 0.2
v -0.2 0.2 0.2
v 0.3 0.2 0.2
v 0.4 0.2 0.2
v -0.4 0.2 0.1
v -0.3 0.2 0.1
v 0.4 0.2 0.1
v 0.5 0.2 0.1
v -0.4 0.2 0
v -0.3 0.2 0
v 0.4 0.2 0
v 0.5 0.2 0
v -0.4 0.2 -0.1
v -0.3 0.2 -0.1
v 0.4 0.2 -0.1
v 0.5 0.2 -0.1
v -0.4 0.2 -0.2
v -0.3 0.2 -0.2
v 0.4 0.2 -0.2
v 0.5 0.2 -0.2
v -0.3 0.2 -0.3
v -0.2 0.2 -0.3
v 0.3 0.2 -0.3
v 0.4 0.2 -0.3
v -0.3 0.2 -0.4
v -0.2 0.2 -0.4
v -0.1 0.2 -0.4
v 0 0.2 -0.4
v 0.1 0.2 -0.4
v 0.2 0.2 -0.4
v 0.3 0.2 -0.4
v 0.4 0.2 -0.4
v -0.1 0.2 -0.5
v 0 0.2 -0.5
v 0.1 0.2 -0.5
v 0.2 0.2 -0.5
v 0 0.3 0.4
v 0.1 0.3 0.4
v -0.2 0.3 0.3
v -0.1 0.3 0.3
v 0 0.3 0.3
v 0.1 0.3 0.3
v 0.2 0.3 0.3
v 0.3 0.3 0.3
v -0.3 0.3 0.2
v -0.2 0.3 0.2
v -0.1 0.3 0.2
v 0.2 0.3 0.2
v 0.3 0.3 0.2
v 0.4 0.3 0.2
v -0.3 0.3 0.1
v -0.2 0.3 0.1
v 0.3 0.3 0.1
v 0.4 0.3 0.1
v -0.4 0.3 0
v -0.3 0.3 0
v 0.4 0.3 0
v 0.5 0.3 0
v -0.4 0.3 -0.1
v -0.3 0.3 -0.1
v 0.4 0.3 -0.1
v 0.5 0.3 -0.1
v -0.3 0.3 -0.2
v -0.2 0.3 -0.2
v 0.3 0.3 -0.2
v 0.4 0.3 -0.2
v -0.3 0.3 -0.3
v -0.2 0.3 -0.3
v -0.1 0.3 -0.3
v 0.2 0.3 -0.3
v 0.3 0.3 -0.3
v 0.4 0.3 -0.3
v -0.2 0.3 -0.4
v -0.1 0.3 -0.4
v 0 0.3 -0.4
v 0.1 0.3 -0.4
v 0.2 0.3 -0.4
v 0.3 0.3 -0.4
v 0 0.3 -0.5
v 0.1 0.3 -0.5
v -0.1 0.4 0.3
v 0.2 0.4 0.3
v -0.2 0.4 0.2
v -0.1 0.4 0.2
v 0 0.4 0.2
v 0.1 0.4 0.2
v 0.2 0.4 0.2
v 0.3 0.4 0.2
v -0.3 0.4 0.1
v -0.2 0.4 0.1
v -0.1 0.4 0.1
v 0 0.4 0.1
v 0.2 0.4 0.1
v 0.3 0.4 0.1
v 0.4 0.4 0.1
v -0.2 0.4 0
v -0.1 0.4 0
v 0.2 0.4 0
v 0.3 0.4 0
v -0.2 0.4 -0.1
v -0.1 0.4 -0.1
v 0.2 0.4 -0.1
v 0.3 0.4 -0.1
v -0.3 0.4 -0.2
v -0.2 0.4 -0.2
v -0.1 0.4 -0.2
v 0 0.4 -0.2
v 0.1 0.4 -0.2
v 0.2 0.4 -0.2
v 0.3 0.4 -0.2
v 0.4 0.4 -0.2
v -0.2 0.4 -0.3
v -0.1 0.4 -0.3
v 0 0.4 -0.3
v 0.1 0.4 -0.3
v 0.2 0.4 -0.3
v 0.3 0.4 -0.3
v -0.1 0.4 -0.4
v 0.2 0.4 -0.4
v 0 0.5 0.2
v 0.1 0.5 0.2
v 0.2 0.5 0.2
v -0.1 0.5 0.1
v 0 0.5 0.1
v 0.1 0.5 0.1
v 0.2 0.5 0.1
v -0.2 0.5 0
v -0.1 0.5 0
v 0.1 0.5 0
v 0.2 0.5 0
v 0.3 0.5 0
v -0.2 0.5 -0.1
v -0.1 0.5 -0.1
v 0 0.5 -0.1
v 0.2 0.5 -0.1
v 0.3 0.5 -0.1
v -0.1 0.5 -0.2
v 0 0.5 -0.2
v 0.1 0.5 -0.2
v 0.2 0.5 -0.2
v 0 0.5 -0.3
v 0.1 0.5 -0.3

# faces
f 4/1/1 2/1/1 1/1/1
f 5/1/1 2/1/1 4/1/1
f 6/1/1 2/1/1 5/1/1
f 8/2/1 5/2/1 4/2/1
f 9/3/1 6/3/1 5/3/1
f 9/2/1 5/2/1 8/2/1
f 10/1/1 4/1/1 3/1/1
f 11/2/1 8/2/1 4/2/1
f 11/1/1 4/1/1 10/1/1
f 12/3/1 9/3/1 8/3/1
f 12/2/1 8/2/1 11/2/1
f 13/3/1 6/3/1 9/3/1
f 13/3/1 9/3/1 12/3/1
f 14/1/1 7/1/1 6/1/1
f 14/3/1 6/3/1 13/3/1
f 15/1/1 7/1/1 14/1/1
f 16/1/1 12/1/1 11/1/1
f 17/2/1 13/2/1 12/2/1
f 17/1/1 12/1/1 16/1/1
f 18/1/1 14/1/1 13/1/1
f 18/2/1 13/2/1 17/2/1
f 19/1/1 14/1/1 18/1/1
f 20/1/1 18/1/1 17/1/1
f 21/1/1 18/1/1 20/1/1
f 26/1/1 23/1/1 22/1/1
f 27/1/1 23/1/1 26/1/1
f 28/1/1 23/1/1 27/1/1
f 29/1/1 25/1/1 24/1/1
f 30/1/1 25/1/1 29/1/1
f 31/1/1 25/1/1 30/1/1
f 32/2/1 27/2/1 26/2/1
f 33/2/1 27/2/1 32/2/1
f 36/2/1 31/2/1 30/2/1
f 37/2/1 31/2/1 36/2/1
f 38/3/1 33/3/1 32/3/1
f 39/2/1 34/2/1 33/2/1
f 39/3/1 33/3/1 38/3/1
f 40/2/1 34/2/1 39/2/1
f 43/2/1 36/2/1 35/2/1
f 44/1/1 37/1/1 36/1/1
f 44/2/1 36/2/1 43/2/1
f 45/1/1 37/1/1 44/1/1
f 46/2/1 41/2/1 40/2/1
f 46/2/1 40/2/1 39/2/1
f 47/2/1 41/2/1 46/2/1
f 48/2/1 41/2/1 47/2/1
f 49/2/1 43/2/1 42/2/1
f 49/2/1 44/2/1 43/2/1
f 50/2/1 44/2/1 49/2/1
f 51/2/1 44/2/1 50/2/1
f 52/2/1 48/2/1 47/2/1
f 52/2/1 50/2/1 49/2/1
f 52/2/1 49/2/1 48/2/1
f 53/2/1 50/2/1 52/2/1
f 58/1/1 55/1/1 54/1/1
f 59/1/1 55/1/1 58/1/1
f 60/1/1 57/1/1 56/1/1
f 61/1/1 57/1/1 60/1/1
f 66/3/1 63/3/1 62/3/1
f 67/3/1 63/3/1 66/3/1
f 70/2/1 65/2/1 64/2/1
f 71/2/1 65/2/1 70/2/1
f 72/2/1 68/2/1 67/2/1
f 73/2/1 68/2/1 72/2/1
f 76/3/1 70/3/1 69/3/1
f 77/3/1 70/3/1 76/3/1
f 78/2/1 75/2/1 74/2/1
f 79/2/1 75/2/1 78/2/1
f 84/1/1 81/1/1 80/1/1
f 85/1/1 81/1/1 84/1/1
f 86/1/1 83/1/1 82/1/1
f 87/1/1 83/1/1 86/1/1
f 92/1/1 89/1/1 88/1/1
f 93/1/1 89/1/1 92/1/1
f 94/1/1 91/1/1 90/1/1
f 95/1/1 91/1/1 94/1/1
f 100/2/1 97/2/1 96/2/1
f 101/2/1 97/2/1 100/2/1
f 106/2/1 99/2/1 98/2/1
f 107/2/1 99/2/1 106/2/1
f 108/2/1 103/2/1 102/2/1
f 109/2/1 103/2/1 108/2/1
f 110/1/1 105/1/1 104/1/1
f 111/1/1 105/1/1 110/1/1
f 116/1/1 113/1/1 112/1/1
f 117/1/1 113/1/1 116/1/1
f 118/1/1 115/1/1 114/1/1
f 119/1/1 115/1/1 118/1/1
f 124/2/1 121/2/1 120/2/1
f 125/2/1 121/2/1 124/2/1
f 126/2/1 123/2/1 122/2/1
f 127/2/1 123/2/1 126/2/1
f 128/1/2 129/1/2 132/1/2
f 132/1/2 129/1/2 133/1/2
f 130/1/2 131/1/2 134/1/2
f 134/1/2 131/1/2 135/1/2
f 136/2/2 137/2/2 138/2/2
f 138/2/2 137/2/2 139/2/2
f 140/1/2 141/1/2 144/1/2
f 144/1/2 141/1/2 145/1/2
f 142/1/2 143/1/2 146/1/2
f 146/1/2 143/1/2 147/1/2
f 148/1/2 149/1/2 152/1/2
f 152/1/2 149/1/2 153/1/2
f 150/1/2 151/1/2 154/1/2
f 154/1/2 151/1/2 155/1/2
f 156/2/2 157/2/2 160/2/2
f 160/2/2 157/2/2 161/2/2
f 158/2/2 159/2/2 166/2/2
f 166/2/2 159/2/2 167/2/2
f 161/3/2 162/3/2 168/3/2
f 162/1/2 163/1/2 169/1/2
f 168/3/2 162/3/2 169/3/2
f 169/1/2 163/1/2 170/1/2
f 164/2/2 165/2/2 171/2/2
f 171/2/2 165/2/2 172/2/2
f 173/1/2 174/1/2 177/1/2
f 173/1/2 177/1/2 178/1/2
f 178/1/2 177/1/2 179/1/2
f 175/1/2 176/1/2 180/1/2
f 180/1/2 176/1/2 181/1/2
f 182/2/2 183/2/2 186/2/2
f 186/2/2 183/2/2 187/2/2
f 184/3/2 185/3/2 190/3/2
f 190/3/2 185/3/2 191/3/2
f 187/2/2 188/2/2 192/2/2
f 192/2/2 188/2/2 193/2/2
f 189/1/2 190/1/2 196/1/2
f 196/1/2 190/1/2 197/1/2
f 194/1/2 195/1/2 198/1/2
f 198/1/2 195/1/2 199/1/2
f 200/1/2 201/1/2 204/1/2
f 204/1/2 201/1/2 205/1/2
f 205/1/2 201/1/2 206/1/2
f 202/1/2 203/1/2 207/1/2
f 207/1/2 203/1/2 208/1/2
f 208/1/2 203/1/2 209/1/2
f 204/2/2 205/2/2 210/2/2
f 210/2/2 205/2/2 211/2/2
f 210/3/2 211/3/2 212/3/2
f 208/2/2 209/2/2 215/2/2
f 210/3/2 212/3/2 216/3/2
f 212/2/2 213/2/2 217/2/2
f 216/3/2 212/3/2 217/3/2
f 217/2/2 213/2/2 218/2/2
f 214/2/2 215/2/2 221/2/2
f 215/2/2 209/2/2 222/2/2
f 221/2/2 215/2/2 222/2/2
f 222/2/2 209/2/2 223/2/2
f 217/3/2 218/3/2 224/3/2
f 218/2/2 219/2/2 225/2/2
f 224/3/2 218/3/2 225/3/2
f 225/2/2 219/2/2 226/2/2
f 220/2/2 221/2/2 227/2/2
f 221/3/2 222/3/2 228/3/2
f 227/2/2 221/2/2 228/2/2
f 228/3/2 222/3/2 229/3/2
f 225/2/2 226/2/2 230/2/2
f 226/2/2 227/2/2 230/2/2
f 227/2/2 228/2/2 230/2/2
f 230/2/2 228/2/2 231/2/2
f 232/1/2 233/1/2 235/1/2
f 235/1/2 233/1/2 236/1/2
f 234/1/2 235/1/2 238/1/2
f 235/2/2 236/2/2 239/2/2
f 238/1/2 235/1/2 239/1/2
f 239/2/2 236/2/2 240/2/2
f 240/2/2 236/2/2 241/2/2
f 236/1/2 237/1/2 242/1/2
f 241/2/2 236/2/2 242/2/2
f 242/1/2 237/1/2 243/1/2
f 239/1/2 240/1/2 244/1/2
f 240/2/2 241/2/2 245/2/2
f 244/1/2 240/1/2 245/1/2
f 241/1/2 242/1/2 246/1/2
f 245/2/2 241/2/2 246/2/2
f 246/1/2 242/1/2 247/1/2
f 245/1/2 246/1/2 248/1/2
f 248/1/2 246/1/2 249/1/2
f 253/1/3 251/1/3 250/1/3
f 254/1/3 251/1/3 253/1/3
f 256/2/3 254/2/3 253/2/3
f 256/1/3 255/1/3 254/1/3
f 257/1/3 255/1/3 256/1/3
f 259/2/3 256/2/3 253/2/3
f 259/2/3 257/2/3 256/2/3
f 260/1/3 258/1/3 257/1/3
f 260/2/3 257/2/3 259/2/3
f 261/1/3 258/1/3 260/1/3
f 262/1/3 253/1/3 252/1/3
f 263/2/3 259/2/3 253/2/3
f 263/1/3 253/1/3 262/1/3
f 264/1/3 260/1/3 259/1/3
f 264/2/3 259/2/3 263/2/3
f 265/1/3 260/1/3 264/1/3
f 266/1/3 264/1/3 263/1/3
f 267/1/3 264/1/3 266/1/3
f 272/1/3 269/1/3 268/1/3
f 272/2/3 270/2/3 269/2/3
f 273/3/3 271/3/3 270/3/3
f 273/2/3 270/2/3 272/2/3
f 274/3/3 271/3/3 273/3/3
f 276/1/3 272/1/3 268/1/3
f 277/1/3 272/1/3 276/1/3
f 278/3/3 275/3/3 274/3/3
f 278/3/3 274/3/3 273/3/3
f 279/3/3 275/3/3 278/3/3
f 280/3/3 275/3/3 279/3/3
f 282/2/3 281/2/3 280/2/3
f 282/2/3 280/2/3 279/2/3
f 283/2/3 281/2/3 282/2/3
f 285/2/3 281/2/3 283/2/3
f 289/2/3 285/2/3 284/2/3
f 290/2/3 281/2/3 285/2/3
f 290/2/3 285/2/3 289/2/3
f 291/2/3 281/2/3 290/2/3
f 292/1/3 287/1/3 286/1/3
f 294/2/3 289/2/3 288/2/3
f 294/2/3 290/2/3 289/2/3
f 295/2/3 290/2/3 294/2/3
f 296/2/3 290/2/3 295/2/3
f 297/1/3 292/1/3 286/1/3
f 298/2/3 293/2/3 292/2/3
f 298/1/3 292/1/3 297/1/3
f 299/3/3 294/3/3 293/3/3
f 299/2/3 293/2/3 298/2/3
f 299/3/3 295/3/3 294/3/3
f 300/3/3 295/3/3 299/3/3
f 303/1/3 302/1/3 301/1/3
f 304/1/3 302/1/3 303/1/3
f 307/2/3 306/2/3 305/2/3
f 308/2/3 306/2/3 307/2/3
f 310/2/3 309/2/3 308/2/3
f 311/2/3 309/2/3 310/2/3
f 314/2/3 313/2/3 312/2/3
f 315/2/3 313/2/3 314/2/3
f 317/3/3 315/3/3 314/3/3
f 318/3/3 315/3/3 317/3/3
f 320/2/3 317/2/3 316/2/3
f 321/2/3 317/2/3 320/2/3
f 325/3/3 320/3/3 319/3/3
f 326/3/3 320/3/3 325/3/3
f 327/1/3 324/1/3 323/1/3
f 327/1/3 323/1/3 322/1/3
f 328/1/3 324/1/3 327/1/3
f 333/1/3 330/1/3 329/1/3
f 334/1/3 330/1/3 333/1/3
f 335/1/3 332/1/3 331/1/3
f 336/1/3 332/1/3 335/1/3
f 339/2/3 338/2/3 337/2/3
f 340/2/3 338/2/3 339/2/3
f 343/2/3 342/2/3 341/2/3
f 344/2/3 342/2/3 343/2/3
f 351/2/3 346/2/3 345/2/3
f 352/2/3 346/2/3 351/2/3
f 353/1/3 348/1/3 347/1/3
f 354/1/3 348/1/3 353/1/3
f 355/1/3 350/1/3 349/1/3
f 356/1/3 350/1/3 355/1/3
f 359/1/3 358/1/3 357/1/3
f 360/1/3 358/1/3 359/1/3
f 363/2/3 362/2/3 361/2/3
f 364/2/3 362/2/3 363/2/3
f 367/1/3 366/1/3 365/1/3
f 368/1/3 366/1/3 367/1/3
f 371/1/3 370/1/3 369/1/3
f 372/1/3 370/1/3 371/1/3
f 373/1/4 374/1/4 375/1/4
f 375/1/4 374/1/4 376/1/4
f 377/2/4 378/2/4 379/2/4
f 379/2/4 378/2/4 380/2/4
f 381/1/4 382/1/4 383/1/4
f 383/1/4 382/1/4 384/1/4
f 385/1/4 386/1/4 387/1/4
f 387/1/4 386/1/4 388/1/4
f 389/1/4 390/1/4 393/1/4
f 393/1/4 390/1/4 394/1/4
f 391/1/4 392/1/4 395/1/4
f 395/1/4 392/1/4 396/1/4
f 397/2/4 398/2/4 399/2/4
f 399/2/4 398/2/4 400/2/4
f 401/1/4 402/1/4 403/1/4
f 403/1/4 402/1/4 404/1/4
f 405/2/4 406/2/4 407/2/4
f 407/2/4 406/2/4 408/2/4
f 409/2/4 410/2/4 415/2/4
f 415/2/4 410/2/4 416/2/4
f 411/1/4 412/1/4 417/1/4
f 417/1/4 412/1/4 418/1/4
f 413/1/4 414/1/4 419/1/4
f 419/1/4 414/1/4 420/1/4
f 421/1/4 422/1/4 423/1/4
f 423/1/4 422/1/4 424/1/4
f 425/2/4 426/2/4 427/2/4
f 427/2/4 426/2/4 428/2/4
f 428/3/4 429/3/4 430/3/4
f 430/3/4 429/3/4 431/3/4
f 432/2/4 433/2/4 434/2/4
f 434/2/4 433/2/4 435/2/4
f 436/1/4 437/1/4 439/1/4
f 439/1/4 437/1/4 440/1/4
f 438/3/4 439/3/4 443/3/4
f 443/3/4 439/3/4 444/3/4
f 441/1/4 442/1/4 445/1/4
f 445/1/4 442/1/4 446/1/4
f 447/1/4 448/1/4 451/1/4
f 448/2/4 449/2/4 451/2/4
f 449/1/4 450/1/4 452/1/4
f 451/2/4 449/2/4 452/2/4
f 452/1/4 450/1/4 453/1/4
f 447/1/4 451/1/4 455/1/4
f 455/1/4 451/1/4 456/1/4
f 453/2/4 454/2/4 457/2/4
f 452/2/4 453/2/4 457/2/4
f 457/2/4 454/2/4 458/2/4
f 458/2/4 454/2/4 459/2/4
f 459/2/4 460/2/4 461/2/4
f 458/2/4 459/2/4 461/2/4
f 461/2/4 460/2/4 462/2/4
f 462/2/4 460/2/4 464/2/4
f 463/2/4 464/2/4 468/2/4
f 464/2/4 460/2/4 469/2/4
f 468/2/4 464/2/4 469/2/4
f 469/2/4 460/2/4 470/2/4
f 465/1/4 466/1/4 471/1/4
f 467/2/4 468/2/4 472/2/4
f 468/3/4 469/3/4 473/3/4
f 472/2/4 468/2/4 473/2/4
f 473/3/4 469/3/4 474/3/4
f 465/1/4 471/1/4 475/1/4
f 471/2/4 472/2/4 476/2/4
f 475/1/4 471/1/4 476/1/4
f 472/2/4 473/2/4 476/2/4
f 476/2/4 473/2/4 477/2/4
f 478/1/4 479/1/4 481/1/4
f 481/1/4 479/1/4 482/1/4
f 480/1/4 481/1/4 484/1/4
f 481/2/4 482/2/4 484/2/4
f 484/2/4 482/2/4 485/2/4
f 482/1/4 483/1/4 486/1/4
f 485/2/4 482/2/4 486/2/4
f 486/1/4 483/1/4 487/1/4
f 484/3/4 485/3/4 489/3/4
f 485/2/4 486/2/4 489/2/4
f 486/2/4 487/2/4 489/2/4
f 489/2/4 487/2/4 490/2/4
f 487/1/4 488/1/4 491/1/4
f 490/2/4 487/2/4 491/2/4
f 491/1/4 488/1/4 492/1/4
f 480/1/4 484/1/4 493/1/4
f 489/3/4 490/3/4 494/3/4
f 493/1/4 484/1/4 494/1/4
f 484/3/4 489/3/4 494/3/4
f 490/1/4 491/1/4 495/1/4
f 494/3/4 490/3/4 495/3/4
f 495/1/4 491/1/4 496/1/4
f 494/1/4 495/1/4 497/1/4
f 497/1/4 495/1/4 498/1/4
f 502/1/5 500/1/5 499/1/5
f 503/1/5 500/1/5 502/1/5
f 506/1/5 502/1/5 501/1/5
f 506/1/5 504/1/5 503/1/5
f 506/1/5 503/1/5 502/1/5
f 507/1/5 504/1/5 506/1/5
f 509/1/5 506/1/5 505/1/5
f 509/1/5 508/1/5 507/1/5
f 509/1/5 507/1/5 506/1/5
f 510/1/5 508/1/5 509/1/5
f 511/1/5 508/1/5 510/1/5
f 512/1/5 508/1/5 511/1/5
f 513/1/5 511/1/5 510/1/5
f 514/1/5 511/1/5 513/1/5
f 515/1/5 511/1/5 514/1/5
f 516/1/5 511/1/5 515/1/5
f 517/1/5 515/1/5 514/1/5
f 518/1/5 515/1/5 517/1/5
f 523/1/5 520/1/5 519/1/5
f 524/1/5 520/1/5 523/1/5
f 525/1/5 522/1/5 521/1/5
f 526/1/5 522/1/5 525/1/5
f 531/1/5 528/1/5 527/1/5
f 532/1/5 528/1/5 531/1/5
f 533/1/5 530/1/5 529/1/5
f 534/1/5 530/1/5 533/1/5
f 539/1/5 536/1/5 535/1/5
f 540/1/5 536/1/5 539/1/5
f 541/1/5 538/1/5 537/1/5
f 542/1/5 538/1/5 541/1/5
f 547/1/5 544/1/5 543/1/5
f 548/1/5 544/1/5 547/1/5
f 549/1/5 546/1/5 545/1/5
f 550/1/5 546/1/5 549/1/5
f 551/1/6 552/1/6 555/1/6
f 555/1/6 552/1/6 556/1/6
f 553/1/6 554/1/6 557/1/6
f 557/1/6 554/1/6 558/1/6
f 559/1/6 560/1/6 563/1/6
f 563/1/6 560/1/6 564/1/6
f 561/1/6 562/1/6 565/1/6
f 565/1/6 562/1/6 566/1/6
f 567/1/6 568/1/6 571/1/6
f 571/1/6 568/1/6 572/1/6
f 569/1/6 570/1/6 573/1/6
f 573/1/6 570/1/6 574/1/6
f 575/1/6 576/1/6 579/1/6
f 579/1/6 576/1/6 580/1/6
f 577/1/6 578/1/6 581/1/6
f 581/1/6 578/1/6 582/1/6
f 583/1/6 584/1/6 589/1/6
f 589/1/6 584/1/6 590/1/6
f 585/1/6 586/1/6 591/1/6
f 591/1/6 586/1/6 592/1/6
f 587/3/6 588/3/6 595/3/6
f 595/3/6 588/3/6 596/3/6
f 593/3/6 594/3/6 597/3/6
f 597/3/6 594/3/6 598/3/6
f 599/1/6 600/1/6 603/1/6
f 603/1/6 600/1/6 604/1/6
f 601/1/6 602/1/6 605/1/6
f 605/1/6 602/1/6 606/1/6
f 607/1/6 608/1/6 611/1/6
f 611/1/6 608/1/6 612/1/6
f 609/1/6 610/1/6 613/1/6
f 613/1/6 610/1/6 614/1/6
f 615/1/6 616/1/6 619/1/6
f 619/1/6 616/1/6 620/1/6
f 617/2/6 618/2/6 625/2/6
f 625/2/6 618/2/6 626/2/6
f 621/1/6 622/1/6 627/1/6
f 627/1/6 622/1/6 628/1/6
f 623/1/6 624/1/6 629/1/6
f 629/1/6 624/1/6 630/1/6
f 631/1/6 632/1/6 635/1/6
f 635/1/6 632/1/6 636/1/6
f 633/3/6 634/3/6 640/3/6
f 640/3/6 634/3/6 641/3/6
f 637/2/6 638/2/6 642/2/6
f 642/2/6 638/2/6 643/2/6
f 639/2/6 640/2/6 645/2/6
f 645/2/6 640/2/6 646/2/6
f 643/3/6 644/3/6 647/3/6
f 647/3/6 644/3/6 648/3/6
f 649/1/6 650/1/6 653/1/6
f 653/1/6 650/1/6 654/1/6
f 651/1/6 652/1/6 655/1/6
f 655/1/6 652/1/6 656/1/6
f 657/2/6 658/2/6 661/2/6
f 661/2/6 658/2/6 662/2/6
f 659/3/6 660/3/6 665/3/6
f 665/3/6 660/3/6 666/3/6
f 662/2/6 663/2/6 667/2/6
f 667/2/6 663/2/6 668/2/6
f 664/3/6 665/3/6 671/3/6
f 671/3/6 665/3/6 672/3/6
f 669/1/6 670/1/6 673/1/6
f 673/1/6 670/1/6 674/1/6
f 675/2/6 676/2/6 678/2/6
f 678/2/6 676/2/6 679/2/6
f 679/2/6 676/2/6 680/2/6
f 680/2/6 676/2/6 681/2/6
f 677/2/6 678/2/6 684/2/6
f 678/2/6 679/2/6 684/2/6
f 684/2/6 679/2/6 685/2/6
f 685/2/6 679/2/6 686/2/6
f 681/2/6 682/2/6 687/2/6
f 687/2/6 682/2/6 688/2/6
f 683/2/6 684/2/6 690/2/6
f 684/2/6 685/2/6 690/2/6
f 690/2/6 685/2/6 691/2/6
f 688/2/6 689/2/6 692/2/6
f 687/2/6 688/2/6 692/2/6
f 692/2/6 689/2/6 693/2/6
f 683/2/6 690/2/6 694/2/6
f 693/2/6 689/2/6 697/2/6
f 694/2/6 695/2/6 698/2/6
f 683/2/6 694/2/6 698/2/6
f 698/2/6 695/2/6 699/2/6
f 699/2/6 695/2/6 700/2/6
f 696/2/6 697/2/6 703/2/6
f 697/2/6 689/2/6 704/2/6
f 703/2/6 697/2/6 704/2/6
f 704/2/6 689/2/6 705/2/6
f 700/3/6 701/3/6 706/3/6
f 699/3/6 700/3/6 706/3/6
f 706/3/6 701/3/6 707/3/6
f 707/3/6 701/3/6 708/3/6
f 702/2/6 703/2/6 709/2/6
f 703/1/6 704/1/6 710/1/6
f 709/2/6 703/2/6 710/2/6
f 710/1/6 704/1/6 711/1/6
f 707/2/6 708/2/6 712/2/6
f 708/2/6 709/2/6 712/2/6
f 709/2/6 710/2/6 712/2/6
f 712/2/6 710/2/6 713/2/6
f 714/2/6 715/2/6 718/2/6
f 715/3/6 716/3/6 719/3/6
f 718/2/6 715/2/6 719/2/6
f 719/3/6 716/3/6 720/3/6
f 717/2/6 718/2/6 722/2/6
f 718/2/6 719/2/6 722/2/6
f 719/1/6 720/1/6 723/1/6
f 722/2/6 719/2/6 723/2/6
f 723/1/6 720/1/6 724/1/6
f 723/2/6 724/2/6 726/2/6
f 721/2/6 722/2/6 726/2/6
f 722/2/6 723/2/6 726/2/6
f 726/2/6 724/2/6 727/2/6
f 727/2/6 724/2/6 728/2/6
f 724/1/6 725/1/6 729/1/6
f 728/2/6 724/2/6 729/2/6
f 729/1/6 725/1/6 730/1/6
f 727/1/6 728/1/6 731/1/6
f 728/2/6 729/2/6 732/2/6
f 731/1/6 728/1/6 732/1/6
f 732/2/6 729/2/6 733/2/6
f 733/2/6 729/2/6 734/2/6
f 732/2/6 733/2/6 735/2/6
f 735/2/6 733/2/6 736/2/6
