# MagicaVoxel @ Ephtracy

# group
o 

# material
mtllib Stub.mtl
usemtl palette

# normals
vn -1 0 0
vn 1 0 0
vn 0 0 1
vn 0 0 -1
vn 0 -1 0
vn 0 1 0

# texcoords
vt 0.935547 0.5
vt 0.994141 0.5

# verts
v -1.4 0 1.4
v -1.4 0 -1.4
v -1.4 0.8 1.4
v -1.4 0.8 -1.4
v -1.4 18 1.4
v -1.4 18 -1.4
v -1.4 18.8 1.4
v -1.4 18.8 -1.4
v -1 0.8 1
v -1 0.8 0.9
v -1 0.8 0.7
v -1 0.8 0.6
v -1 0.8 0.2
v -1 0.8 0.1
v -1 0.8 -0.1
v -1 0.8 -0.2
v -1 0.8 -0.6
v -1 0.8 -0.7
v -1 0.8 -0.9
v -1 0.8 -1
v -1 18 1
v -1 18 0.9
v -1 18 0.7
v -1 18 0.6
v -1 18 0.2
v -1 18 0.1
v -1 18 -0.1
v -1 18 -0.2
v -1 18 -0.6
v -1 18 -0.7
v -1 18 -0.9
v -1 18 -1
v -0.6 0.8 0.6
v -0.6 0.8 0.2
v -0.6 0.8 -0.2
v -0.6 0.8 -0.6
v -0.6 18 0.6
v -0.6 18 0.2
v -0.6 18 -0.2
v -0.6 18 -0.6
v -0.2 0.8 1
v -0.2 0.8 0.6
v -0.2 0.8 -0.6
v -0.2 0.8 -1
v -0.2 18 1
v -0.2 18 0.6
v -0.2 18 -0.6
v -0.2 18 -1
v 0.6 0.8 1
v 0.6 0.8 0.6
v 0.6 0.8 -0.6
v 0.6 0.8 -0.7
v 0.6 0.8 -0.9
v 0.6 0.8 -1
v 0.6 18 1
v 0.6 18 0.6
v 0.6 18 -0.6
v 0.6 18 -0.7
v 0.6 18 -0.9
v 0.6 18 -1
v -0.6 0.8 1
v -0.6 0.8 0.9
v -0.6 0.8 0.7
v -0.6 0.8 0.6
v -0.6 0.8 -0.6
v -0.6 0.8 -0.7
v -0.6 0.8 -0.9
v -0.6 0.8 -1
v -0.6 18 1
v -0.6 18 0.9
v -0.6 18 0.7
v -0.6 18 0.6
v -0.6 18 -0.6
v -0.6 18 -0.7
v -0.6 18 -0.9
v -0.6 18 -1
v 0.2 0.8 1
v 0.2 0.8 0.6
v 0.2 0.8 -0.6
v 0.2 0.8 -1
v 0.2 18 1
v 0.2 18 0.6
v 0.2 18 -0.6
v 0.2 18 -1
v 0.6 0.8 0.6
v 0.6 0.8 0.2
v 0.6 0.8 -0.2
v 0.6 0.8 -0.6
v 0.6 18 0.6
v 0.6 18 0.2
v 0.6 18 -0.2
v 0.6 18 -0.6
v 1 0.8 1
v 1 0.8 0.6
v 1 0.8 0.2
v 1 0.8 0.1
v 1 0.8 -0.1
v 1 0.8 -0.2
v 1 0.8 -0.6
v 1 0.8 -0.7
v 1 0.8 -0.9
v 1 0.8 -1
v 1 18 1
v 1 18 0.6
v 1 18 0.2
v 1 18 0.1
v 1 18 -0.1
v 1 18 -0.2
v 1 18 -0.6
v 1 18 -0.7
v 1 18 -0.9
v 1 18 -1
v 1.4 0 1.4
v 1.4 0 -1.4
v 1.4 0.8 1.4
v 1.4 0.8 -1.4
v 1.4 18 1.4
v 1.4 18 -1.4
v 1.4 18.8 1.4
v 1.4 18.8 -1.4
v -1.4 0 1.4
v -1.4 0.8 1.4
v -1.4 18 1.4
v -1.4 18.8 1.4
v 1.4 0 1.4
v 1.4 0.8 1.4
v 1.4 18 1.4
v 1.4 18.8 1.4
v -1 0.8 1
v -1 18 1
v -0.6 0.8 1
v -0.6 18 1
v -0.2 0.8 1
v -0.2 18 1
v -0.1 0.8 1
v -0.1 18 1
v 0.1 0.8 1
v 0.1 18 1
v 0.2 0.8 1
v 0.2 18 1
v 0.6 0.8 1
v 0.6 18 1
v 0.7 0.8 1
v 0.7 18 1
v 0.9 0.8 1
v 0.9 18 1
v 1 0.8 1
v 1 18 1
v -0.6 0.8 0.6
v -0.6 18 0.6
v -0.2 0.8 0.6
v -0.2 18 0.6
v 0.2 0.8 0.6
v 0.2 18 0.6
v 0.6 0.8 0.6
v 0.6 18 0.6
v -1 0.8 0.2
v -1 18 0.2
v -0.6 0.8 0.2
v -0.6 18 0.2
v 0.6 0.8 0.2
v 0.6 18 0.2
v 1 0.8 0.2
v 1 18 0.2
v -1 0.8 -0.6
v -1 18 -0.6
v -0.6 0.8 -0.6
v -0.6 18 -0.6
v 0.6 0.8 -0.6
v 0.6 18 -0.6
v 1 0.8 -0.6
v 1 18 -0.6
v -1 0.8 0.6
v -1 18 0.6
v -0.6 0.8 0.6
v -0.6 18 0.6
v 0.6 0.8 0.6
v 0.6 18 0.6
v 0.7 0.8 0.6
v 0.7 18 0.6
v 0.9 0.8 0.6
v 0.9 18 0.6
v 1 0.8 0.6
v 1 18 0.6
v -1 0.8 -0.2
v -1 18 -0.2
v -0.6 0.8 -0.2
v -0.6 18 -0.2
v 0.6 0.8 -0.2
v 0.6 18 -0.2
v 1 0.8 -0.2
v 1 18 -0.2
v -0.6 0.8 -0.6
v -0.6 18 -0.6
v -0.2 0.8 -0.6
v -0.2 18 -0.6
v 0.2 0.8 -0.6
v 0.2 18 -0.6
v 0.6 0.8 -0.6
v 0.6 18 -0.6
v -1 0.8 -1
v -1 18 -1
v -0.6 0.8 -1
v -0.6 18 -1
v -0.2 0.8 -1
v -0.2 18 -1
v -0.1 0.8 -1
v -0.1 18 -1
v 0.1 0.8 -1
v 0.1 18 -1
v 0.2 0.8 -1
v 0.2 18 -1
v 0.6 0.8 -1
v 0.6 18 -1
v 1 0.8 -1
v 1 18 -1
v -1.4 0 -1.4
v -1.4 0.8 -1.4
v -1.4 18 -1.4
v -1.4 18.8 -1.4
v 1.4 0 -1.4
v 1.4 0.8 -1.4
v 1.4 18 -1.4
v 1.4 18.8 -1.4
v -1.4 0 1.4
v 1.4 0 1.4
v -1.3 0 1.3
v 1.3 0 1.3
v -1.3 0 -1.3
v 1.3 0 -1.3
v -1.4 0 -1.4
v 1.4 0 -1.4
v -1.4 18 1.4
v 1.4 18 1.4
v -1.3 18 1.3
v 1.3 18 1.3
v -1 18 1
v -0.6 18 1
v -0.2 18 1
v -0.1 18 1
v 0.1 18 1
v 0.2 18 1
v 0.6 18 1
v 0.7 18 1
v 0.9 18 1
v 1 18 1
v -1 18 0.9
v -0.6 18 0.9
v -1 18 0.7
v -0.6 18 0.7
v -1 18 0.6
v -0.6 18 0.6
v -0.2 18 0.6
v 0.2 18 0.6
v 0.6 18 0.6
v 0.7 18 0.6
v 0.9 18 0.6
v 1 18 0.6
v -1 18 0.2
v -0.6 18 0.2
v 0.6 18 0.2
v 1 18 0.2
v -1 18 0.1
v 1 18 0.1
v -1 18 -0.1
v 1 18 -0.1
v -1 18 -0.2
v -0.6 18 -0.2
v 0.6 18 -0.2
v 1 18 -0.2
v -1 18 -0.6
v -0.6 18 -0.6
v -0.2 18 -0.6
v 0.2 18 -0.6
v 0.6 18 -0.6
v 1 18 -0.6
v -1 18 -0.7
v -0.6 18 -0.7
v 0.6 18 -0.7
v 1 18 -0.7
v -1 18 -0.9
v -0.6 18 -0.9
v 0.6 18 -0.9
v 1 18 -0.9
v -1 18 -1
v -0.6 18 -1
v -0.2 18 -1
v -0.1 18 -1
v 0.1 18 -1
v 0.2 18 -1
v 0.6 18 -1
v 1 18 -1
v -1.3 18 -1.3
v 1.3 18 -1.3
v -1.4 18 -1.4
v 1.4 18 -1.4
v -1.4 0.8 1.4
v 1.4 0.8 1.4
v -1.3 0.8 1.3
v 1.3 0.8 1.3
v -1 0.8 1
v -0.6 0.8 1
v -0.2 0.8 1
v -0.1 0.8 1
v 0.1 0.8 1
v 0.2 0.8 1
v 0.6 0.8 1
v 0.7 0.8 1
v 0.9 0.8 1
v 1 0.8 1
v -1 0.8 0.9
v -0.6 0.8 0.9
v -1 0.8 0.7
v -0.6 0.8 0.7
v -1 0.8 0.6
v -0.6 0.8 0.6
v -0.2 0.8 0.6
v 0.2 0.8 0.6
v 0.6 0.8 0.6
v 0.7 0.8 0.6
v 0.9 0.8 0.6
v 1 0.8 0.6
v -1 0.8 0.2
v -0.6 0.8 0.2
v 0.6 0.8 0.2
v 1 0.8 0.2
v -1 0.8 0.1
v 1 0.8 0.1
v -1 0.8 -0.1
v 1 0.8 -0.1
v -1 0.8 -0.2
v -0.6 0.8 -0.2
v 0.6 0.8 -0.2
v 1 0.8 -0.2
v -1 0.8 -0.6
v -0.6 0.8 -0.6
v -0.2 0.8 -0.6
v 0.2 0.8 -0.6
v 0.6 0.8 -0.6
v 1 0.8 -0.6
v -1 0.8 -0.7
v -0.6 0.8 -0.7
v 0.6 0.8 -0.7
v 1 0.8 -0.7
v -1 0.8 -0.9
v -0.6 0.8 -0.9
v 0.6 0.8 -0.9
v 1 0.8 -0.9
v -1 0.8 -1
v -0.6 0.8 -1
v -0.2 0.8 -1
v -0.1 0.8 -1
v 0.1 0.8 -1
v 0.2 0.8 -1
v 0.6 0.8 -1
v 1 0.8 -1
v -1.3 0.8 -1.3
v 1.3 0.8 -1.3
v -1.4 0.8 -1.4
v 1.4 0.8 -1.4
v -1.4 18.8 1.4
v 1.4 18.8 1.4
v -1.3 18.8 1.3
v 1.3 18.8 1.3
v -1.3 18.8 -1.3
v 1.3 18.8 -1.3
v -1.4 18.8 -1.4
v 1.4 18.8 -1.4

# faces
f 3/2/1 2/2/1 1/2/1
f 4/2/1 2/2/1 3/2/1
f 7/2/1 6/2/1 5/2/1
f 8/2/1 6/2/1 7/2/1
f 21/2/1 10/2/1 9/2/1
f 22/1/1 11/1/1 10/1/1
f 22/2/1 10/2/1 21/2/1
f 23/2/1 12/2/1 11/2/1
f 23/1/1 11/1/1 22/1/1
f 24/2/1 12/2/1 23/2/1
f 25/2/1 14/2/1 13/2/1
f 26/1/1 15/1/1 14/1/1
f 26/2/1 14/2/1 25/2/1
f 27/2/1 16/2/1 15/2/1
f 27/1/1 15/1/1 26/1/1
f 28/2/1 16/2/1 27/2/1
f 29/2/1 18/2/1 17/2/1
f 30/1/1 19/1/1 18/1/1
f 30/2/1 18/2/1 29/2/1
f 31/2/1 20/2/1 19/2/1
f 31/1/1 19/1/1 30/1/1
f 32/2/1 20/2/1 31/2/1
f 37/1/1 34/1/1 33/1/1
f 38/1/1 34/1/1 37/1/1
f 39/1/1 36/1/1 35/1/1
f 40/1/1 36/1/1 39/1/1
f 45/2/1 42/2/1 41/2/1
f 46/2/1 42/2/1 45/2/1
f 47/2/1 44/2/1 43/2/1
f 48/2/1 44/2/1 47/2/1
f 55/2/1 50/2/1 49/2/1
f 56/2/1 50/2/1 55/2/1
f 57/2/1 52/2/1 51/2/1
f 58/1/1 53/1/1 52/1/1
f 58/2/1 52/2/1 57/2/1
f 59/2/1 54/2/1 53/2/1
f 59/1/1 53/1/1 58/1/1
f 60/2/1 54/2/1 59/2/1
f 61/2/2 62/2/2 69/2/2
f 62/1/2 63/1/2 70/1/2
f 69/2/2 62/2/2 70/2/2
f 63/2/2 64/2/2 71/2/2
f 70/1/2 63/1/2 71/1/2
f 71/2/2 64/2/2 72/2/2
f 65/2/2 66/2/2 73/2/2
f 66/1/2 67/1/2 74/1/2
f 73/2/2 66/2/2 74/2/2
f 67/2/2 68/2/2 75/2/2
f 74/1/2 67/1/2 75/1/2
f 75/2/2 68/2/2 76/2/2
f 77/2/2 78/2/2 81/2/2
f 81/2/2 78/2/2 82/2/2
f 79/2/2 80/2/2 83/2/2
f 83/2/2 80/2/2 84/2/2
f 85/1/2 86/1/2 89/1/2
f 89/1/2 86/1/2 90/1/2
f 87/1/2 88/1/2 91/1/2
f 91/1/2 88/1/2 92/1/2
f 93/2/2 94/2/2 103/2/2
f 103/2/2 94/2/2 104/2/2
f 95/2/2 96/2/2 105/2/2
f 96/1/2 97/1/2 106/1/2
f 105/2/2 96/2/2 106/2/2
f 97/2/2 98/2/2 107/2/2
f 106/1/2 97/1/2 107/1/2
f 107/2/2 98/2/2 108/2/2
f 99/2/2 100/2/2 109/2/2
f 100/1/2 101/1/2 110/1/2
f 109/2/2 100/2/2 110/2/2
f 101/2/2 102/2/2 111/2/2
f 110/1/2 101/1/2 111/1/2
f 111/2/2 102/2/2 112/2/2
f 113/2/2 114/2/2 115/2/2
f 115/2/2 114/2/2 116/2/2
f 117/2/2 118/2/2 119/2/2
f 119/2/2 118/2/2 120/2/2
f 125/2/3 122/2/3 121/2/3
f 126/2/3 122/2/3 125/2/3
f 127/2/3 124/2/3 123/2/3
f 128/2/3 124/2/3 127/2/3
f 131/2/3 130/2/3 129/2/3
f 132/2/3 130/2/3 131/2/3
f 135/2/3 134/2/3 133/2/3
f 136/2/3 134/2/3 135/2/3
f 137/1/3 136/1/3 135/1/3
f 138/1/3 136/1/3 137/1/3
f 139/2/3 138/2/3 137/2/3
f 140/2/3 138/2/3 139/2/3
f 143/2/3 142/2/3 141/2/3
f 144/2/3 142/2/3 143/2/3
f 145/1/3 144/1/3 143/1/3
f 146/1/3 144/1/3 145/1/3
f 147/2/3 146/2/3 145/2/3
f 148/2/3 146/2/3 147/2/3
f 151/1/3 150/1/3 149/1/3
f 152/1/3 150/1/3 151/1/3
f 155/1/3 154/1/3 153/1/3
f 156/1/3 154/1/3 155/1/3
f 159/2/3 158/2/3 157/2/3
f 160/2/3 158/2/3 159/2/3
f 163/2/3 162/2/3 161/2/3
f 164/2/3 162/2/3 163/2/3
f 167/2/3 166/2/3 165/2/3
f 168/2/3 166/2/3 167/2/3
f 171/2/3 170/2/3 169/2/3
f 172/2/3 170/2/3 171/2/3
f 173/2/4 174/2/4 175/2/4
f 175/2/4 174/2/4 176/2/4
f 177/2/4 178/2/4 179/2/4
f 179/2/4 178/2/4 180/2/4
f 179/1/4 180/1/4 181/1/4
f 181/1/4 180/1/4 182/1/4
f 181/2/4 182/2/4 183/2/4
f 183/2/4 182/2/4 184/2/4
f 185/2/4 186/2/4 187/2/4
f 187/2/4 186/2/4 188/2/4
f 189/2/4 190/2/4 191/2/4
f 191/2/4 190/2/4 192/2/4
f 193/1/4 194/1/4 195/1/4
f 195/1/4 194/1/4 196/1/4
f 197/1/4 198/1/4 199/1/4
f 199/1/4 198/1/4 200/1/4
f 201/2/4 202/2/4 203/2/4
f 203/2/4 202/2/4 204/2/4
f 205/2/4 206/2/4 207/2/4
f 207/2/4 206/2/4 208/2/4
f 207/1/4 208/1/4 209/1/4
f 209/1/4 208/1/4 210/1/4
f 209/2/4 210/2/4 211/2/4
f 211/2/4 210/2/4 212/2/4
f 213/2/4 214/2/4 215/2/4
f 215/2/4 214/2/4 216/2/4
f 217/2/4 218/2/4 221/2/4
f 221/2/4 218/2/4 222/2/4
f 219/2/4 220/2/4 223/2/4
f 223/2/4 220/2/4 224/2/4
f 227/2/5 226/2/5 225/2/5
f 228/2/5 226/2/5 227/2/5
f 229/2/5 227/2/5 225/2/5
f 229/1/5 228/1/5 227/1/5
f 230/2/5 226/2/5 228/2/5
f 230/1/5 228/1/5 229/1/5
f 231/2/5 229/2/5 225/2/5
f 231/2/5 230/2/5 229/2/5
f 232/2/5 226/2/5 230/2/5
f 232/2/5 230/2/5 231/2/5
f 235/2/5 234/2/5 233/2/5
f 236/2/5 234/2/5 235/2/5
f 237/1/5 236/1/5 235/1/5
f 238/1/5 236/1/5 237/1/5
f 239/1/5 236/1/5 238/1/5
f 240/1/5 236/1/5 239/1/5
f 241/1/5 236/1/5 240/1/5
f 242/1/5 236/1/5 241/1/5
f 243/1/5 236/1/5 242/1/5
f 244/1/5 236/1/5 243/1/5
f 245/1/5 236/1/5 244/1/5
f 246/1/5 236/1/5 245/1/5
f 247/1/5 237/1/5 235/1/5
f 248/1/5 239/1/5 238/1/5
f 249/1/5 247/1/5 235/1/5
f 250/1/5 239/1/5 248/1/5
f 251/1/5 249/1/5 235/1/5
f 252/1/5 239/1/5 250/1/5
f 253/1/5 239/1/5 252/1/5
f 254/1/5 243/1/5 242/1/5
f 255/1/5 243/1/5 254/1/5
f 258/1/5 236/1/5 246/1/5
f 259/1/5 251/1/5 235/1/5
f 259/1/5 252/1/5 251/1/5
f 260/1/5 252/1/5 259/1/5
f 261/1/5 257/1/5 256/1/5
f 261/1/5 258/1/5 257/1/5
f 261/1/5 256/1/5 255/1/5
f 262/1/5 236/1/5 258/1/5
f 262/1/5 258/1/5 261/1/5
f 263/1/5 259/1/5 235/1/5
f 264/1/5 236/1/5 262/1/5
f 265/1/5 263/1/5 235/1/5
f 266/1/5 236/1/5 264/1/5
f 267/1/5 265/1/5 235/1/5
f 270/1/5 236/1/5 266/1/5
f 271/1/5 268/1/5 267/1/5
f 271/1/5 267/1/5 235/1/5
f 272/1/5 268/1/5 271/1/5
f 275/1/5 270/1/5 269/1/5
f 276/1/5 236/1/5 270/1/5
f 276/1/5 270/1/5 275/1/5
f 277/1/5 271/1/5 235/1/5
f 278/1/5 273/1/5 272/1/5
f 279/1/5 275/1/5 274/1/5
f 280/1/5 236/1/5 276/1/5
f 281/1/5 277/1/5 235/1/5
f 282/1/5 273/1/5 278/1/5
f 283/1/5 279/1/5 274/1/5
f 284/1/5 236/1/5 280/1/5
f 285/1/5 281/1/5 235/1/5
f 286/1/5 273/1/5 282/1/5
f 287/1/5 273/1/5 286/1/5
f 290/1/5 283/1/5 274/1/5
f 291/1/5 283/1/5 290/1/5
f 292/1/5 236/1/5 284/1/5
f 293/2/5 235/2/5 233/2/5
f 293/1/5 292/1/5 291/1/5
f 293/1/5 289/1/5 288/1/5
f 293/1/5 291/1/5 290/1/5
f 293/1/5 290/1/5 289/1/5
f 293/1/5 285/1/5 235/1/5
f 293/1/5 288/1/5 287/1/5
f 293/1/5 287/1/5 286/1/5
f 293/1/5 286/1/5 285/1/5
f 294/1/5 236/1/5 292/1/5
f 294/1/5 292/1/5 293/1/5
f 294/2/5 234/2/5 236/2/5
f 295/2/5 293/2/5 233/2/5
f 295/2/5 294/2/5 293/2/5
f 296/2/5 234/2/5 294/2/5
f 296/2/5 294/2/5 295/2/5
f 297/2/6 298/2/6 299/2/6
f 299/2/6 298/2/6 300/2/6
f 299/1/6 300/1/6 301/1/6
f 301/1/6 300/1/6 302/1/6
f 302/1/6 300/1/6 303/1/6
f 303/1/6 300/1/6 304/1/6
f 304/1/6 300/1/6 305/1/6
f 305/1/6 300/1/6 306/1/6
f 306/1/6 300/1/6 307/1/6
f 307/1/6 300/1/6 308/1/6
f 308/1/6 300/1/6 309/1/6
f 309/1/6 300/1/6 310/1/6
f 299/1/6 301/1/6 311/1/6
f 302/1/6 303/1/6 312/1/6
f 299/1/6 311/1/6 313/1/6
f 312/1/6 303/1/6 314/1/6
f 299/1/6 313/1/6 315/1/6
f 314/1/6 303/1/6 316/1/6
f 316/1/6 303/1/6 317/1/6
f 306/1/6 307/1/6 318/1/6
f 318/1/6 307/1/6 319/1/6
f 310/1/6 300/1/6 322/1/6
f 299/1/6 315/1/6 323/1/6
f 315/1/6 316/1/6 323/1/6
f 323/1/6 316/1/6 324/1/6
f 320/1/6 321/1/6 325/1/6
f 321/1/6 322/1/6 325/1/6
f 319/1/6 320/1/6 325/1/6
f 322/1/6 300/1/6 326/1/6
f 325/1/6 322/1/6 326/1/6
f 299/1/6 323/1/6 327/1/6
f 326/1/6 300/1/6 328/1/6
f 299/1/6 327/1/6 329/1/6
f 328/1/6 300/1/6 330/1/6
f 299/1/6 329/1/6 331/1/6
f 330/1/6 300/1/6 334/1/6
f 331/1/6 332/1/6 335/1/6
f 299/1/6 331/1/6 335/1/6
f 335/1/6 332/1/6 336/1/6
f 333/1/6 334/1/6 339/1/6
f 334/1/6 300/1/6 340/1/6
f 339/1/6 334/1/6 340/1/6
f 299/1/6 335/1/6 341/1/6
f 336/1/6 337/1/6 342/1/6
f 338/1/6 339/1/6 343/1/6
f 340/1/6 300/1/6 344/1/6
f 299/1/6 341/1/6 345/1/6
f 342/1/6 337/1/6 346/1/6
f 338/1/6 343/1/6 347/1/6
f 344/1/6 300/1/6 348/1/6
f 299/1/6 345/1/6 349/1/6
f 346/1/6 337/1/6 350/1/6
f 350/1/6 337/1/6 351/1/6
f 338/1/6 347/1/6 354/1/6
f 354/1/6 347/1/6 355/1/6
f 348/1/6 300/1/6 356/1/6
f 297/2/6 299/2/6 357/2/6
f 355/1/6 356/1/6 357/1/6
f 352/1/6 353/1/6 357/1/6
f 354/1/6 355/1/6 357/1/6
f 353/1/6 354/1/6 357/1/6
f 299/1/6 349/1/6 357/1/6
f 351/1/6 352/1/6 357/1/6
f 350/1/6 351/1/6 357/1/6
f 349/1/6 350/1/6 357/1/6
f 356/1/6 300/1/6 358/1/6
f 357/1/6 356/1/6 358/1/6
f 300/2/6 298/2/6 358/2/6
f 297/2/6 357/2/6 359/2/6
f 357/2/6 358/2/6 359/2/6
f 358/2/6 298/2/6 360/2/6
f 359/2/6 358/2/6 360/2/6
f 361/2/6 362/2/6 363/2/6
f 363/2/6 362/2/6 364/2/6
f 361/2/6 363/2/6 365/2/6
f 363/1/6 364/1/6 365/1/6
f 364/2/6 362/2/6 366/2/6
f 365/1/6 364/1/6 366/1/6
f 361/2/6 365/2/6 367/2/6
f 365/2/6 366/2/6 367/2/6
f 366/2/6 362/2/6 368/2/6
f 367/2/6 366/2/6 368/2/6
