# MagicaVoxel @ Ephtracy

# group
o 

# material
mtllib Weapons.mtl
usemtl palette

# normals
vn 1 0 0
vn -1 0 0
vn 0 1 0
vn 0 -1 0
vn 0 0 -1
vn 0 0 1

# texcoords
vt 0.0136719 0.5
vt 0.0214844 0.5
vt 0.0292969 0.5
vt 0.0449219 0.5
vt 0.0488281 0.5
vt 0.0644531 0.5
vt 0.0683594 0.5
vt 0.0722656 0.5
vt 0.0800781 0.5
vt 0.0839844 0.5

# verts
v 1.6 0.3 -0.3
v 1.6 0.1 -0.3
v 1.6 0.4 -0.2
v 1.6 0.3 -0.2
v 1.6 0.2 -0.2
v 1.6 0.4 0
v 1.6 0.3 0
v 1.6 0.2 0
v 1.6 0.1 0
v 1.6 0.3 0.1
v 1.6 0.2 0.1
v 1.6 0.1 0.1
v 1.5 0.1 -0.2
v 1.5 0 -0.2
v 1.5 0.1 0
v 1.5 0 0
v 1.4 0.3 -0.2
v 1.4 0.2 -0.2
v 1.4 0.3 0
v 1.4 0.2 0
v 1.2 0.2 -0.4
v 1.2 0.1 -0.4
v 1.2 0.2 -0.3
v 1.2 0.1 -0.3
v 1.2 0 -0.3
v 1.2 0.1 -0.2
v 1.2 0 -0.2
v 1.2 0.1 0
v 1.2 0 0
v 1.2 0.1 0.1
v 1.2 0 0.1
v 0.3 0 -0.3
v 0.3 -0.1 -0.3
v 0.3 0 -0.2
v 0.3 0 0
v 0.3 0 0.1
v 0.3 -0.1 0.1
v 0 0.3 0.1
v 0 0.2 0.1
v 0 -0.1 0.1
v 0 0.3 0.2
v 0 -0.1 0.2
v -0.1 0.4 0
v -0.1 0.3 0
v -0.1 0.4 0.1
v -0.1 0.3 0.1
v -0.4 -0.1 -0.3
v -0.4 -0.2 -0.3
v -0.4 -0.1 -0.2
v -0.4 -0.2 -0.2
v -0.4 -0.1 0.1
v -0.4 -0.2 0.1
v -0.6 0.2 -0.2
v -0.6 0 -0.2
v -0.6 0.2 -0.1
v -0.6 0 -0.1
v -0.6 0.3 0.1
v -0.6 0.1 0.1
v -0.6 0.3 0.2
v -0.6 0.1 0.2
v -0.7 -0.2 -0.3
v -0.7 -0.3 -0.3
v -0.7 -0.2 -0.2
v -0.7 -0.3 -0.2
v -0.7 -0.2 -0.1
v -0.7 -0.3 -0.1
v -0.7 -0.2 0
v -0.7 -0.3 0
v -0.7 -0.2 0.1
v -0.7 -0.3 0.1
v -0.8 -0.3 -0.3
v -0.8 -0.4 -0.3
v -0.8 -0.3 -0.2
v -0.8 -0.4 -0.2
v -0.8 -0.3 -0.1
v -0.8 -0.3 0
v -0.8 -0.4 0
v -0.8 -0.3 0.1
v -0.8 -0.4 0.1
v -0.9 0.3 0.1
v -0.9 0.2 0.1
v -0.9 0.3 0.2
v -0.9 0.2 0.2
v 0.7 0.2 -0.4
v 0.7 0.1 -0.4
v 0.7 0.2 -0.3
v 0.7 0.1 -0.3
v -0.2 0.4 0
v -0.2 0.3 0
v -0.2 0.4 0.1
v -0.2 0.3 0.1
v -0.3 0.3 0.1
v -0.3 0.2 0.1
v -0.3 -0.1 0.1
v -0.3 0.3 0.2
v -0.3 -0.1 0.2
v -0.5 0.4 -0.2
v -0.5 0.3 -0.2
v -0.5 0.2 -0.2
v -0.5 0 -0.2
v -0.5 0.2 -0.1
v -0.5 0 -0.1
v -0.5 0.4 0
v -0.5 0.3 0
v -0.8 0.3 -0.3
v -0.8 0.2 -0.3
v -0.8 0.3 0.1
v -0.8 0.2 0.1
v -0.8 0.3 0.2
v -0.8 0.2 0.2
v -0.9 0.2 -0.3
v -0.9 0.1 -0.3
v -0.9 0.2 -0.2
v -0.9 0.1 -0.2
v -0.9 0.2 0
v -0.9 0.1 0
v -0.9 0.2 0.1
v -0.9 0.1 0.1
v -0.9 0.2 0.2
v -0.9 0.1 0.2
v -1 0.1 -0.3
v -1 -0.1 -0.3
v -1 -0.3 -0.3
v -1 -0.4 -0.3
v -1 0.2 -0.2
v -1 0.1 -0.2
v -1 -0.1 -0.2
v -1 -0.3 -0.2
v -1 -0.4 -0.2
v -1 0.2 0
v -1 0.1 0
v -1 -0.1 0
v -1 -0.3 0
v -1 -0.4 0
v -1 0.3 0.1
v -1 0.2 0.1
v -1 0.1 0.1
v -1 -0.1 0.1
v -1 -0.3 0.1
v -1 -0.4 0.1
v -1 0.3 0.2
v -1 0.2 0.2
v -1.1 -0.1 -0.3
v -1.1 -0.2 -0.3
v -1.1 -0.3 -0.3
v -1.1 0.1 -0.2
v -1.1 0 -0.2
v -1.1 -0.1 -0.2
v -1.1 -0.2 -0.2
v -1.1 -0.3 -0.2
v -1.1 0.1 0
v -1.1 0 0
v -1.1 -0.1 0
v -1.1 -0.2 0
v -1.1 -0.3 0
v -1.1 -0.1 0.1
v -1.1 -0.3 0.1
v -1.5 0 -0.2
v -1.5 -0.2 -0.2
v -1.5 0 0
v -1.5 -0.2 0
v 1.6 0.4 -0.2
v 1.6 0.4 0
v 0 0.4 -0.2
v 0 0.4 0
v -0.1 0.4 -0.2
v -0.1 0.4 -0.1
v -0.1 0.4 0
v -0.1 0.4 0.1
v -0.2 0.4 -0.2
v -0.2 0.4 -0.1
v -0.2 0.4 0
v -0.2 0.4 0.1
v -0.3 0.4 -0.2
v -0.3 0.4 0
v -0.5 0.4 -0.2
v -0.5 0.4 0
v 1.6 0.3 -0.3
v 1.6 0.3 -0.2
v 1.6 0.3 0
v 1.6 0.3 0.1
v 0 0.3 -0.3
v 0 0.3 -0.2
v 0 0.3 0
v 0 0.3 0.1
v 0 0.3 0.2
v -0.1 0.3 -0.3
v -0.1 0.3 -0.2
v -0.1 0.3 0
v -0.1 0.3 0.1
v -0.1 0.3 0.2
v -0.2 0.3 -0.3
v -0.2 0.3 -0.2
v -0.2 0.3 0
v -0.2 0.3 0.1
v -0.2 0.3 0.2
v -0.3 0.3 -0.3
v -0.3 0.3 -0.2
v -0.3 0.3 0
v -0.3 0.3 0.1
v -0.3 0.3 0.2
v -0.5 0.3 -0.2
v -0.5 0.3 0
v -0.5 0.3 0.1
v -0.6 0.3 -0.3
v -0.6 0.3 0
v -0.6 0.3 0.1
v -0.6 0.3 0.2
v -0.8 0.3 -0.3
v -0.8 0.3 0.1
v -0.8 0.3 0.2
v -0.9 0.3 0.1
v -0.9 0.3 0.2
v -1 0.3 0.1
v -1 0.3 0.2
v 1.6 0.2 -0.2
v 1.6 0.2 0
v 1.4 0.2 -0.2
v 1.4 0.2 0
v 1.2 0.2 -0.4
v 1.2 0.2 -0.3
v 0.7 0.2 -0.4
v 0.7 0.2 -0.3
v -0.8 0.2 -0.3
v -0.8 0.2 0.1
v -0.8 0.2 0.2
v -0.9 0.2 -0.3
v -0.9 0.2 -0.2
v -0.9 0.2 0
v -0.9 0.2 0.1
v -0.9 0.2 0.2
v -1 0.2 -0.2
v -1 0.2 0
v -0.9 0.1 -0.3
v -0.9 0.1 -0.2
v -0.9 0.1 0
v -0.9 0.1 0.1
v -1 0.1 -0.3
v -1 0.1 -0.2
v -1 0.1 0
v -1 0.1 0.1
v -1.1 0.1 -0.2
v -1.1 0.1 0
v -0.5 0 -0.2
v -0.5 0 -0.1
v -0.6 0 -0.2
v -0.6 0 -0.1
v -1.1 0 -0.2
v -1.1 0 0
v -1.5 0 -0.2
v -1.5 0 0
v -1 -0.1 -0.3
v -1 -0.1 -0.2
v -1 -0.1 0
v -1 -0.1 0.1
v -1.1 -0.1 -0.3
v -1.1 -0.1 -0.2
v -1.1 -0.1 0
v -1.1 -0.1 0.1
v 1.6 0.3 -0.2
v 1.6 0.3 0
v 1.4 0.3 -0.2
v 1.4 0.3 0
v -0.5 0.2 -0.2
v -0.5 0.2 -0.1
v -0.6 0.2 -0.2
v -0.6 0.2 -0.1
v -0.9 0.2 0.1
v -0.9 0.2 0.2
v -1 0.2 0.1
v -1 0.2 0.2
v 1.6 0.1 -0.3
v 1.6 0.1 0
v 1.6 0.1 0.1
v 1.5 0.1 -0.2
v 1.5 0.1 0
v 1.2 0.1 -0.4
v 1.2 0.1 -0.3
v 1.2 0.1 -0.2
v 1.2 0.1 0
v 1.2 0.1 0.1
v 0.7 0.1 -0.4
v 0.7 0.1 -0.3
v -0.6 0.1 0.1
v -0.6 0.1 0.2
v -0.7 0.1 0.1
v -0.7 0.1 0.2
v -0.9 0.1 0.1
v -0.9 0.1 0.2
v 1.5 0 -0.2
v 1.5 0 0
v 1.2 0 -0.3
v 1.2 0 -0.2
v 1.2 0 0
v 1.2 0 0.1
v 0.3 0 -0.3
v 0.3 0 -0.2
v 0.3 0 0
v 0.3 0 0.1
v 0.3 -0.1 -0.3
v 0.3 -0.1 0.1
v 0 -0.1 -0.3
v 0 -0.1 0.1
v 0 -0.1 0.2
v -0.1 -0.1 -0.3
v -0.1 -0.1 -0.2
v -0.1 -0.1 -0.1
v -0.1 -0.1 0
v -0.1 -0.1 0.1
v -0.1 -0.1 0.2
v -0.2 -0.1 -0.3
v -0.2 -0.1 -0.2
v -0.2 -0.1 -0.1
v -0.2 -0.1 0
v -0.2 -0.1 0.1
v -0.2 -0.1 0.2
v -0.3 -0.1 -0.3
v -0.3 -0.1 -0.2
v -0.3 -0.1 0.1
v -0.3 -0.1 0.2
v -0.4 -0.1 -0.3
v -0.4 -0.1 -0.2
v -0.4 -0.1 0.1
v -0.4 -0.2 -0.3
v -0.4 -0.2 -0.2
v -0.4 -0.2 0.1
v -0.5 -0.2 -0.2
v -0.5 -0.2 0
v -0.5 -0.2 0.1
v -0.7 -0.2 -0.3
v -0.7 -0.2 -0.2
v -0.7 -0.2 -0.1
v -0.7 -0.2 0
v -0.7 -0.2 0.1
v -1.1 -0.2 -0.2
v -1.1 -0.2 0
v -1.5 -0.2 -0.2
v -1.5 -0.2 0
v -0.7 -0.3 -0.3
v -0.7 -0.3 -0.2
v -0.7 -0.3 -0.1
v -0.7 -0.3 0
v -0.7 -0.3 0.1
v -0.8 -0.3 -0.3
v -0.8 -0.3 -0.2
v -0.8 -0.3 -0.1
v -0.8 -0.3 0
v -0.8 -0.3 0.1
v -1 -0.3 -0.3
v -1 -0.3 -0.2
v -1 -0.3 0
v -1 -0.3 0.1
v -1.1 -0.3 -0.3
v -1.1 -0.3 -0.2
v -1.1 -0.3 0
v -1.1 -0.3 0.1
v -0.8 -0.4 -0.3
v -0.8 -0.4 -0.2
v -0.8 -0.4 0
v -0.8 -0.4 0.1
v -1 -0.4 -0.3
v -1 -0.4 -0.2
v -1 -0.4 0
v -1 -0.4 0.1
v 1.2 0.2 -0.4
v 0.7 0.2 -0.4
v 1.2 0.1 -0.4
v 0.7 0.1 -0.4
v 1.6 0.3 -0.3
v 0 0.3 -0.3
v -0.1 0.3 -0.3
v -0.2 0.3 -0.3
v -0.3 0.3 -0.3
v -0.6 0.3 -0.3
v -0.8 0.3 -0.3
v 1.2 0.2 -0.3
v 0.7 0.2 -0.3
v 0.4 0.2 -0.3
v 0 0.2 -0.3
v -0.1 0.2 -0.3
v -0.2 0.2 -0.3
v -0.5 0.2 -0.3
v -0.6 0.2 -0.3
v -0.8 0.2 -0.3
v -0.9 0.2 -0.3
v 1.6 0.1 -0.3
v 1.2 0.1 -0.3
v 0.7 0.1 -0.3
v 0.4 0.1 -0.3
v 0.3 0.1 -0.3
v -0.1 0.1 -0.3
v -0.2 0.1 -0.3
v -0.9 0.1 -0.3
v -1 0.1 -0.3
v 1.2 0 -0.3
v 0.3 0 -0.3
v -0.1 0 -0.3
v -0.2 0 -0.3
v -0.3 0 -0.3
v -0.5 0 -0.3
v 0.3 -0.1 -0.3
v 0 -0.1 -0.3
v -0.1 -0.1 -0.3
v -0.2 -0.1 -0.3
v -0.3 -0.1 -0.3
v -0.4 -0.1 -0.3
v -1 -0.1 -0.3
v -1.1 -0.1 -0.3
v -0.4 -0.2 -0.3
v -0.7 -0.2 -0.3
v -1 -0.2 -0.3
v -1.1 -0.2 -0.3
v -0.7 -0.3 -0.3
v -0.8 -0.3 -0.3
v -1 -0.3 -0.3
v -1.1 -0.3 -0.3
v -0.8 -0.4 -0.3
v -1 -0.4 -0.3
v 1.6 0.4 -0.2
v 0 0.4 -0.2
v -0.1 0.4 -0.2
v -0.2 0.4 -0.2
v -0.3 0.4 -0.2
v -0.5 0.4 -0.2
v 1.6 0.3 -0.2
v 0 0.3 -0.2
v -0.1 0.3 -0.2
v -0.2 0.3 -0.2
v -0.3 0.3 -0.2
v -0.5 0.3 -0.2
v -0.9 0.2 -0.2
v -1 0.2 -0.2
v 1.5 0.1 -0.2
v 1.2 0.1 -0.2
v -0.9 0.1 -0.2
v -1 0.1 -0.2
v -1.1 0.1 -0.2
v 1.5 0 -0.2
v 1.2 0 -0.2
v -1.1 0 -0.2
v -1.5 0 -0.2
v -1 -0.1 -0.2
v -1.1 -0.1 -0.2
v -1.1 -0.2 -0.2
v -1.5 -0.2 -0.2
v -0.5 0.2 -0.1
v -0.6 0.2 -0.1
v -0.5 0 -0.1
v -0.6 0 -0.1
v 1.6 0.3 0
v 1.4 0.3 0
v 1.6 0.2 0
v 1.4 0.2 0
v -0.9 0.3 0.1
v -1 0.3 0.1
v -0.9 0.2 0.1
v -1 0.2 0.1
v 1.6 0.3 -0.2
v 1.4 0.3 -0.2
v 1.6 0.2 -0.2
v 1.4 0.2 -0.2
v -0.5 0.2 -0.2
v -0.6 0.2 -0.2
v -0.5 0 -0.2
v -0.6 0 -0.2
v 1.6 0.4 0
v 0 0.4 0
v -0.1 0.4 0
v -0.2 0.4 0
v -0.3 0.4 0
v -0.5 0.4 0
v 1.6 0.3 0
v 0 0.3 0
v -0.1 0.3 0
v -0.2 0.3 0
v -0.3 0.3 0
v -0.5 0.3 0
v -0.9 0.2 0
v -1 0.2 0
v 1.5 0.1 0
v 1.2 0.1 0
v -0.9 0.1 0
v -1 0.1 0
v -1.1 0.1 0
v 1.5 0 0
v 1.2 0 0
v -1.1 0 0
v -1.5 0 0
v -1 -0.1 0
v -1.1 -0.1 0
v -1.1 -0.2 0
v -1.5 -0.2 0
v -0.1 0.4 0.1
v -0.2 0.4 0.1
v 1.6 0.3 0.1
v 0 0.3 0.1
v -0.1 0.3 0.1
v -0.2 0.3 0.1
v -0.3 0.3 0.1
v -0.5 0.3 0.1
v -0.6 0.3 0.1
v 1.6 0.2 0.1
v 1.2 0.2 0.1
v 0.8 0.2 0.1
v 0 0.2 0.1
v -0.3 0.2 0.1
v -0.5 0.2 0.1
v 1.6 0.1 0.1
v 1.2 0.1 0.1
v 0.8 0.1 0.1
v 0.3 0.1 0.1
v -0.6 0.1 0.1
v -0.7 0.1 0.1
v -0.9 0.1 0.1
v -1 0.1 0.1
v 1.2 0 0.1
v 0.3 0 0.1
v -0.4 0 0.1
v -0.5 0 0.1
v 0.3 -0.1 0.1
v 0 -0.1 0.1
v -0.3 -0.1 0.1
v -0.4 -0.1 0.1
v -0.5 -0.1 0.1
v -1 -0.1 0.1
v -1.1 -0.1 0.1
v -0.4 -0.2 0.1
v -0.5 -0.2 0.1
v -0.7 -0.2 0.1
v -0.7 -0.3 0.1
v -0.8 -0.3 0.1
v -1 -0.3 0.1
v -1.1 -0.3 0.1
v -0.8 -0.4 0.1
v -1 -0.4 0.1
v 0 0.3 0.2
v -0.1 0.3 0.2
v -0.2 0.3 0.2
v -0.3 0.3 0.2
v -0.6 0.3 0.2
v -0.8 0.3 0.2
v -0.9 0.3 0.2
v -1 0.3 0.2
v -0.1 0.2 0.2
v -0.2 0.2 0.2
v -0.7 0.2 0.2
v -0.8 0.2 0.2
v -0.9 0.2 0.2
v -1 0.2 0.2
v -0.1 0.1 0.2
v -0.2 0.1 0.2
v -0.6 0.1 0.2
v -0.7 0.1 0.2
v -0.9 0.1 0.2
v -0.1 0 0.2
v -0.2 0 0.2
v 0 -0.1 0.2
v -0.1 -0.1 0.2
v -0.2 -0.1 0.2
v -0.3 -0.1 0.2

# faces
f 4/6/1 2/6/1 1/6/1
f 5/6/1 2/6/1 4/6/1
f 6/6/1 4/6/1 3/6/1
f 7/6/1 4/6/1 6/6/1
f 8/6/1 2/6/1 5/6/1
f 9/6/1 2/6/1 8/6/1
f 10/6/1 8/6/1 7/6/1
f 11/7/1 9/7/1 8/7/1
f 11/6/1 8/6/1 10/6/1
f 12/7/1 9/7/1 11/7/1
f 15/6/1 14/6/1 13/6/1
f 16/6/1 14/6/1 15/6/1
f 19/8/1 18/8/1 17/8/1
f 20/8/1 18/8/1 19/8/1
f 23/2/1 22/2/1 21/2/1
f 24/2/1 22/2/1 23/2/1
f 26/2/1 25/2/1 24/2/1
f 27/2/1 25/2/1 26/2/1
f 30/2/1 29/2/1 28/2/1
f 31/2/1 29/2/1 30/2/1
f 34/7/1 33/7/1 32/7/1
f 35/7/1 33/7/1 34/7/1
f 36/7/1 33/7/1 35/7/1
f 37/7/1 33/7/1 36/7/1
f 41/10/1 39/10/1 38/10/1
f 41/10/1 40/10/1 39/10/1
f 42/10/1 40/10/1 41/10/1
f 45/9/1 44/9/1 43/9/1
f 46/9/1 44/9/1 45/9/1
f 49/2/1 48/2/1 47/2/1
f 50/2/1 48/2/1 49/2/1
f 51/7/1 50/7/1 49/7/1
f 52/7/1 50/7/1 51/7/1
f 55/3/1 54/3/1 53/3/1
f 56/3/1 54/3/1 55/3/1
f 59/9/1 58/9/1 57/9/1
f 60/9/1 58/9/1 59/9/1
f 63/2/1 62/2/1 61/2/1
f 64/2/1 62/2/1 63/2/1
f 65/6/1 64/6/1 63/6/1
f 66/6/1 64/6/1 65/6/1
f 67/3/1 66/3/1 65/3/1
f 68/3/1 66/3/1 67/3/1
f 69/2/1 68/2/1 67/2/1
f 70/2/1 68/2/1 69/2/1
f 73/2/1 72/2/1 71/2/1
f 74/2/1 72/2/1 73/2/1
f 75/3/1 74/3/1 73/3/1
f 76/3/1 74/3/1 75/3/1
f 77/3/1 74/3/1 76/3/1
f 78/2/1 77/2/1 76/2/1
f 79/2/1 77/2/1 78/2/1
f 82/8/1 81/8/1 80/8/1
f 83/8/1 81/8/1 82/8/1
f 84/2/2 85/2/2 86/2/2
f 86/2/2 85/2/2 87/2/2
f 88/9/2 89/9/2 90/9/2
f 90/9/2 89/9/2 91/9/2
f 92/10/2 93/10/2 95/10/2
f 93/10/2 94/10/2 95/10/2
f 95/10/2 94/10/2 96/10/2
f 99/4/2 100/4/2 101/4/2
f 101/4/2 100/4/2 102/4/2
f 97/6/2 98/6/2 103/6/2
f 103/6/2 98/6/2 104/6/2
f 105/2/2 106/2/2 107/2/2
f 107/2/2 106/2/2 108/2/2
f 107/9/2 108/9/2 109/9/2
f 109/9/2 108/9/2 110/9/2
f 111/2/2 112/2/2 113/2/2
f 113/2/2 112/2/2 114/2/2
f 115/2/2 116/2/2 117/2/2
f 117/2/2 116/2/2 118/2/2
f 117/8/2 118/8/2 119/8/2
f 119/8/2 118/8/2 120/8/2
f 121/2/2 122/2/2 126/2/2
f 126/2/2 122/2/2 127/2/2
f 123/2/2 124/2/2 128/2/2
f 128/2/2 124/2/2 129/2/2
f 125/2/2 126/2/2 130/2/2
f 130/2/2 126/2/2 131/2/2
f 128/3/2 129/3/2 133/3/2
f 133/3/2 129/3/2 134/3/2
f 131/2/2 132/2/2 137/2/2
f 137/2/2 132/2/2 138/2/2
f 133/2/2 134/2/2 139/2/2
f 139/2/2 134/2/2 140/2/2
f 135/8/2 136/8/2 141/8/2
f 141/8/2 136/8/2 142/8/2
f 143/2/2 144/2/2 148/2/2
f 144/1/2 145/1/2 149/1/2
f 148/2/2 144/2/2 149/2/2
f 149/1/2 145/1/2 150/1/2
f 146/2/2 147/2/2 151/2/2
f 151/2/2 147/2/2 152/2/2
f 149/3/2 150/3/2 154/3/2
f 154/3/2 150/3/2 155/3/2
f 153/2/2 154/2/2 156/2/2
f 154/2/2 155/2/2 156/2/2
f 156/2/2 155/2/2 157/2/2
f 158/2/2 159/2/2 160/2/2
f 160/2/2 159/2/2 161/2/2
f 164/6/3 163/6/3 162/6/3
f 165/6/3 163/6/3 164/6/3
f 166/10/3 165/10/3 164/10/3
f 167/10/3 165/10/3 166/10/3
f 168/10/3 165/10/3 167/10/3
f 170/9/3 167/9/3 166/9/3
f 171/8/3 168/8/3 167/8/3
f 171/9/3 167/9/3 170/9/3
f 172/9/3 169/9/3 168/9/3
f 172/8/3 168/8/3 171/8/3
f 173/9/3 169/9/3 172/9/3
f 174/10/3 171/10/3 170/10/3
f 174/10/3 172/10/3 171/10/3
f 175/10/3 172/10/3 174/10/3
f 176/6/3 175/6/3 174/6/3
f 177/6/3 175/6/3 176/6/3
f 182/6/3 179/6/3 178/6/3
f 183/6/3 179/6/3 182/6/3
f 184/6/3 181/6/3 180/6/3
f 185/6/3 181/6/3 184/6/3
f 187/10/3 183/10/3 182/10/3
f 188/10/3 183/10/3 187/10/3
f 189/10/3 186/10/3 185/10/3
f 189/10/3 185/10/3 184/10/3
f 190/10/3 186/10/3 189/10/3
f 191/10/3 186/10/3 190/10/3
f 192/8/3 188/8/3 187/8/3
f 193/8/3 188/8/3 192/8/3
f 195/8/3 191/8/3 190/8/3
f 196/8/3 191/8/3 195/8/3
f 197/10/3 193/10/3 192/10/3
f 198/10/3 193/10/3 197/10/3
f 199/10/3 195/10/3 194/10/3
f 199/10/3 196/10/3 195/10/3
f 200/10/3 196/10/3 199/10/3
f 201/10/3 196/10/3 200/10/3
f 202/6/3 198/6/3 197/6/3
f 203/6/3 200/6/3 199/6/3
f 204/6/3 200/6/3 203/6/3
f 205/6/3 202/6/3 197/6/3
f 205/6/3 203/6/3 202/6/3
f 206/2/3 204/2/3 203/2/3
f 206/6/3 203/6/3 205/6/3
f 207/2/3 204/2/3 206/2/3
f 209/2/3 207/2/3 206/2/3
f 209/2/3 206/2/3 205/2/3
f 210/9/3 208/9/3 207/9/3
f 210/2/3 207/2/3 209/2/3
f 211/9/3 208/9/3 210/9/3
f 214/8/3 213/8/3 212/8/3
f 215/8/3 213/8/3 214/8/3
f 218/6/3 217/6/3 216/6/3
f 219/6/3 217/6/3 218/6/3
f 222/2/3 221/2/3 220/2/3
f 223/2/3 221/2/3 222/2/3
f 227/2/3 225/2/3 224/2/3
f 228/2/3 225/2/3 227/2/3
f 229/2/3 225/2/3 228/2/3
f 230/8/3 226/8/3 225/8/3
f 230/2/3 225/2/3 229/2/3
f 231/8/3 226/8/3 230/8/3
f 232/2/3 229/2/3 228/2/3
f 233/2/3 229/2/3 232/2/3
f 238/2/3 235/2/3 234/2/3
f 239/2/3 235/2/3 238/2/3
f 240/2/3 237/2/3 236/2/3
f 241/2/3 237/2/3 240/2/3
f 242/2/3 240/2/3 239/2/3
f 243/2/3 240/2/3 242/2/3
f 246/3/3 245/3/3 244/3/3
f 247/3/3 245/3/3 246/3/3
f 250/2/3 249/2/3 248/2/3
f 251/2/3 249/2/3 250/2/3
f 256/2/3 253/2/3 252/2/3
f 257/2/3 253/2/3 256/2/3
f 258/2/3 255/2/3 254/2/3
f 259/2/3 255/2/3 258/2/3
f 260/6/4 261/6/4 262/6/4
f 262/6/4 261/6/4 263/6/4
f 264/6/4 265/6/4 266/6/4
f 266/6/4 265/6/4 267/6/4
f 268/8/4 269/8/4 270/8/4
f 270/8/4 269/8/4 271/8/4
f 272/6/4 273/6/4 275/6/4
f 273/7/4 274/7/4 276/7/4
f 275/6/4 273/6/4 276/6/4
f 272/6/4 275/6/4 278/6/4
f 278/6/4 275/6/4 279/6/4
f 276/7/4 274/7/4 280/7/4
f 280/7/4 274/7/4 281/7/4
f 277/2/4 278/2/4 282/2/4
f 282/2/4 278/2/4 283/2/4
f 284/9/4 285/9/4 286/9/4
f 286/9/4 285/9/4 287/9/4
f 286/8/4 287/8/4 288/8/4
f 288/8/4 287/8/4 289/8/4
f 290/6/4 291/6/4 293/6/4
f 293/6/4 291/6/4 294/6/4
f 292/2/4 293/2/4 296/2/4
f 293/6/4 294/6/4 297/6/4
f 296/2/4 293/2/4 297/2/4
f 294/2/4 295/2/4 298/2/4
f 297/6/4 294/6/4 298/6/4
f 298/2/4 295/2/4 299/2/4
f 300/7/4 301/7/4 302/7/4
f 302/7/4 301/7/4 303/7/4
f 302/10/4 303/10/4 305/10/4
f 303/10/4 304/10/4 305/10/4
f 305/10/4 304/10/4 306/10/4
f 306/10/4 304/10/4 307/10/4
f 307/10/4 304/10/4 308/10/4
f 308/10/4 304/10/4 309/10/4
f 309/10/4 304/10/4 310/10/4
f 305/9/4 306/9/4 311/9/4
f 306/8/4 307/8/4 312/8/4
f 311/9/4 306/9/4 312/9/4
f 307/9/4 308/9/4 313/9/4
f 312/8/4 307/8/4 313/8/4
f 308/8/4 309/8/4 314/8/4
f 313/9/4 308/9/4 314/9/4
f 309/9/4 310/9/4 315/9/4
f 314/8/4 309/8/4 315/8/4
f 315/9/4 310/9/4 316/9/4
f 311/10/4 312/10/4 317/10/4
f 312/10/4 313/10/4 317/10/4
f 315/10/4 316/10/4 317/10/4
f 314/10/4 315/10/4 317/10/4
f 313/10/4 314/10/4 317/10/4
f 317/10/4 316/10/4 318/10/4
f 318/10/4 316/10/4 319/10/4
f 319/10/4 316/10/4 320/10/4
f 317/2/4 318/2/4 321/2/4
f 318/7/4 319/7/4 322/7/4
f 321/2/4 318/2/4 322/2/4
f 322/7/4 319/7/4 323/7/4
f 324/2/4 325/2/4 327/2/4
f 325/7/4 326/7/4 327/7/4
f 327/7/4 326/7/4 328/7/4
f 328/7/4 326/7/4 329/7/4
f 324/2/4 327/2/4 330/2/4
f 327/3/4 328/3/4 331/3/4
f 330/2/4 327/2/4 331/2/4
f 331/3/4 328/3/4 332/3/4
f 328/2/4 329/2/4 333/2/4
f 332/3/4 328/3/4 333/3/4
f 333/2/4 329/2/4 334/2/4
f 335/2/4 336/2/4 337/2/4
f 337/2/4 336/2/4 338/2/4
f 339/2/4 340/2/4 344/2/4
f 340/6/4 341/6/4 345/6/4
f 344/2/4 340/2/4 345/2/4
f 341/3/4 342/3/4 346/3/4
f 345/6/4 341/6/4 346/6/4
f 342/2/4 343/2/4 347/2/4
f 346/3/4 342/3/4 347/3/4
f 347/2/4 343/2/4 348/2/4
f 349/1/4 350/1/4 353/1/4
f 350/3/4 351/3/4 354/3/4
f 353/1/4 350/1/4 354/1/4
f 351/2/4 352/2/4 355/2/4
f 354/3/4 351/3/4 355/3/4
f 355/2/4 352/2/4 356/2/4
f 357/2/4 358/2/4 361/2/4
f 358/3/4 359/3/4 362/3/4
f 361/2/4 358/2/4 362/2/4
f 359/2/4 360/2/4 363/2/4
f 362/3/4 359/3/4 363/3/4
f 363/2/4 360/2/4 364/2/4
f 367/2/5 366/2/5 365/2/5
f 368/2/5 366/2/5 367/2/5
f 376/6/5 370/6/5 369/6/5
f 377/6/5 370/6/5 376/6/5
f 378/6/5 370/6/5 377/6/5
f 379/10/5 371/10/5 370/10/5
f 379/6/5 370/6/5 378/6/5
f 380/8/5 372/8/5 371/8/5
f 380/10/5 371/10/5 379/10/5
f 381/10/5 373/10/5 372/10/5
f 381/8/5 372/8/5 380/8/5
f 382/6/5 374/6/5 373/6/5
f 383/2/5 375/2/5 374/2/5
f 383/6/5 374/6/5 382/6/5
f 384/2/5 375/2/5 383/2/5
f 386/6/5 376/6/5 369/6/5
f 387/6/5 376/6/5 386/6/5
f 388/6/5 378/6/5 377/6/5
f 389/7/5 379/7/5 378/7/5
f 389/6/5 378/6/5 388/6/5
f 390/7/5 379/7/5 389/7/5
f 391/10/5 380/10/5 379/10/5
f 391/9/5 381/9/5 380/9/5
f 392/10/5 373/10/5 381/10/5
f 392/9/5 381/9/5 391/9/5
f 393/2/5 385/2/5 384/2/5
f 393/2/5 384/2/5 383/2/5
f 393/2/5 383/2/5 382/2/5
f 395/2/5 388/2/5 387/2/5
f 395/2/5 390/2/5 389/2/5
f 395/2/5 389/2/5 388/2/5
f 396/7/5 379/7/5 390/7/5
f 396/2/5 390/2/5 395/2/5
f 397/10/5 391/10/5 379/10/5
f 397/8/5 392/8/5 391/8/5
f 398/10/5 373/10/5 392/10/5
f 398/8/5 392/8/5 397/8/5
f 399/6/5 382/6/5 373/6/5
f 399/10/5 373/10/5 398/10/5
f 400/2/5 394/2/5 393/2/5
f 400/6/5 382/6/5 399/6/5
f 400/2/5 393/2/5 382/2/5
f 401/7/5 379/7/5 396/7/5
f 402/10/5 397/10/5 379/10/5
f 402/7/5 379/7/5 401/7/5
f 403/9/5 398/9/5 397/9/5
f 403/10/5 397/10/5 402/10/5
f 404/10/5 399/10/5 398/10/5
f 404/9/5 398/9/5 403/9/5
f 405/2/5 400/2/5 399/2/5
f 405/10/5 399/10/5 404/10/5
f 406/2/5 400/2/5 405/2/5
f 407/2/5 394/2/5 400/2/5
f 407/2/5 400/2/5 406/2/5
f 409/2/5 408/2/5 407/2/5
f 409/2/5 407/2/5 406/2/5
f 410/2/5 408/2/5 409/2/5
f 411/2/5 408/2/5 410/2/5
f 412/2/5 408/2/5 411/2/5
f 413/2/5 411/2/5 410/2/5
f 414/2/5 411/2/5 413/2/5
f 415/1/5 412/1/5 411/1/5
f 415/2/5 411/2/5 414/2/5
f 416/1/5 412/1/5 415/1/5
f 417/2/5 415/2/5 414/2/5
f 418/2/5 415/2/5 417/2/5
f 425/6/5 420/6/5 419/6/5
f 426/10/5 421/10/5 420/10/5
f 426/6/5 420/6/5 425/6/5
f 427/9/5 422/9/5 421/9/5
f 427/10/5 421/10/5 426/10/5
f 428/10/5 423/10/5 422/10/5
f 428/9/5 422/9/5 427/9/5
f 429/6/5 424/6/5 423/6/5
f 429/10/5 423/10/5 428/10/5
f 430/6/5 424/6/5 429/6/5
f 435/2/5 432/2/5 431/2/5
f 436/2/5 432/2/5 435/2/5
f 438/6/5 434/6/5 433/6/5
f 439/6/5 434/6/5 438/6/5
f 440/2/5 437/2/5 436/2/5
f 442/2/5 441/2/5 440/2/5
f 442/2/5 440/2/5 436/2/5
f 443/2/5 441/2/5 442/2/5
f 444/2/5 441/2/5 443/2/5
f 445/2/5 441/2/5 444/2/5
f 448/3/5 447/3/5 446/3/5
f 449/3/5 447/3/5 448/3/5
f 452/6/5 451/6/5 450/6/5
f 453/6/5 451/6/5 452/6/5
f 456/8/5 455/8/5 454/8/5
f 457/8/5 455/8/5 456/8/5
f 458/6/6 459/6/6 460/6/6
f 460/6/6 459/6/6 461/6/6
f 462/2/6 463/2/6 464/2/6
f 464/2/6 463/2/6 465/2/6
f 466/6/6 467/6/6 472/6/6
f 467/10/6 468/10/6 473/10/6
f 472/6/6 467/6/6 473/6/6
f 473/10/6 468/10/6 474/10/6
f 469/10/6 470/10/6 475/10/6
f 470/6/6 471/6/6 476/6/6
f 475/10/6 470/10/6 476/10/6
f 476/6/6 471/6/6 477/6/6
f 478/2/6 479/2/6 482/2/6
f 482/2/6 479/2/6 483/2/6
f 480/6/6 481/6/6 485/6/6
f 485/6/6 481/6/6 486/6/6
f 483/2/6 484/2/6 487/2/6
f 487/2/6 488/2/6 489/2/6
f 483/2/6 487/2/6 489/2/6
f 489/2/6 488/2/6 490/2/6
f 490/2/6 488/2/6 491/2/6
f 491/2/6 488/2/6 492/2/6
f 493/9/6 494/9/6 497/9/6
f 497/9/6 494/9/6 498/9/6
f 495/6/6 496/6/6 502/6/6
f 502/6/6 496/6/6 503/6/6
f 503/6/6 496/6/6 504/6/6
f 504/6/6 496/6/6 505/6/6
f 499/6/6 500/6/6 506/6/6
f 500/2/6 501/2/6 507/2/6
f 506/6/6 500/6/6 507/6/6
f 502/7/6 503/7/6 508/7/6
f 503/2/6 504/2/6 509/2/6
f 508/7/6 503/7/6 509/7/6
f 504/7/6 505/7/6 510/7/6
f 509/2/6 504/2/6 510/2/6
f 510/7/6 505/7/6 511/7/6
f 507/2/6 501/2/6 512/2/6
f 509/2/6 510/2/6 516/2/6
f 510/2/6 511/2/6 516/2/6
f 511/7/6 505/7/6 517/7/6
f 516/2/6 511/2/6 517/2/6
f 506/7/6 507/7/6 518/7/6
f 514/2/6 515/2/6 519/2/6
f 518/7/6 507/7/6 519/7/6
f 513/2/6 514/2/6 519/2/6
f 512/2/6 513/2/6 519/2/6
f 507/2/6 512/2/6 519/2/6
f 517/7/6 505/7/6 520/7/6
f 520/7/6 505/7/6 521/7/6
f 506/7/6 518/7/6 522/7/6
f 518/8/6 519/8/6 523/8/6
f 522/7/6 518/7/6 523/7/6
f 519/2/6 515/2/6 524/2/6
f 523/8/6 519/8/6 524/8/6
f 524/2/6 515/2/6 525/2/6
f 523/7/6 524/7/6 527/7/6
f 525/2/6 526/2/6 528/2/6
f 527/7/6 524/7/6 528/7/6
f 524/2/6 525/2/6 528/2/6
f 528/2/6 526/2/6 529/2/6
f 529/2/6 526/2/6 530/2/6
f 530/2/6 526/2/6 531/2/6
f 531/2/6 526/2/6 532/2/6
f 532/2/6 526/2/6 533/2/6
f 531/2/6 532/2/6 534/2/6
f 534/2/6 532/2/6 535/2/6
f 536/10/6 537/10/6 544/10/6
f 537/8/6 538/8/6 544/8/6
f 538/10/6 539/10/6 545/10/6
f 544/8/6 538/8/6 545/8/6
f 540/9/6 541/9/6 546/9/6
f 546/9/6 541/9/6 547/9/6
f 542/8/6 543/8/6 548/8/6
f 548/8/6 543/8/6 549/8/6
f 536/10/6 544/10/6 550/10/6
f 544/9/6 545/9/6 550/9/6
f 545/10/6 539/10/6 551/10/6
f 550/9/6 545/9/6 551/9/6
f 540/9/6 546/9/6 552/9/6
f 546/8/6 547/8/6 553/8/6
f 552/9/6 546/9/6 553/9/6
f 547/8/6 548/8/6 553/8/6
f 553/8/6 548/8/6 554/8/6
f 536/10/6 550/10/6 555/10/6
f 550/8/6 551/8/6 555/8/6
f 551/10/6 539/10/6 556/10/6
f 555/8/6 551/8/6 556/8/6
f 536/10/6 555/10/6 557/10/6
f 555/9/6 556/9/6 558/9/6
f 557/10/6 555/10/6 558/10/6
f 556/10/6 539/10/6 559/10/6
f 558/9/6 556/9/6 559/9/6
f 559/10/6 539/10/6 560/10/6
