# MagicaVoxel @ Ephtracy

# group
o 

# material
mtllib Door and stairs-1.mtl
usemtl palette

# normals
vn -1 0 0
vn 1 0 0
vn 0 0 1
vn 0 0 -1
vn 0 -1 0
vn 0 1 0

# texcoords
vt 0.0488281 0.5
vt 0.0527344 0.5
vt 0.0839844 0.5
vt 0.283203 0.5
vt 0.302734 0.5
vt 0.314453 0.5

# verts
v -0.7 -1 0
v -0.7 -1 -0.1
v -0.7 1.1 0
v -0.7 1.1 -0.1
v -0.6 -0.3 0.1
v -0.6 -0.3 0
v -0.6 -0.3 -0.1
v -0.6 -0.3 -0.2
v -0.6 -0.1 0.1
v -0.6 -0.1 0
v -0.6 -0.1 -0.1
v -0.6 -0.1 -0.2
v -0.6 0.4 0.1
v -0.6 0.4 0
v -0.6 0.4 -0.1
v -0.6 0.4 -0.2
v -0.6 0.5 0.1
v -0.6 0.5 0
v -0.6 0.5 -0.1
v -0.6 0.5 -0.2
v -0.6 0.6 0.1
v -0.6 0.6 0
v -0.6 0.6 -0.1
v -0.6 0.6 -0.2
v -0.6 1 0.1
v -0.6 1 0
v -0.6 1.1 0.1
v -0.6 1.1 0
v 0.5 -0.4 0.1
v 0.5 -0.4 0
v 0.5 -0.4 -0.1
v 0.5 -0.4 -0.2
v 0.5 -0.3 0.1
v 0.5 -0.3 0
v 0.5 -0.3 -0.1
v 0.5 -0.3 -0.2
v 0.5 -0.1 0.1
v 0.5 -0.1 0
v 0.5 -0.1 -0.1
v 0.5 -0.1 -0.2
v 0.5 0 0.1
v 0.5 0 0
v 0.5 0 -0.1
v 0.5 0 -0.2
v 0.6 -0.5 0.1
v 0.6 -0.5 0
v 0.6 -0.5 -0.1
v 0.6 -0.5 -0.2
v 0.6 -0.4 0.1
v 0.6 -0.4 0
v 0.6 -0.4 -0.1
v 0.6 -0.4 -0.2
v 0.6 0 0.1
v 0.6 0 0
v 0.6 0 -0.1
v 0.6 0 -0.2
v 0.6 0.1 0.1
v 0.6 0.1 0
v 0.6 0.1 -0.1
v 0.6 0.1 -0.2
v -0.6 1 0
v -0.6 1 -0.1
v -0.6 1.1 0
v -0.6 1.1 -0.1
v -0.5 0.4 0.1
v -0.5 0.4 0
v -0.5 0.4 -0.1
v -0.5 0.4 -0.2
v -0.5 0.5 0.1
v -0.5 0.5 0
v -0.5 0.5 -0.1
v -0.5 0.5 -0.2
v -0.4 0.5 0.1
v -0.4 0.5 0
v -0.4 0.5 -0.1
v -0.4 0.5 -0.2
v -0.4 0.6 0.1
v -0.4 0.6 0
v -0.4 0.6 -0.1
v -0.4 0.6 -0.2
v -0.4 0.9 0
v -0.4 0.9 -0.1
v -0.4 1 0.1
v -0.4 1 0
v -0.4 1 -0.1
v -0.4 1.1 0.1
v -0.4 1.1 0
v -0.2 0.8 0
v -0.2 0.8 -0.1
v -0.2 0.9 0
v -0.2 0.9 -0.1
v 0 0.7 0
v 0 0.7 -0.1
v 0 0.8 0
v 0 0.8 -0.1
v 0.2 0.6 0
v 0.2 0.6 -0.1
v 0.2 0.7 0
v 0.2 0.7 -0.1
v 0.4 0.5 0
v 0.4 0.5 -0.1
v 0.4 0.6 0
v 0.4 0.6 -0.1
v 0.6 -0.3 0.1
v 0.6 -0.3 0
v 0.6 -0.3 -0.1
v 0.6 -0.3 -0.2
v 0.6 -0.1 0.1
v 0.6 -0.1 0
v 0.6 -0.1 -0.1
v 0.6 -0.1 -0.2
v 0.7 -1 0
v 0.7 -1 -0.1
v 0.7 -0.5 0.1
v 0.7 -0.5 0
v 0.7 -0.5 -0.1
v 0.7 -0.5 -0.2
v 0.7 -0.4 0.1
v 0.7 -0.4 0
v 0.7 -0.4 -0.1
v 0.7 -0.4 -0.2
v 0.7 -0.3 0.1
v 0.7 -0.3 0
v 0.7 -0.3 -0.1
v 0.7 -0.3 -0.2
v 0.7 -0.1 0.1
v 0.7 -0.1 0
v 0.7 -0.1 -0.1
v 0.7 -0.1 -0.2
v 0.7 0 0.1
v 0.7 0 0
v 0.7 0 -0.1
v 0.7 0 -0.2
v 0.7 0.1 0.1
v 0.7 0.1 0
v 0.7 0.1 -0.1
v 0.7 0.1 -0.2
v 0.7 0.5 0
v 0.7 0.5 -0.1
v -0.6 -0.3 0.1
v -0.6 -0.1 0.1
v -0.6 0.4 0.1
v -0.6 0.5 0.1
v -0.6 0.6 0.1
v -0.6 1 0.1
v -0.6 1.1 0.1
v -0.5 -0.3 0.1
v -0.5 -0.1 0.1
v -0.5 0.4 0.1
v -0.5 0.5 0.1
v -0.5 1 0.1
v -0.5 1.1 0.1
v -0.4 0.5 0.1
v -0.4 0.6 0.1
v -0.4 1 0.1
v -0.4 1.1 0.1
v 0.5 -0.4 0.1
v 0.5 -0.3 0.1
v 0.5 -0.1 0.1
v 0.5 0 0.1
v 0.6 -0.5 0.1
v 0.6 -0.4 0.1
v 0.6 -0.3 0.1
v 0.6 -0.1 0.1
v 0.6 0 0.1
v 0.6 0.1 0.1
v 0.7 -0.5 0.1
v 0.7 -0.4 0.1
v 0.7 -0.3 0.1
v 0.7 -0.1 0.1
v 0.7 0 0.1
v 0.7 0.1 0.1
v -0.7 -1 0
v -0.7 1.1 0
v -0.6 -0.9 0
v -0.6 -0.8 0
v -0.6 -0.5 0
v -0.6 -0.4 0
v -0.6 -0.3 0
v -0.6 -0.1 0
v -0.6 0.4 0
v -0.6 0.5 0
v -0.6 0.6 0
v -0.6 1 0
v -0.6 1.1 0
v -0.5 -0.3 0
v -0.5 -0.1 0
v -0.5 0 0
v -0.5 0.1 0
v -0.5 0.4 0
v -0.5 0.5 0
v -0.5 0.8 0
v -0.5 0.9 0
v -0.5 1 0
v -0.4 0.5 0
v -0.4 0.6 0
v -0.4 0.9 0
v -0.4 1 0
v -0.3 0.4 0
v -0.3 0.5 0
v -0.2 -0.9 0
v -0.2 -0.8 0
v -0.2 -0.7 0
v -0.2 -0.6 0
v -0.2 -0.5 0
v -0.2 -0.4 0
v -0.2 0.2 0
v -0.2 0.3 0
v -0.2 0.8 0
v -0.2 0.9 0
v -0.1 0.6 0
v -0.1 0.7 0
v 0 0 0
v 0 0.1 0
v 0 0.7 0
v 0 0.8 0
v 0.1 -0.9 0
v 0.1 -0.8 0
v 0.1 -0.5 0
v 0.1 -0.4 0
v 0.1 0.4 0
v 0.1 0.5 0
v 0.2 -0.7 0
v 0.2 -0.6 0
v 0.2 0.6 0
v 0.2 0.7 0
v 0.4 -0.7 0
v 0.4 -0.6 0
v 0.4 -0.5 0
v 0.4 -0.4 0
v 0.4 0.5 0
v 0.4 0.6 0
v 0.5 -0.4 0
v 0.5 -0.3 0
v 0.5 -0.1 0
v 0.5 0 0
v 0.5 0.2 0
v 0.5 0.3 0
v 0.6 -0.9 0
v 0.6 -0.8 0
v 0.6 -0.7 0
v 0.6 -0.6 0
v 0.6 -0.5 0
v 0.6 -0.4 0
v 0.6 -0.3 0
v 0.6 -0.1 0
v 0.6 0 0
v 0.6 0.1 0
v 0.6 0.5 0
v 0.7 -1 0
v 0.7 -0.5 0
v 0.7 -0.3 0
v 0.7 -0.1 0
v 0.7 0.1 0
v 0.7 0.5 0
v -0.6 1 0
v -0.6 1.1 0
v -0.5 1 0
v -0.5 1.1 0
v -0.4 1 0
v -0.4 1.1 0
v -0.7 -1 -0.1
v -0.7 1.1 -0.1
v -0.6 -0.9 -0.1
v -0.6 -0.8 -0.1
v -0.6 -0.5 -0.1
v -0.6 -0.4 -0.1
v -0.6 -0.3 -0.1
v -0.6 -0.1 -0.1
v -0.6 0.4 -0.1
v -0.6 0.5 -0.1
v -0.6 0.6 -0.1
v -0.6 1 -0.1
v -0.6 1.1 -0.1
v -0.5 -0.3 -0.1
v -0.5 -0.1 -0.1
v -0.5 0 -0.1
v -0.5 0.1 -0.1
v -0.5 0.4 -0.1
v -0.5 0.5 -0.1
v -0.5 0.8 -0.1
v -0.5 0.9 -0.1
v -0.4 0.5 -0.1
v -0.4 0.6 -0.1
v -0.4 0.9 -0.1
v -0.4 1 -0.1
v -0.3 0.4 -0.1
v -0.3 0.5 -0.1
v -0.2 -0.9 -0.1
v -0.2 -0.8 -0.1
v -0.2 -0.7 -0.1
v -0.2 -0.6 -0.1
v -0.2 -0.5 -0.1
v -0.2 -0.4 -0.1
v -0.2 0.2 -0.1
v -0.2 0.3 -0.1
v -0.2 0.8 -0.1
v -0.2 0.9 -0.1
v -0.1 0.6 -0.1
v -0.1 0.7 -0.1
v 0 0 -0.1
v 0 0.1 -0.1
v 0 0.7 -0.1
v 0 0.8 -0.1
v 0.1 -0.9 -0.1
v 0.1 -0.8 -0.1
v 0.1 -0.5 -0.1
v 0.1 -0.4 -0.1
v 0.1 0.4 -0.1
v 0.1 0.5 -0.1
v 0.2 -0.7 -0.1
v 0.2 -0.6 -0.1
v 0.2 0.6 -0.1
v 0.2 0.7 -0.1
v 0.4 -0.7 -0.1
v 0.4 -0.6 -0.1
v 0.4 -0.5 -0.1
v 0.4 -0.4 -0.1
v 0.4 0.5 -0.1
v 0.4 0.6 -0.1
v 0.5 -0.4 -0.1
v 0.5 -0.3 -0.1
v 0.5 -0.1 -0.1
v 0.5 0 -0.1
v 0.5 0.2 -0.1
v 0.5 0.3 -0.1
v 0.6 -0.9 -0.1
v 0.6 -0.8 -0.1
v 0.6 -0.7 -0.1
v 0.6 -0.6 -0.1
v 0.6 -0.5 -0.1
v 0.6 -0.4 -0.1
v 0.6 -0.3 -0.1
v 0.6 -0.1 -0.1
v 0.6 0 -0.1
v 0.6 0.1 -0.1
v 0.6 0.5 -0.1
v 0.7 -1 -0.1
v 0.7 -0.5 -0.1
v 0.7 -0.3 -0.1
v 0.7 -0.1 -0.1
v 0.7 0.1 -0.1
v 0.7 0.5 -0.1
v -0.6 -0.3 -0.2
v -0.6 -0.1 -0.2
v -0.6 0.4 -0.2
v -0.6 0.5 -0.2
v -0.6 0.6 -0.2
v -0.5 -0.3 -0.2
v -0.5 -0.1 -0.2
v -0.5 0.4 -0.2
v -0.5 0.5 -0.2
v -0.4 0.5 -0.2
v -0.4 0.6 -0.2
v 0.5 -0.4 -0.2
v 0.5 -0.3 -0.2
v 0.5 -0.1 -0.2
v 0.5 0 -0.2
v 0.6 -0.5 -0.2
v 0.6 -0.4 -0.2
v 0.6 -0.3 -0.2
v 0.6 -0.1 -0.2
v 0.6 0 -0.2
v 0.6 0.1 -0.2
v 0.7 -0.5 -0.2
v 0.7 -0.4 -0.2
v 0.7 -0.3 -0.2
v 0.7 -0.1 -0.2
v 0.7 0 -0.2
v 0.7 0.1 -0.2
v -0.7 -1 0
v 0.7 -1 0
v -0.7 -1 -0.1
v 0.7 -1 -0.1
v 0.6 -0.5 0.1
v 0.7 -0.5 0.1
v 0.6 -0.5 0
v 0.7 -0.5 0
v 0.6 -0.5 -0.1
v 0.7 -0.5 -0.1
v 0.6 -0.5 -0.2
v 0.7 -0.5 -0.2
v 0.5 -0.4 0.1
v 0.6 -0.4 0.1
v 0.5 -0.4 0
v 0.6 -0.4 0
v 0.5 -0.4 -0.1
v 0.6 -0.4 -0.1
v 0.5 -0.4 -0.2
v 0.6 -0.4 -0.2
v -0.6 -0.3 0.1
v -0.5 -0.3 0.1
v 0.5 -0.3 0.1
v -0.6 -0.3 0
v -0.5 -0.3 0
v 0.5 -0.3 0
v -0.6 -0.3 -0.1
v -0.5 -0.3 -0.1
v 0.5 -0.3 -0.1
v -0.6 -0.3 -0.2
v -0.5 -0.3 -0.2
v 0.5 -0.3 -0.2
v 0.6 -0.1 0.1
v 0.7 -0.1 0.1
v 0.6 -0.1 0
v 0.7 -0.1 0
v 0.6 -0.1 -0.1
v 0.7 -0.1 -0.1
v 0.6 -0.1 -0.2
v 0.7 -0.1 -0.2
v -0.6 0.4 0.1
v -0.5 0.4 0.1
v -0.6 0.4 0
v -0.5 0.4 0
v -0.6 0.4 -0.1
v -0.5 0.4 -0.1
v -0.6 0.4 -0.2
v -0.5 0.4 -0.2
v -0.5 0.5 0.1
v -0.4 0.5 0.1
v -0.5 0.5 0
v -0.4 0.5 0
v -0.5 0.5 -0.1
v -0.4 0.5 -0.1
v -0.5 0.5 -0.2
v -0.4 0.5 -0.2
v -0.6 1 0.1
v -0.5 1 0.1
v -0.4 1 0.1
v -0.6 1 0
v -0.5 1 0
v -0.4 1 0
v 0.6 -0.3 0.1
v 0.7 -0.3 0.1
v 0.6 -0.3 0
v 0.7 -0.3 0
v 0.6 -0.3 -0.1
v 0.7 -0.3 -0.1
v 0.6 -0.3 -0.2
v 0.7 -0.3 -0.2
v -0.6 -0.1 0.1
v -0.5 -0.1 0.1
v 0.5 -0.1 0.1
v -0.6 -0.1 0
v -0.5 -0.1 0
v 0.5 -0.1 0
v -0.6 -0.1 -0.1
v -0.5 -0.1 -0.1
v 0.5 -0.1 -0.1
v -0.6 -0.1 -0.2
v -0.5 -0.1 -0.2
v 0.5 -0.1 -0.2
v 0.5 0 0.1
v 0.6 0 0.1
v 0.5 0 0
v 0.6 0 0
v 0.5 0 -0.1
v 0.6 0 -0.1
v 0.5 0 -0.2
v 0.6 0 -0.2
v 0.6 0.1 0.1
v 0.7 0.1 0.1
v 0.6 0.1 0
v 0.7 0.1 0
v 0.6 0.1 -0.1
v 0.7 0.1 -0.1
v 0.6 0.1 -0.2
v 0.7 0.1 -0.2
v 0.4 0.5 0
v 0.6 0.5 0
v 0.7 0.5 0
v 0.4 0.5 -0.1
v 0.6 0.5 -0.1
v 0.7 0.5 -0.1
v -0.6 0.6 0.1
v -0.4 0.6 0.1
v -0.6 0.6 0
v -0.4 0.6 0
v 0.2 0.6 0
v 0.4 0.6 0
v -0.6 0.6 -0.1
v -0.4 0.6 -0.1
v 0.2 0.6 -0.1
v 0.4 0.6 -0.1
v -0.6 0.6 -0.2
v -0.4 0.6 -0.2
v 0 0.7 0
v 0.2 0.7 0
v 0 0.7 -0.1
v 0.2 0.7 -0.1
v -0.2 0.8 0
v 0 0.8 0
v -0.2 0.8 -0.1
v 0 0.8 -0.1
v -0.4 0.9 0
v -0.2 0.9 0
v -0.4 0.9 -0.1
v -0.2 0.9 -0.1
v -0.6 1 0
v -0.5 1 0
v -0.4 1 0
v -0.6 1 -0.1
v -0.4 1 -0.1
v -0.6 1.1 0.1
v -0.5 1.1 0.1
v -0.4 1.1 0.1
v -0.7 1.1 0
v -0.6 1.1 0
v -0.5 1.1 0
v -0.4 1.1 0
v -0.7 1.1 -0.1
v -0.6 1.1 -0.1

# faces
f 3/2/1 2/2/1 1/2/1
f 4/2/1 2/2/1 3/2/1
f 9/6/1 6/6/1 5/6/1
f 10/6/1 6/6/1 9/6/1
f 11/6/1 8/6/1 7/6/1
f 12/6/1 8/6/1 11/6/1
f 17/6/1 14/6/1 13/6/1
f 18/6/1 14/6/1 17/6/1
f 19/6/1 16/6/1 15/6/1
f 20/6/1 16/6/1 19/6/1
f 21/5/1 18/5/1 17/5/1
f 22/5/1 18/5/1 21/5/1
f 23/5/1 20/5/1 19/5/1
f 24/5/1 20/5/1 23/5/1
f 27/6/1 26/6/1 25/6/1
f 28/6/1 26/6/1 27/6/1
f 33/4/1 30/4/1 29/4/1
f 34/4/1 30/4/1 33/4/1
f 35/4/1 32/4/1 31/4/1
f 36/4/1 32/4/1 35/4/1
f 41/4/1 38/4/1 37/4/1
f 42/4/1 38/4/1 41/4/1
f 43/4/1 40/4/1 39/4/1
f 44/4/1 40/4/1 43/4/1
f 49/5/1 46/5/1 45/5/1
f 50/5/1 46/5/1 49/5/1
f 51/5/1 48/5/1 47/5/1
f 52/5/1 48/5/1 51/5/1
f 57/5/1 54/5/1 53/5/1
f 58/5/1 54/5/1 57/5/1
f 59/5/1 56/5/1 55/5/1
f 60/5/1 56/5/1 59/5/1
f 61/2/2 62/2/2 63/2/2
f 63/2/2 62/2/2 64/2/2
f 65/6/2 66/6/2 69/6/2
f 69/6/2 66/6/2 70/6/2
f 67/6/2 68/6/2 71/6/2
f 71/6/2 68/6/2 72/6/2
f 73/5/2 74/5/2 77/5/2
f 77/5/2 74/5/2 78/5/2
f 75/5/2 76/5/2 79/5/2
f 79/5/2 76/5/2 80/5/2
f 81/3/2 82/3/2 84/3/2
f 84/3/2 82/3/2 85/3/2
f 83/5/2 84/5/2 86/5/2
f 86/5/2 84/5/2 87/5/2
f 88/1/2 89/1/2 90/1/2
f 90/1/2 89/1/2 91/1/2
f 92/3/2 93/3/2 94/3/2
f 94/3/2 93/3/2 95/3/2
f 96/1/2 97/1/2 98/1/2
f 98/1/2 97/1/2 99/1/2
f 100/3/2 101/3/2 102/3/2
f 102/3/2 101/3/2 103/3/2
f 104/6/2 105/6/2 108/6/2
f 108/6/2 105/6/2 109/6/2
f 106/6/2 107/6/2 110/6/2
f 110/6/2 107/6/2 111/6/2
f 112/2/2 113/2/2 115/2/2
f 115/2/2 113/2/2 116/2/2
f 114/5/2 115/5/2 118/5/2
f 115/2/2 116/2/2 119/2/2
f 118/5/2 115/5/2 119/5/2
f 116/5/2 117/5/2 120/5/2
f 119/2/2 116/2/2 120/2/2
f 120/5/2 117/5/2 121/5/2
f 118/4/2 119/4/2 122/4/2
f 119/2/2 120/2/2 123/2/2
f 122/4/2 119/4/2 123/4/2
f 120/4/2 121/4/2 124/4/2
f 123/2/2 120/2/2 124/2/2
f 124/4/2 121/4/2 125/4/2
f 123/2/2 124/2/2 127/2/2
f 127/2/2 124/2/2 128/2/2
f 126/4/2 127/4/2 130/4/2
f 127/2/2 128/2/2 131/2/2
f 130/4/2 127/4/2 131/4/2
f 128/4/2 129/4/2 132/4/2
f 131/2/2 128/2/2 132/2/2
f 132/4/2 129/4/2 133/4/2
f 130/5/2 131/5/2 134/5/2
f 131/2/2 132/2/2 135/2/2
f 134/5/2 131/5/2 135/5/2
f 132/5/2 133/5/2 136/5/2
f 135/2/2 132/2/2 136/2/2
f 136/5/2 133/5/2 137/5/2
f 135/2/2 136/2/2 138/2/2
f 138/2/2 136/2/2 139/2/2
f 147/6/3 141/6/3 140/6/3
f 148/6/3 141/6/3 147/6/3
f 149/6/3 143/6/3 142/6/3
f 150/5/3 144/5/3 143/5/3
f 150/6/3 143/6/3 149/6/3
f 151/6/3 146/6/3 145/6/3
f 152/6/3 146/6/3 151/6/3
f 153/5/3 144/5/3 150/5/3
f 154/5/3 144/5/3 153/5/3
f 155/5/3 152/5/3 151/5/3
f 156/5/3 152/5/3 155/5/3
f 158/5/3 148/5/3 147/5/3
f 159/5/3 148/5/3 158/5/3
f 162/4/3 158/4/3 157/4/3
f 163/6/3 159/6/3 158/6/3
f 163/4/3 158/4/3 162/4/3
f 164/4/3 160/4/3 159/4/3
f 164/6/3 159/6/3 163/6/3
f 165/4/3 160/4/3 164/4/3
f 167/5/3 162/5/3 161/5/3
f 168/4/3 163/4/3 162/4/3
f 168/5/3 162/5/3 167/5/3
f 169/4/3 163/4/3 168/4/3
f 170/4/3 165/4/3 164/4/3
f 171/5/3 166/5/3 165/5/3
f 171/4/3 165/4/3 170/4/3
f 172/5/3 166/5/3 171/5/3
f 175/2/3 174/2/3 173/2/3
f 176/2/3 174/2/3 175/2/3
f 177/2/3 174/2/3 176/2/3
f 178/2/3 174/2/3 177/2/3
f 179/2/3 174/2/3 178/2/3
f 180/2/3 174/2/3 179/2/3
f 181/2/3 174/2/3 180/2/3
f 182/2/3 174/2/3 181/2/3
f 183/2/3 174/2/3 182/2/3
f 184/2/3 174/2/3 183/2/3
f 185/2/3 174/2/3 184/2/3
f 186/3/3 179/3/3 178/3/3
f 187/3/3 181/3/3 180/3/3
f 188/3/3 181/3/3 187/3/3
f 189/3/3 181/3/3 188/3/3
f 190/3/3 181/3/3 189/3/3
f 192/3/3 184/3/3 183/3/3
f 193/3/3 184/3/3 192/3/3
f 194/3/3 184/3/3 193/3/3
f 195/3/3 191/3/3 190/3/3
f 195/3/3 190/3/3 189/3/3
f 196/3/3 192/3/3 183/3/3
f 197/3/3 194/3/3 193/3/3
f 197/1/3 193/1/3 192/1/3
f 198/3/3 194/3/3 197/3/3
f 199/3/3 196/3/3 195/3/3
f 199/3/3 195/3/3 189/3/3
f 200/3/3 196/3/3 199/3/3
f 201/2/3 175/2/3 173/2/3
f 201/1/3 176/1/3 175/1/3
f 202/3/3 177/3/3 176/3/3
f 202/1/3 176/1/3 201/1/3
f 203/3/3 177/3/3 202/3/3
f 204/3/3 177/3/3 203/3/3
f 205/1/3 178/1/3 177/1/3
f 205/3/3 177/3/3 204/3/3
f 206/3/3 186/3/3 178/3/3
f 206/1/3 178/1/3 205/1/3
f 207/3/3 199/3/3 189/3/3
f 208/3/3 199/3/3 207/3/3
f 209/3/3 196/3/3 200/3/3
f 209/1/3 197/1/3 192/1/3
f 209/3/3 192/3/3 196/3/3
f 210/1/3 197/1/3 209/1/3
f 211/3/3 209/3/3 200/3/3
f 212/3/3 209/3/3 211/3/3
f 213/3/3 188/3/3 187/3/3
f 213/1/3 189/1/3 188/1/3
f 214/3/3 207/3/3 189/3/3
f 214/1/3 189/1/3 213/1/3
f 215/3/3 209/3/3 212/3/3
f 215/1/3 212/1/3 211/1/3
f 216/3/3 209/3/3 215/3/3
f 217/2/3 201/2/3 173/2/3
f 217/3/3 202/3/3 201/3/3
f 217/3/3 203/3/3 202/3/3
f 218/3/3 203/3/3 217/3/3
f 219/3/3 205/3/3 204/3/3
f 219/3/3 206/3/3 205/3/3
f 220/3/3 186/3/3 206/3/3
f 220/3/3 206/3/3 219/3/3
f 221/3/3 199/3/3 208/3/3
f 221/1/3 200/1/3 199/1/3
f 222/3/3 211/3/3 200/3/3
f 222/1/3 200/1/3 221/1/3
f 223/1/3 204/1/3 203/1/3
f 223/3/3 203/3/3 218/3/3
f 224/3/3 219/3/3 204/3/3
f 224/1/3 204/1/3 223/1/3
f 225/3/3 211/3/3 222/3/3
f 225/3/3 222/3/3 221/3/3
f 225/1/3 215/1/3 211/1/3
f 226/1/3 215/1/3 225/1/3
f 227/3/3 224/3/3 223/3/3
f 227/3/3 223/3/3 218/3/3
f 228/3/3 219/3/3 224/3/3
f 228/3/3 224/3/3 227/3/3
f 229/1/3 220/1/3 219/1/3
f 229/3/3 219/3/3 228/3/3
f 230/3/3 186/3/3 220/3/3
f 230/1/3 220/1/3 229/1/3
f 231/3/3 225/3/3 221/3/3
f 232/3/3 225/3/3 231/3/3
f 233/3/3 229/3/3 228/3/3
f 233/3/3 186/3/3 230/3/3
f 233/3/3 230/3/3 229/3/3
f 234/3/3 186/3/3 233/3/3
f 235/3/3 214/3/3 213/3/3
f 235/3/3 213/3/3 187/3/3
f 236/3/3 214/3/3 235/3/3
f 237/3/3 207/3/3 214/3/3
f 237/3/3 214/3/3 236/3/3
f 237/1/3 208/1/3 207/1/3
f 238/3/3 231/3/3 221/3/3
f 238/1/3 208/1/3 237/1/3
f 238/3/3 221/3/3 208/3/3
f 239/2/3 217/2/3 173/2/3
f 239/1/3 218/1/3 217/1/3
f 240/3/3 227/3/3 218/3/3
f 240/1/3 218/1/3 239/1/3
f 241/1/3 228/1/3 227/1/3
f 241/3/3 227/3/3 240/3/3
f 242/3/3 233/3/3 228/3/3
f 242/1/3 228/1/3 241/1/3
f 243/3/3 233/3/3 242/3/3
f 244/3/3 233/3/3 243/3/3
f 247/3/3 238/3/3 237/3/3
f 247/3/3 237/3/3 236/3/3
f 248/3/3 238/3/3 247/3/3
f 249/3/3 231/3/3 238/3/3
f 249/3/3 238/3/3 248/3/3
f 250/2/3 240/2/3 239/2/3
f 250/2/3 239/2/3 173/2/3
f 250/2/3 241/2/3 240/2/3
f 250/2/3 243/2/3 242/2/3
f 250/2/3 242/2/3 241/2/3
f 251/2/3 243/2/3 250/2/3
f 252/2/3 246/2/3 245/2/3
f 253/2/3 246/2/3 252/2/3
f 254/2/3 249/2/3 248/2/3
f 255/2/3 249/2/3 254/2/3
f 256/6/4 257/6/4 258/6/4
f 258/6/4 257/6/4 259/6/4
f 258/5/4 259/5/4 260/5/4
f 260/5/4 259/5/4 261/5/4
f 262/2/4 263/2/4 264/2/4
f 264/2/4 263/2/4 265/2/4
f 265/2/4 263/2/4 266/2/4
f 266/2/4 263/2/4 267/2/4
f 267/2/4 263/2/4 268/2/4
f 268/2/4 263/2/4 269/2/4
f 269/2/4 263/2/4 270/2/4
f 270/2/4 263/2/4 271/2/4
f 271/2/4 263/2/4 272/2/4
f 272/2/4 263/2/4 273/2/4
f 273/2/4 263/2/4 274/2/4
f 267/3/4 268/3/4 275/3/4
f 269/3/4 270/3/4 276/3/4
f 276/3/4 270/3/4 277/3/4
f 277/3/4 270/3/4 278/3/4
f 278/3/4 270/3/4 279/3/4
f 272/3/4 273/3/4 281/3/4
f 281/3/4 273/3/4 282/3/4
f 279/3/4 280/3/4 283/3/4
f 278/3/4 279/3/4 283/3/4
f 272/3/4 281/3/4 284/3/4
f 282/3/4 273/3/4 285/3/4
f 281/1/4 282/1/4 285/1/4
f 285/3/4 273/3/4 286/3/4
f 283/3/4 284/3/4 287/3/4
f 278/3/4 283/3/4 287/3/4
f 287/3/4 284/3/4 288/3/4
f 262/2/4 264/2/4 289/2/4
f 264/1/4 265/1/4 289/1/4
f 265/3/4 266/3/4 290/3/4
f 289/1/4 265/1/4 290/1/4
f 290/3/4 266/3/4 291/3/4
f 291/3/4 266/3/4 292/3/4
f 266/1/4 267/1/4 293/1/4
f 292/3/4 266/3/4 293/3/4
f 267/3/4 275/3/4 294/3/4
f 293/1/4 267/1/4 294/1/4
f 278/3/4 287/3/4 295/3/4
f 295/3/4 287/3/4 296/3/4
f 288/3/4 284/3/4 297/3/4
f 284/3/4 281/3/4 297/3/4
f 281/1/4 285/1/4 297/1/4
f 297/1/4 285/1/4 298/1/4
f 288/3/4 297/3/4 299/3/4
f 299/3/4 297/3/4 300/3/4
f 276/3/4 277/3/4 301/3/4
f 277/1/4 278/1/4 301/1/4
f 278/3/4 295/3/4 302/3/4
f 301/1/4 278/1/4 302/1/4
f 300/3/4 297/3/4 303/3/4
f 299/1/4 300/1/4 303/1/4
f 303/3/4 297/3/4 304/3/4
f 262/2/4 289/2/4 305/2/4
f 289/3/4 290/3/4 305/3/4
f 290/3/4 291/3/4 305/3/4
f 305/3/4 291/3/4 306/3/4
f 292/3/4 293/3/4 307/3/4
f 293/3/4 294/3/4 307/3/4
f 294/3/4 275/3/4 308/3/4
f 307/3/4 294/3/4 308/3/4
f 296/3/4 287/3/4 309/3/4
f 287/1/4 288/1/4 309/1/4
f 288/3/4 299/3/4 310/3/4
f 309/1/4 288/1/4 310/1/4
f 291/1/4 292/1/4 311/1/4
f 306/3/4 291/3/4 311/3/4
f 292/3/4 307/3/4 312/3/4
f 311/1/4 292/1/4 312/1/4
f 310/3/4 299/3/4 313/3/4
f 309/3/4 310/3/4 313/3/4
f 299/1/4 303/1/4 313/1/4
f 313/1/4 303/1/4 314/1/4
f 311/3/4 312/3/4 315/3/4
f 306/3/4 311/3/4 315/3/4
f 312/3/4 307/3/4 316/3/4
f 315/3/4 312/3/4 316/3/4
f 307/1/4 308/1/4 317/1/4
f 316/3/4 307/3/4 317/3/4
f 308/3/4 275/3/4 318/3/4
f 317/1/4 308/1/4 318/1/4
f 309/3/4 313/3/4 319/3/4
f 319/3/4 313/3/4 320/3/4
f 316/3/4 317/3/4 321/3/4
f 318/3/4 275/3/4 321/3/4
f 317/3/4 318/3/4 321/3/4
f 321/3/4 275/3/4 322/3/4
f 301/3/4 302/3/4 323/3/4
f 276/3/4 301/3/4 323/3/4
f 323/3/4 302/3/4 324/3/4
f 302/3/4 295/3/4 325/3/4
f 324/3/4 302/3/4 325/3/4
f 295/1/4 296/1/4 325/1/4
f 309/3/4 319/3/4 326/3/4
f 325/1/4 296/1/4 326/1/4
f 296/3/4 309/3/4 326/3/4
f 262/2/4 305/2/4 327/2/4
f 305/1/4 306/1/4 327/1/4
f 306/3/4 315/3/4 328/3/4
f 327/1/4 306/1/4 328/1/4
f 315/1/4 316/1/4 329/1/4
f 328/3/4 315/3/4 329/3/4
f 316/3/4 321/3/4 330/3/4
f 329/1/4 316/1/4 330/1/4
f 330/3/4 321/3/4 331/3/4
f 331/3/4 321/3/4 332/3/4
f 325/3/4 326/3/4 335/3/4
f 324/3/4 325/3/4 335/3/4
f 335/3/4 326/3/4 336/3/4
f 326/3/4 319/3/4 337/3/4
f 336/3/4 326/3/4 337/3/4
f 327/2/4 328/2/4 338/2/4
f 262/2/4 327/2/4 338/2/4
f 328/2/4 329/2/4 338/2/4
f 330/2/4 331/2/4 338/2/4
f 329/2/4 330/2/4 338/2/4
f 338/2/4 331/2/4 339/2/4
f 333/2/4 334/2/4 340/2/4
f 340/2/4 334/2/4 341/2/4
f 336/2/4 337/2/4 342/2/4
f 342/2/4 337/2/4 343/2/4
f 344/6/4 345/6/4 349/6/4
f 349/6/4 345/6/4 350/6/4
f 346/6/4 347/6/4 351/6/4
f 347/5/4 348/5/4 352/5/4
f 351/6/4 347/6/4 352/6/4
f 352/5/4 348/5/4 353/5/4
f 353/5/4 348/5/4 354/5/4
f 349/5/4 350/5/4 356/5/4
f 356/5/4 350/5/4 357/5/4
f 355/4/4 356/4/4 360/4/4
f 356/6/4 357/6/4 361/6/4
f 360/4/4 356/4/4 361/4/4
f 357/4/4 358/4/4 362/4/4
f 361/6/4 357/6/4 362/6/4
f 362/4/4 358/4/4 363/4/4
f 359/5/4 360/5/4 365/5/4
f 360/4/4 361/4/4 366/4/4
f 365/5/4 360/5/4 366/5/4
f 366/4/4 361/4/4 367/4/4
f 362/4/4 363/4/4 368/4/4
f 363/5/4 364/5/4 369/5/4
f 368/4/4 363/4/4 369/4/4
f 369/5/4 364/5/4 370/5/4
f 373/2/5 372/2/5 371/2/5
f 374/2/5 372/2/5 373/2/5
f 377/5/5 376/5/5 375/5/5
f 378/5/5 376/5/5 377/5/5
f 381/5/5 380/5/5 379/5/5
f 382/5/5 380/5/5 381/5/5
f 385/4/5 384/4/5 383/4/5
f 386/4/5 384/4/5 385/4/5
f 389/4/5 388/4/5 387/4/5
f 390/4/5 388/4/5 389/4/5
f 394/6/5 392/6/5 391/6/5
f 395/5/5 393/5/5 392/5/5
f 395/6/5 392/6/5 394/6/5
f 396/5/5 393/5/5 395/5/5
f 400/6/5 398/6/5 397/6/5
f 401/5/5 399/5/5 398/5/5
f 401/6/5 398/6/5 400/6/5
f 402/5/5 399/5/5 401/5/5
f 405/4/5 404/4/5 403/4/5
f 406/4/5 404/4/5 405/4/5
f 409/4/5 408/4/5 407/4/5
f 410/4/5 408/4/5 409/4/5
f 413/6/5 412/6/5 411/6/5
f 414/6/5 412/6/5 413/6/5
f 417/6/5 416/6/5 415/6/5
f 418/6/5 416/6/5 417/6/5
f 421/5/5 420/5/5 419/5/5
f 422/5/5 420/5/5 421/5/5
f 425/5/5 424/5/5 423/5/5
f 426/5/5 424/5/5 425/5/5
f 430/6/5 428/6/5 427/6/5
f 431/5/5 429/5/5 428/5/5
f 431/6/5 428/6/5 430/6/5
f 432/5/5 429/5/5 431/5/5
f 433/4/6 434/4/6 435/4/6
f 435/4/6 434/4/6 436/4/6
f 437/4/6 438/4/6 439/4/6
f 439/4/6 438/4/6 440/4/6
f 441/6/6 442/6/6 444/6/6
f 442/5/6 443/5/6 445/5/6
f 444/6/6 442/6/6 445/6/6
f 445/5/6 443/5/6 446/5/6
f 447/6/6 448/6/6 450/6/6
f 448/5/6 449/5/6 451/5/6
f 450/6/6 448/6/6 451/6/6
f 451/5/6 449/5/6 452/5/6
f 453/4/6 454/4/6 455/4/6
f 455/4/6 454/4/6 456/4/6
f 457/4/6 458/4/6 459/4/6
f 459/4/6 458/4/6 460/4/6
f 461/5/6 462/5/6 463/5/6
f 463/5/6 462/5/6 464/5/6
f 465/5/6 466/5/6 467/5/6
f 467/5/6 466/5/6 468/5/6
f 469/3/6 470/3/6 472/3/6
f 470/2/6 471/2/6 473/2/6
f 472/3/6 470/3/6 473/3/6
f 473/2/6 471/2/6 474/2/6
f 475/5/6 476/5/6 477/5/6
f 477/5/6 476/5/6 478/5/6
f 479/3/6 480/3/6 483/3/6
f 483/3/6 480/3/6 484/3/6
f 481/5/6 482/5/6 485/5/6
f 485/5/6 482/5/6 486/5/6
f 487/1/6 488/1/6 489/1/6
f 489/1/6 488/1/6 490/1/6
f 491/3/6 492/3/6 493/3/6
f 493/3/6 492/3/6 494/3/6
f 495/1/6 496/1/6 497/1/6
f 497/1/6 496/1/6 498/1/6
f 499/3/6 500/3/6 502/3/6
f 500/3/6 501/3/6 502/3/6
f 502/3/6 501/3/6 503/3/6
f 504/6/6 505/6/6 508/6/6
f 505/5/6 506/5/6 509/5/6
f 508/6/6 505/6/6 509/6/6
f 509/5/6 506/5/6 510/5/6
f 507/2/6 508/2/6 511/2/6
f 511/2/6 508/2/6 512/2/6
