# MagicaVoxel @ Ephtracy

# group
o 

# material
mtllib bar decor-1.mtl
usemtl palette

# normals
vn -1 0 0
vn 1 0 0
vn 0 0 1
vn 0 0 -1
vn 0 -1 0
vn 0 1 0

# texcoords
vt 0.708984 0.5
vt 0.884766 0.5
vt 0.916016 0.5
vt 0.958984 0.5

# verts
v -0.1 -0.5 0.1
v -0.1 -0.5 0
v -0.1 -0.5 -0.1
v -0.1 -0.5 -0.2
v -0.1 -0.4 0.1
v -0.1 -0.4 0
v -0.1 -0.4 -0.1
v -0.1 -0.4 -0.2
v 0 -0.5 0
v 0 -0.5 -0.1
v 0 -0.4 0
v 0 -0.4 -0.1
v 0 -0.2 0
v 0 -0.2 -0.1
v 0 0.3 0
v 0 0.3 -0.1
v 0 0.5 0
v 0 0.5 -0.1
v 0 0.6 0
v 0 0.6 -0.1
v 0.1 -0.5 0.1
v 0.1 -0.5 0
v 0.1 -0.5 -0.1
v 0.1 -0.5 -0.2
v 0.1 -0.4 0.1
v 0.1 -0.4 0
v 0.1 -0.4 -0.1
v 0.1 -0.4 -0.2
v 0 -0.5 0.1
v 0 -0.5 0
v 0 -0.5 -0.1
v 0 -0.5 -0.2
v 0 -0.4 0.1
v 0 -0.4 0
v 0 -0.4 -0.1
v 0 -0.4 -0.2
v 0.1 -0.5 0
v 0.1 -0.5 -0.1
v 0.1 -0.4 0
v 0.1 -0.4 -0.1
v 0.1 -0.2 0
v 0.1 -0.2 -0.1
v 0.1 0.3 0
v 0.1 0.3 -0.1
v 0.1 0.5 0
v 0.1 0.5 -0.1
v 0.1 0.6 0
v 0.1 0.6 -0.1
v 0.2 -0.5 0.1
v 0.2 -0.5 0
v 0.2 -0.5 -0.1
v 0.2 -0.5 -0.2
v 0.2 -0.4 0.1
v 0.2 -0.4 0
v 0.2 -0.4 -0.1
v 0.2 -0.4 -0.2
v -0.1 -0.5 0.1
v -0.1 -0.4 0.1
v 0 -0.5 0.1
v 0 -0.4 0.1
v 0.1 -0.5 0.1
v 0.1 -0.4 0.1
v 0.2 -0.5 0.1
v 0.2 -0.4 0.1
v 0 -0.5 0
v 0 -0.4 0
v 0 -0.2 0
v 0 0.3 0
v 0 0.5 0
v 0 0.6 0
v 0.1 -0.5 0
v 0.1 -0.4 0
v 0.1 -0.2 0
v 0.1 0.3 0
v 0.1 0.5 0
v 0.1 0.6 0
v -0.1 -0.5 -0.1
v -0.1 -0.4 -0.1
v 0 -0.5 -0.1
v 0 -0.4 -0.1
v 0.1 -0.5 -0.1
v 0.1 -0.4 -0.1
v 0.2 -0.5 -0.1
v 0.2 -0.4 -0.1
v -0.1 -0.5 0
v -0.1 -0.4 0
v 0 -0.5 0
v 0 -0.4 0
v 0.1 -0.5 0
v 0.1 -0.4 0
v 0.2 -0.5 0
v 0.2 -0.4 0
v 0 -0.5 -0.1
v 0 -0.4 -0.1
v 0 -0.2 -0.1
v 0 0.3 -0.1
v 0 0.5 -0.1
v 0 0.6 -0.1
v 0.1 -0.5 -0.1
v 0.1 -0.4 -0.1
v 0.1 -0.2 -0.1
v 0.1 0.3 -0.1
v 0.1 0.5 -0.1
v 0.1 0.6 -0.1
v -0.1 -0.5 -0.2
v -0.1 -0.4 -0.2
v 0 -0.5 -0.2
v 0 -0.4 -0.2
v 0.1 -0.5 -0.2
v 0.1 -0.4 -0.2
v 0.2 -0.5 -0.2
v 0.2 -0.4 -0.2
v -0.1 -0.5 0.1
v 0 -0.5 0.1
v 0.1 -0.5 0.1
v 0.2 -0.5 0.1
v -0.1 -0.5 0
v 0 -0.5 0
v 0.1 -0.5 0
v 0.2 -0.5 0
v -0.1 -0.5 -0.1
v 0 -0.5 -0.1
v 0.1 -0.5 -0.1
v 0.2 -0.5 -0.1
v -0.1 -0.5 -0.2
v 0 -0.5 -0.2
v 0.1 -0.5 -0.2
v 0.2 -0.5 -0.2
v -0.1 -0.4 0.1
v 0 -0.4 0.1
v 0.1 -0.4 0.1
v 0.2 -0.4 0.1
v -0.1 -0.4 0
v 0 -0.4 0
v 0.1 -0.4 0
v 0.2 -0.4 0
v -0.1 -0.4 -0.1
v 0 -0.4 -0.1
v 0.1 -0.4 -0.1
v 0.2 -0.4 -0.1
v -0.1 -0.4 -0.2
v 0 -0.4 -0.2
v 0.1 -0.4 -0.2
v 0.2 -0.4 -0.2
v 0 0.6 0
v 0.1 0.6 0
v 0 0.6 -0.1
v 0.1 0.6 -0.1

# faces
f 5/3/1 2/3/1 1/3/1
f 6/3/1 2/3/1 5/3/1
f 7/3/1 4/3/1 3/3/1
f 8/3/1 4/3/1 7/3/1
f 11/3/1 10/3/1 9/3/1
f 12/3/1 10/3/1 11/3/1
f 13/3/1 12/3/1 11/3/1
f 14/3/1 12/3/1 13/3/1
f 15/4/1 14/4/1 13/4/1
f 16/4/1 14/4/1 15/4/1
f 17/1/1 16/1/1 15/1/1
f 18/1/1 16/1/1 17/1/1
f 19/2/1 18/2/1 17/2/1
f 20/2/1 18/2/1 19/2/1
f 25/3/1 22/3/1 21/3/1
f 26/3/1 22/3/1 25/3/1
f 27/3/1 24/3/1 23/3/1
f 28/3/1 24/3/1 27/3/1
f 29/3/2 30/3/2 33/3/2
f 33/3/2 30/3/2 34/3/2
f 31/3/2 32/3/2 35/3/2
f 35/3/2 32/3/2 36/3/2
f 37/3/2 38/3/2 39/3/2
f 39/3/2 38/3/2 40/3/2
f 39/3/2 40/3/2 41/3/2
f 41/3/2 40/3/2 42/3/2
f 41/4/2 42/4/2 43/4/2
f 43/4/2 42/4/2 44/4/2
f 43/1/2 44/1/2 45/1/2
f 45/1/2 44/1/2 46/1/2
f 45/2/2 46/2/2 47/2/2
f 47/2/2 46/2/2 48/2/2
f 49/3/2 50/3/2 53/3/2
f 53/3/2 50/3/2 54/3/2
f 51/3/2 52/3/2 55/3/2
f 55/3/2 52/3/2 56/3/2
f 59/3/3 58/3/3 57/3/3
f 60/3/3 58/3/3 59/3/3
f 63/3/3 62/3/3 61/3/3
f 64/3/3 62/3/3 63/3/3
f 71/3/3 66/3/3 65/3/3
f 71/3/3 67/3/3 66/3/3
f 72/3/3 67/3/3 71/3/3
f 73/4/3 68/4/3 67/4/3
f 73/3/3 67/3/3 72/3/3
f 74/1/3 69/1/3 68/1/3
f 74/4/3 68/4/3 73/4/3
f 75/2/3 70/2/3 69/2/3
f 75/1/3 69/1/3 74/1/3
f 76/2/3 70/2/3 75/2/3
f 79/3/3 78/3/3 77/3/3
f 80/3/3 78/3/3 79/3/3
f 83/3/3 82/3/3 81/3/3
f 84/3/3 82/3/3 83/3/3
f 85/3/4 86/3/4 87/3/4
f 87/3/4 86/3/4 88/3/4
f 89/3/4 90/3/4 91/3/4
f 91/3/4 90/3/4 92/3/4
f 93/3/4 94/3/4 99/3/4
f 94/3/4 95/3/4 99/3/4
f 99/3/4 95/3/4 100/3/4
f 95/4/4 96/4/4 101/4/4
f 100/3/4 95/3/4 101/3/4
f 96/1/4 97/1/4 102/1/4
f 101/4/4 96/4/4 102/4/4
f 97/2/4 98/2/4 103/2/4
f 102/1/4 97/1/4 103/1/4
f 103/2/4 98/2/4 104/2/4
f 105/3/4 106/3/4 107/3/4
f 107/3/4 106/3/4 108/3/4
f 109/3/4 110/3/4 111/3/4
f 111/3/4 110/3/4 112/3/4
f 117/3/5 114/3/5 113/3/5
f 118/3/5 114/3/5 117/3/5
f 119/3/5 116/3/5 115/3/5
f 120/3/5 116/3/5 119/3/5
f 122/3/5 119/3/5 118/3/5
f 123/3/5 119/3/5 122/3/5
f 125/3/5 122/3/5 121/3/5
f 126/3/5 122/3/5 125/3/5
f 127/3/5 124/3/5 123/3/5
f 128/3/5 124/3/5 127/3/5
f 129/3/6 130/3/6 133/3/6
f 133/3/6 130/3/6 134/3/6
f 131/3/6 132/3/6 135/3/6
f 135/3/6 132/3/6 136/3/6
f 137/3/6 138/3/6 141/3/6
f 141/3/6 138/3/6 142/3/6
f 139/3/6 140/3/6 143/3/6
f 143/3/6 140/3/6 144/3/6
f 145/2/6 146/2/6 147/2/6
f 147/2/6 146/2/6 148/2/6
