# MagicaVoxel @ Ephtracy

# group
o 

# material
mtllib Mug and bottles-2.mtl
usemtl palette

# normals
vn -1 0 0
vn 1 0 0
vn 0 0 1
vn 0 0 -1
vn 0 -1 0
vn 0 1 0

# texcoords
vt 0.0292969 0.5
vt 0.0410156 0.5
vt 0.158203 0.5
vt 0.173828 0.5
vt 0.205078 0.5
vt 0.298828 0.5
vt 0.322266 0.5

# verts
v -0.7 -0.7 0.1
v -0.7 -0.7 -0.2
v -0.7 -0.5 0.1
v -0.7 -0.5 0
v -0.7 -0.5 -0.1
v -0.7 -0.5 -0.2
v -0.7 -0.4 0.1
v -0.7 -0.4 0
v -0.7 -0.4 -0.1
v -0.7 -0.4 -0.2
v -0.7 -0.3 0.1
v -0.7 -0.3 0
v -0.7 -0.3 -0.1
v -0.7 -0.3 -0.2
v -0.7 -0.2 0.1
v -0.7 -0.2 0
v -0.7 -0.2 -0.1
v -0.7 -0.2 -0.2
v -0.7 -0.1 0.1
v -0.7 -0.1 -0.2
v -0.6 -0.1 0
v -0.6 -0.1 -0.1
v -0.6 0.1 0
v -0.6 0.1 -0.1
v -0.6 0.2 0
v -0.6 0.2 -0.1
v -0.6 0.3 0
v -0.6 0.3 -0.1
v -0.6 0.4 0
v -0.6 0.4 -0.1
v -0.5 -0.6 0
v -0.5 -0.6 -0.1
v -0.5 -0.5 0
v -0.5 -0.5 -0.1
v -0.2 -0.7 0.2
v -0.2 -0.7 -0.1
v -0.2 -0.6 0.2
v -0.2 -0.6 -0.1
v -0.2 -0.5 0.2
v -0.2 -0.5 -0.1
v -0.2 -0.4 0.2
v -0.2 -0.4 0.1
v -0.2 -0.4 0
v -0.2 -0.4 -0.1
v -0.2 -0.3 0.2
v -0.2 -0.3 0.1
v -0.2 -0.3 0
v -0.2 -0.3 -0.1
v -0.2 -0.2 0.2
v -0.2 -0.2 -0.1
v -0.2 -0.1 0.2
v -0.2 -0.1 -0.1
v -0.2 0 0.2
v -0.2 0 -0.1
v -0.1 0 0.1
v -0.1 0 0
v -0.1 0.2 0.1
v -0.1 0.2 0
v -0.1 0.3 0.1
v -0.1 0.3 0
v -0.1 0.5 0.1
v -0.1 0.5 0
v -0.1 0.6 0.1
v -0.1 0.6 0
v -0.1 0.7 0.1
v -0.1 0.7 0
v 0.5 -0.7 0
v 0.5 -0.7 -0.3
v 0.5 -0.6 0
v 0.5 -0.6 -0.1
v 0.5 -0.5 0
v 0.5 -0.5 -0.1
v 0.5 -0.4 0
v 0.5 -0.4 -0.1
v 0.5 -0.3 0
v 0.5 -0.3 -0.3
v 0.6 -0.3 -0.1
v 0.6 -0.3 -0.2
v 0.6 -0.2 -0.1
v 0.6 -0.2 -0.2
v 0.6 -0.1 -0.1
v 0.6 -0.1 -0.2
v -0.6 -0.6 0
v -0.6 -0.6 -0.1
v -0.6 -0.5 0
v -0.6 -0.5 -0.1
v -0.5 -0.1 0
v -0.5 -0.1 -0.1
v -0.5 0.1 0
v -0.5 0.1 -0.1
v -0.5 0.2 0
v -0.5 0.2 -0.1
v -0.5 0.3 0
v -0.5 0.3 -0.1
v -0.5 0.4 0
v -0.5 0.4 -0.1
v -0.4 -0.7 0.1
v -0.4 -0.7 -0.2
v -0.4 -0.5 0.1
v -0.4 -0.5 0
v -0.4 -0.5 -0.1
v -0.4 -0.5 -0.2
v -0.4 -0.4 0.1
v -0.4 -0.4 0
v -0.4 -0.4 -0.1
v -0.4 -0.4 -0.2
v -0.4 -0.3 0.1
v -0.4 -0.3 0
v -0.4 -0.3 -0.1
v -0.4 -0.3 -0.2
v -0.4 -0.2 0.1
v -0.4 -0.2 0
v -0.4 -0.2 -0.1
v -0.4 -0.2 -0.2
v -0.4 -0.1 0.1
v -0.4 -0.1 -0.2
v 0.1 0 0.1
v 0.1 0 0
v 0.1 0.2 0.1
v 0.1 0.2 0
v 0.1 0.3 0.1
v 0.1 0.3 0
v 0.1 0.5 0.1
v 0.1 0.5 0
v 0.1 0.6 0.1
v 0.1 0.6 0
v 0.1 0.7 0.1
v 0.1 0.7 0
v 0.2 -0.7 0.2
v 0.2 -0.7 -0.1
v 0.2 -0.6 0.2
v 0.2 -0.6 0.1
v 0.2 -0.6 0
v 0.2 -0.6 -0.1
v 0.2 -0.5 0.2
v 0.2 -0.5 0.1
v 0.2 -0.5 0
v 0.2 -0.5 -0.1
v 0.2 -0.4 0.2
v 0.2 -0.4 0.1
v 0.2 -0.4 0
v 0.2 -0.4 -0.1
v 0.2 -0.3 0.2
v 0.2 -0.3 0.1
v 0.2 -0.3 0
v 0.2 -0.3 -0.1
v 0.2 -0.2 0.2
v 0.2 -0.2 0.1
v 0.2 -0.2 0
v 0.2 -0.2 -0.1
v 0.2 -0.1 0.2
v 0.2 -0.1 0.1
v 0.2 -0.1 0
v 0.2 -0.1 -0.1
v 0.2 0 0.2
v 0.2 0 -0.1
v 0.7 -0.3 -0.1
v 0.7 -0.3 -0.2
v 0.7 -0.2 -0.1
v 0.7 -0.2 -0.2
v 0.7 -0.1 -0.1
v 0.7 -0.1 -0.2
v 0.8 -0.7 0
v 0.8 -0.7 -0.3
v 0.8 -0.6 0
v 0.8 -0.6 -0.1
v 0.8 -0.5 0
v 0.8 -0.5 -0.1
v 0.8 -0.4 0
v 0.8 -0.4 -0.1
v 0.8 -0.3 0
v 0.8 -0.3 -0.3
v -0.2 -0.7 0.2
v -0.2 -0.6 0.2
v -0.2 -0.5 0.2
v -0.2 -0.4 0.2
v -0.2 -0.3 0.2
v -0.2 -0.2 0.2
v -0.2 -0.1 0.2
v -0.2 0 0.2
v -0.1 -0.6 0.2
v -0.1 -0.5 0.2
v -0.1 -0.4 0.2
v -0.1 -0.3 0.2
v -0.1 -0.2 0.2
v -0.1 -0.1 0.2
v 0.1 -0.6 0.2
v 0.1 -0.5 0.2
v 0.1 -0.4 0.2
v 0.1 -0.3 0.2
v 0.1 -0.2 0.2
v 0.1 -0.1 0.2
v 0.2 -0.7 0.2
v 0.2 -0.6 0.2
v 0.2 -0.5 0.2
v 0.2 -0.4 0.2
v 0.2 -0.3 0.2
v 0.2 -0.2 0.2
v 0.2 -0.1 0.2
v 0.2 0 0.2
v -0.7 -0.7 0.1
v -0.7 -0.5 0.1
v -0.7 -0.4 0.1
v -0.7 -0.3 0.1
v -0.7 -0.2 0.1
v -0.7 -0.1 0.1
v -0.6 -0.5 0.1
v -0.6 -0.4 0.1
v -0.6 -0.3 0.1
v -0.6 -0.2 0.1
v -0.5 -0.5 0.1
v -0.5 -0.4 0.1
v -0.5 -0.3 0.1
v -0.5 -0.2 0.1
v -0.4 -0.7 0.1
v -0.4 -0.5 0.1
v -0.4 -0.4 0.1
v -0.4 -0.3 0.1
v -0.4 -0.2 0.1
v -0.4 -0.1 0.1
v -0.1 0 0.1
v -0.1 0.2 0.1
v -0.1 0.3 0.1
v -0.1 0.5 0.1
v -0.1 0.6 0.1
v -0.1 0.7 0.1
v 0.1 0 0.1
v 0.1 0.2 0.1
v 0.1 0.3 0.1
v 0.1 0.5 0.1
v 0.1 0.6 0.1
v 0.1 0.7 0.1
v -0.6 -0.1 0
v -0.6 0.1 0
v -0.6 0.2 0
v -0.6 0.3 0
v -0.6 0.4 0
v -0.5 -0.1 0
v -0.5 0.1 0
v -0.5 0.2 0
v -0.5 0.3 0
v -0.5 0.4 0
v 0.5 -0.7 0
v 0.5 -0.6 0
v 0.5 -0.5 0
v 0.5 -0.4 0
v 0.5 -0.3 0
v 0.6 -0.5 0
v 0.6 -0.4 0
v 0.7 -0.5 0
v 0.7 -0.4 0
v 0.8 -0.7 0
v 0.8 -0.6 0
v 0.8 -0.5 0
v 0.8 -0.4 0
v 0.8 -0.3 0
v -0.6 -0.6 -0.1
v -0.6 -0.5 -0.1
v -0.5 -0.6 -0.1
v -0.5 -0.5 -0.1
v 0.6 -0.3 -0.1
v 0.6 -0.2 -0.1
v 0.6 -0.1 -0.1
v 0.7 -0.3 -0.1
v 0.7 -0.2 -0.1
v 0.7 -0.1 -0.1
v -0.6 -0.6 0
v -0.6 -0.5 0
v -0.5 -0.6 0
v -0.5 -0.5 0
v -0.1 0 0
v -0.1 0.2 0
v -0.1 0.3 0
v -0.1 0.5 0
v -0.1 0.6 0
v -0.1 0.7 0
v 0.1 0 0
v 0.1 0.2 0
v 0.1 0.3 0
v 0.1 0.5 0
v 0.1 0.6 0
v 0.1 0.7 0
v -0.6 -0.1 -0.1
v -0.6 0.1 -0.1
v -0.6 0.2 -0.1
v -0.6 0.3 -0.1
v -0.6 0.4 -0.1
v -0.5 -0.1 -0.1
v -0.5 0.1 -0.1
v -0.5 0.2 -0.1
v -0.5 0.3 -0.1
v -0.5 0.4 -0.1
v -0.2 -0.7 -0.1
v -0.2 -0.6 -0.1
v -0.2 -0.5 -0.1
v -0.2 -0.4 -0.1
v -0.2 -0.3 -0.1
v -0.2 -0.2 -0.1
v -0.2 -0.1 -0.1
v -0.2 0 -0.1
v -0.1 -0.6 -0.1
v -0.1 -0.5 -0.1
v -0.1 -0.4 -0.1
v -0.1 -0.3 -0.1
v -0.1 -0.2 -0.1
v -0.1 -0.1 -0.1
v 0.1 -0.6 -0.1
v 0.1 -0.5 -0.1
v 0.1 -0.4 -0.1
v 0.1 -0.3 -0.1
v 0.1 -0.2 -0.1
v 0.1 -0.1 -0.1
v 0.2 -0.7 -0.1
v 0.2 -0.6 -0.1
v 0.2 -0.5 -0.1
v 0.2 -0.4 -0.1
v 0.2 -0.3 -0.1
v 0.2 -0.2 -0.1
v 0.2 -0.1 -0.1
v 0.2 0 -0.1
v -0.7 -0.7 -0.2
v -0.7 -0.5 -0.2
v -0.7 -0.4 -0.2
v -0.7 -0.3 -0.2
v -0.7 -0.2 -0.2
v -0.7 -0.1 -0.2
v -0.6 -0.5 -0.2
v -0.6 -0.4 -0.2
v -0.6 -0.3 -0.2
v -0.6 -0.2 -0.2
v -0.5 -0.5 -0.2
v -0.5 -0.4 -0.2
v -0.5 -0.3 -0.2
v -0.5 -0.2 -0.2
v -0.4 -0.7 -0.2
v -0.4 -0.5 -0.2
v -0.4 -0.4 -0.2
v -0.4 -0.3 -0.2
v -0.4 -0.2 -0.2
v -0.4 -0.1 -0.2
v 0.6 -0.3 -0.2
v 0.6 -0.2 -0.2
v 0.6 -0.1 -0.2
v 0.7 -0.3 -0.2
v 0.7 -0.2 -0.2
v 0.7 -0.1 -0.2
v 0.5 -0.7 -0.3
v 0.5 -0.3 -0.3
v 0.6 -0.6 -0.3
v 0.6 -0.4 -0.3
v 0.7 -0.6 -0.3
v 0.7 -0.4 -0.3
v 0.8 -0.7 -0.3
v 0.8 -0.3 -0.3
v -0.2 -0.7 0.2
v 0.2 -0.7 0.2
v -0.7 -0.7 0.1
v -0.4 -0.7 0.1
v 0.5 -0.7 0
v 0.8 -0.7 0
v -0.2 -0.7 -0.1
v 0.2 -0.7 -0.1
v -0.7 -0.7 -0.2
v -0.4 -0.7 -0.2
v 0.5 -0.7 -0.3
v 0.8 -0.7 -0.3
v -0.6 -0.5 0
v -0.5 -0.5 0
v -0.6 -0.5 -0.1
v -0.5 -0.5 -0.1
v -0.6 -0.6 0
v -0.5 -0.6 0
v -0.6 -0.6 -0.1
v -0.5 -0.6 -0.1
v 0.5 -0.3 0
v 0.8 -0.3 0
v 0.6 -0.3 -0.1
v 0.7 -0.3 -0.1
v 0.6 -0.3 -0.2
v 0.7 -0.3 -0.2
v 0.5 -0.3 -0.3
v 0.8 -0.3 -0.3
v -0.7 -0.1 0.1
v -0.4 -0.1 0.1
v -0.6 -0.1 0
v -0.5 -0.1 0
v -0.6 -0.1 -0.1
v -0.5 -0.1 -0.1
v 0.6 -0.1 -0.1
v 0.7 -0.1 -0.1
v -0.7 -0.1 -0.2
v -0.4 -0.1 -0.2
v 0.6 -0.1 -0.2
v 0.7 -0.1 -0.2
v -0.2 0 0.2
v 0.2 0 0.2
v -0.1 0 0.1
v 0.1 0 0.1
v -0.1 0 0
v 0.1 0 0
v -0.2 0 -0.1
v 0.2 0 -0.1
v -0.6 0.4 0
v -0.5 0.4 0
v -0.6 0.4 -0.1
v -0.5 0.4 -0.1
v -0.1 0.7 0.1
v 0.1 0.7 0.1
v -0.1 0.7 0
v 0.1 0.7 0

# faces
f 3/5/1 2/5/1 1/5/1
f 4/5/1 2/5/1 3/5/1
f 5/5/1 2/5/1 4/5/1
f 6/5/1 2/5/1 5/5/1
f 7/6/1 4/6/1 3/6/1
f 8/2/1 5/2/1 4/2/1
f 8/6/1 4/6/1 7/6/1
f 9/6/1 6/6/1 5/6/1
f 9/2/1 5/2/1 8/2/1
f 10/6/1 6/6/1 9/6/1
f 11/2/1 8/2/1 7/2/1
f 11/2/1 9/2/1 8/2/1
f 11/2/1 10/2/1 9/2/1
f 12/2/1 10/2/1 11/2/1
f 13/2/1 10/2/1 12/2/1
f 14/2/1 10/2/1 13/2/1
f 15/6/1 12/6/1 11/6/1
f 16/2/1 13/2/1 12/2/1
f 16/6/1 12/6/1 15/6/1
f 17/6/1 14/6/1 13/6/1
f 17/2/1 13/2/1 16/2/1
f 18/6/1 14/6/1 17/6/1
f 19/5/1 16/5/1 15/5/1
f 19/5/1 17/5/1 16/5/1
f 19/5/1 18/5/1 17/5/1
f 20/5/1 18/5/1 19/5/1
f 23/5/1 22/5/1 21/5/1
f 24/5/1 22/5/1 23/5/1
f 25/4/1 24/4/1 23/4/1
f 26/4/1 24/4/1 25/4/1
f 27/2/1 26/2/1 25/2/1
f 28/2/1 26/2/1 27/2/1
f 29/7/1 28/7/1 27/7/1
f 30/7/1 28/7/1 29/7/1
f 33/5/1 32/5/1 31/5/1
f 34/5/1 32/5/1 33/5/1
f 37/5/1 36/5/1 35/5/1
f 38/5/1 36/5/1 37/5/1
f 39/6/1 38/6/1 37/6/1
f 40/6/1 38/6/1 39/6/1
f 41/3/1 40/3/1 39/3/1
f 42/3/1 40/3/1 41/3/1
f 43/3/1 40/3/1 42/3/1
f 44/3/1 40/3/1 43/3/1
f 45/4/1 42/4/1 41/4/1
f 46/3/1 43/3/1 42/3/1
f 46/4/1 42/4/1 45/4/1
f 47/4/1 44/4/1 43/4/1
f 47/3/1 43/3/1 46/3/1
f 48/4/1 44/4/1 47/4/1
f 49/3/1 46/3/1 45/3/1
f 49/3/1 47/3/1 46/3/1
f 49/3/1 48/3/1 47/3/1
f 50/3/1 48/3/1 49/3/1
f 51/6/1 50/6/1 49/6/1
f 52/6/1 50/6/1 51/6/1
f 53/5/1 52/5/1 51/5/1
f 54/5/1 52/5/1 53/5/1
f 57/5/1 56/5/1 55/5/1
f 58/5/1 56/5/1 57/5/1
f 59/4/1 58/4/1 57/4/1
f 60/4/1 58/4/1 59/4/1
f 61/5/1 60/5/1 59/5/1
f 62/5/1 60/5/1 61/5/1
f 63/2/1 62/2/1 61/2/1
f 64/2/1 62/2/1 63/2/1
f 65/7/1 64/7/1 63/7/1
f 66/7/1 64/7/1 65/7/1
f 69/5/1 68/5/1 67/5/1
f 70/5/1 68/5/1 69/5/1
f 71/2/1 70/2/1 69/2/1
f 72/5/1 68/5/1 70/5/1
f 72/2/1 70/2/1 71/2/1
f 73/3/1 72/3/1 71/3/1
f 74/5/1 68/5/1 72/5/1
f 74/3/1 72/3/1 73/3/1
f 75/5/1 74/5/1 73/5/1
f 76/5/1 68/5/1 74/5/1
f 76/5/1 74/5/1 75/5/1
f 79/5/1 78/5/1 77/5/1
f 80/5/1 78/5/1 79/5/1
f 81/7/1 80/7/1 79/7/1
f 82/7/1 80/7/1 81/7/1
f 83/5/2 84/5/2 85/5/2
f 85/5/2 84/5/2 86/5/2
f 87/5/2 88/5/2 89/5/2
f 89/5/2 88/5/2 90/5/2
f 89/4/2 90/4/2 91/4/2
f 91/4/2 90/4/2 92/4/2
f 91/2/2 92/2/2 93/2/2
f 93/2/2 92/2/2 94/2/2
f 93/7/2 94/7/2 95/7/2
f 95/7/2 94/7/2 96/7/2
f 97/5/2 98/5/2 99/5/2
f 99/5/2 98/5/2 100/5/2
f 100/5/2 98/5/2 101/5/2
f 101/5/2 98/5/2 102/5/2
f 99/6/2 100/6/2 103/6/2
f 100/2/2 101/2/2 104/2/2
f 103/6/2 100/6/2 104/6/2
f 101/6/2 102/6/2 105/6/2
f 104/2/2 101/2/2 105/2/2
f 105/6/2 102/6/2 106/6/2
f 103/2/2 104/2/2 107/2/2
f 104/2/2 105/2/2 107/2/2
f 105/2/2 106/2/2 107/2/2
f 107/2/2 106/2/2 108/2/2
f 108/2/2 106/2/2 109/2/2
f 109/2/2 106/2/2 110/2/2
f 107/6/2 108/6/2 111/6/2
f 108/2/2 109/2/2 112/2/2
f 111/6/2 108/6/2 112/6/2
f 109/6/2 110/6/2 113/6/2
f 112/2/2 109/2/2 113/2/2
f 113/6/2 110/6/2 114/6/2
f 111/5/2 112/5/2 115/5/2
f 112/5/2 113/5/2 115/5/2
f 113/5/2 114/5/2 115/5/2
f 115/5/2 114/5/2 116/5/2
f 117/5/2 118/5/2 119/5/2
f 119/5/2 118/5/2 120/5/2
f 119/4/2 120/4/2 121/4/2
f 121/4/2 120/4/2 122/4/2
f 121/5/2 122/5/2 123/5/2
f 123/5/2 122/5/2 124/5/2
f 123/2/2 124/2/2 125/2/2
f 125/2/2 124/2/2 126/2/2
f 125/7/2 126/7/2 127/7/2
f 127/7/2 126/7/2 128/7/2
f 129/5/2 130/5/2 131/5/2
f 131/5/2 130/5/2 132/5/2
f 132/5/2 130/5/2 133/5/2
f 133/5/2 130/5/2 134/5/2
f 131/6/2 132/6/2 135/6/2
f 132/4/2 133/4/2 136/4/2
f 135/6/2 132/6/2 136/6/2
f 133/6/2 134/6/2 137/6/2
f 136/4/2 133/4/2 137/4/2
f 137/6/2 134/6/2 138/6/2
f 135/3/2 136/3/2 139/3/2
f 136/4/2 137/4/2 140/4/2
f 139/3/2 136/3/2 140/3/2
f 137/3/2 138/3/2 141/3/2
f 140/4/2 137/4/2 141/4/2
f 141/3/2 138/3/2 142/3/2
f 139/4/2 140/4/2 143/4/2
f 140/2/2 141/2/2 144/2/2
f 143/4/2 140/4/2 144/4/2
f 141/4/2 142/4/2 145/4/2
f 144/2/2 141/2/2 145/2/2
f 145/4/2 142/4/2 146/4/2
f 143/3/2 144/3/2 147/3/2
f 144/4/2 145/4/2 148/4/2
f 147/3/2 144/3/2 148/3/2
f 145/3/2 146/3/2 149/3/2
f 148/4/2 145/4/2 149/4/2
f 149/3/2 146/3/2 150/3/2
f 147/6/2 148/6/2 151/6/2
f 148/4/2 149/4/2 152/4/2
f 151/6/2 148/6/2 152/6/2
f 149/6/2 150/6/2 153/6/2
f 152/4/2 149/4/2 153/4/2
f 153/6/2 150/6/2 154/6/2
f 151/5/2 152/5/2 155/5/2
f 152/5/2 153/5/2 155/5/2
f 153/5/2 154/5/2 155/5/2
f 155/5/2 154/5/2 156/5/2
f 157/5/2 158/5/2 159/5/2
f 159/5/2 158/5/2 160/5/2
f 159/7/2 160/7/2 161/7/2
f 161/7/2 160/7/2 162/7/2
f 163/5/2 164/5/2 165/5/2
f 165/5/2 164/5/2 166/5/2
f 165/2/2 166/2/2 167/2/2
f 166/5/2 164/5/2 168/5/2
f 167/2/2 166/2/2 168/2/2
f 167/3/2 168/3/2 169/3/2
f 168/5/2 164/5/2 170/5/2
f 169/3/2 168/3/2 170/3/2
f 169/5/2 170/5/2 171/5/2
f 170/5/2 164/5/2 172/5/2
f 171/5/2 170/5/2 172/5/2
f 181/5/3 174/5/3 173/5/3
f 181/6/3 175/6/3 174/6/3
f 182/3/3 176/3/3 175/3/3
f 182/6/3 175/6/3 181/6/3
f 183/4/3 177/4/3 176/4/3
f 183/3/3 176/3/3 182/3/3
f 184/3/3 178/3/3 177/3/3
f 184/4/3 177/4/3 183/4/3
f 185/6/3 179/6/3 178/6/3
f 185/3/3 178/3/3 184/3/3
f 186/5/3 180/5/3 179/5/3
f 186/6/3 179/6/3 185/6/3
f 187/5/3 181/5/3 173/5/3
f 187/4/3 182/4/3 181/4/3
f 187/4/3 183/4/3 182/4/3
f 188/4/3 183/4/3 187/4/3
f 189/2/3 184/2/3 183/2/3
f 189/4/3 183/4/3 188/4/3
f 190/4/3 185/4/3 184/4/3
f 190/2/3 184/2/3 189/2/3
f 190/4/3 186/4/3 185/4/3
f 191/4/3 186/4/3 190/4/3
f 192/5/3 180/5/3 186/5/3
f 192/4/3 186/4/3 191/4/3
f 193/5/3 187/5/3 173/5/3
f 194/6/3 188/6/3 187/6/3
f 194/5/3 187/5/3 193/5/3
f 195/3/3 189/3/3 188/3/3
f 195/6/3 188/6/3 194/6/3
f 196/4/3 190/4/3 189/4/3
f 196/3/3 189/3/3 195/3/3
f 197/3/3 191/3/3 190/3/3
f 197/4/3 190/4/3 196/4/3
f 198/6/3 192/6/3 191/6/3
f 198/3/3 191/3/3 197/3/3
f 199/5/3 180/5/3 192/5/3
f 199/6/3 192/6/3 198/6/3
f 200/5/3 180/5/3 199/5/3
f 207/5/3 202/5/3 201/5/3
f 207/6/3 203/6/3 202/6/3
f 208/2/3 204/2/3 203/2/3
f 208/6/3 203/6/3 207/6/3
f 209/6/3 205/6/3 204/6/3
f 209/2/3 204/2/3 208/2/3
f 210/5/3 206/5/3 205/5/3
f 210/6/3 205/6/3 209/6/3
f 211/2/3 209/2/3 208/2/3
f 211/2/3 208/2/3 207/2/3
f 211/2/3 210/2/3 209/2/3
f 211/5/3 207/5/3 201/5/3
f 212/2/3 210/2/3 211/2/3
f 213/2/3 210/2/3 212/2/3
f 214/5/3 206/5/3 210/5/3
f 214/2/3 210/2/3 213/2/3
f 215/5/3 211/5/3 201/5/3
f 216/6/3 212/6/3 211/6/3
f 216/5/3 211/5/3 215/5/3
f 217/2/3 213/2/3 212/2/3
f 217/6/3 212/6/3 216/6/3
f 218/6/3 214/6/3 213/6/3
f 218/2/3 213/2/3 217/2/3
f 219/5/3 206/5/3 214/5/3
f 219/6/3 214/6/3 218/6/3
f 220/5/3 206/5/3 219/5/3
f 227/5/3 222/5/3 221/5/3
f 228/4/3 223/4/3 222/4/3
f 228/5/3 222/5/3 227/5/3
f 229/5/3 224/5/3 223/5/3
f 229/4/3 223/4/3 228/4/3
f 230/2/3 225/2/3 224/2/3
f 230/5/3 224/5/3 229/5/3
f 231/7/3 226/7/3 225/7/3
f 231/2/3 225/2/3 230/2/3
f 232/7/3 226/7/3 231/7/3
f 238/5/3 234/5/3 233/5/3
f 239/4/3 235/4/3 234/4/3
f 239/5/3 234/5/3 238/5/3
f 240/2/3 236/2/3 235/2/3
f 240/4/3 235/4/3 239/4/3
f 241/7/3 237/7/3 236/7/3
f 241/2/3 236/2/3 240/2/3
f 242/7/3 237/7/3 241/7/3
f 248/2/3 245/2/3 244/2/3
f 248/3/3 246/3/3 245/3/3
f 249/5/3 247/5/3 246/5/3
f 249/3/3 246/3/3 248/3/3
f 250/2/3 248/2/3 244/2/3
f 250/4/3 249/4/3 248/4/3
f 251/5/3 247/5/3 249/5/3
f 251/4/3 249/4/3 250/4/3
f 252/5/3 244/5/3 243/5/3
f 253/2/3 250/2/3 244/2/3
f 253/5/3 244/5/3 252/5/3
f 254/3/3 251/3/3 250/3/3
f 254/2/3 250/2/3 253/2/3
f 255/5/3 247/5/3 251/5/3
f 255/3/3 251/3/3 254/3/3
f 256/5/3 247/5/3 255/5/3
f 259/5/3 258/5/3 257/5/3
f 260/5/3 258/5/3 259/5/3
f 264/5/3 262/5/3 261/5/3
f 265/7/3 263/7/3 262/7/3
f 265/5/3 262/5/3 264/5/3
f 266/7/3 263/7/3 265/7/3
f 267/5/4 268/5/4 269/5/4
f 269/5/4 268/5/4 270/5/4
f 271/5/4 272/5/4 277/5/4
f 272/4/4 273/4/4 278/4/4
f 277/5/4 272/5/4 278/5/4
f 273/5/4 274/5/4 279/5/4
f 278/4/4 273/4/4 279/4/4
f 274/2/4 275/2/4 280/2/4
f 279/5/4 274/5/4 280/5/4
f 275/7/4 276/7/4 281/7/4
f 280/2/4 275/2/4 281/2/4
f 281/7/4 276/7/4 282/7/4
f 283/5/4 284/5/4 288/5/4
f 284/4/4 285/4/4 289/4/4
f 288/5/4 284/5/4 289/5/4
f 285/2/4 286/2/4 290/2/4
f 289/4/4 285/4/4 290/4/4
f 286/7/4 287/7/4 291/7/4
f 290/2/4 286/2/4 291/2/4
f 291/7/4 287/7/4 292/7/4
f 293/5/4 294/5/4 301/5/4
f 294/6/4 295/6/4 301/6/4
f 295/3/4 296/3/4 302/3/4
f 301/6/4 295/6/4 302/6/4
f 296/4/4 297/4/4 303/4/4
f 302/3/4 296/3/4 303/3/4
f 297/3/4 298/3/4 304/3/4
f 303/4/4 297/4/4 304/4/4
f 298/6/4 299/6/4 305/6/4
f 304/3/4 298/3/4 305/3/4
f 299/5/4 300/5/4 306/5/4
f 305/6/4 299/6/4 306/6/4
f 293/5/4 301/5/4 307/5/4
f 301/4/4 302/4/4 307/4/4
f 302/4/4 303/4/4 307/4/4
f 307/4/4 303/4/4 308/4/4
f 303/2/4 304/2/4 309/2/4
f 308/4/4 303/4/4 309/4/4
f 304/4/4 305/4/4 310/4/4
f 309/2/4 304/2/4 310/2/4
f 305/4/4 306/4/4 310/4/4
f 310/4/4 306/4/4 311/4/4
f 306/5/4 300/5/4 312/5/4
f 311/4/4 306/4/4 312/4/4
f 293/5/4 307/5/4 313/5/4
f 307/6/4 308/6/4 314/6/4
f 313/5/4 307/5/4 314/5/4
f 308/3/4 309/3/4 315/3/4
f 314/6/4 308/6/4 315/6/4
f 309/4/4 310/4/4 316/4/4
f 315/3/4 309/3/4 316/3/4
f 310/3/4 311/3/4 317/3/4
f 316/4/4 310/4/4 317/4/4
f 311/6/4 312/6/4 318/6/4
f 317/3/4 311/3/4 318/3/4
f 312/5/4 300/5/4 319/5/4
f 318/6/4 312/6/4 319/6/4
f 319/5/4 300/5/4 320/5/4
f 321/5/4 322/5/4 327/5/4
f 322/6/4 323/6/4 327/6/4
f 323/2/4 324/2/4 328/2/4
f 327/6/4 323/6/4 328/6/4
f 324/6/4 325/6/4 329/6/4
f 328/2/4 324/2/4 329/2/4
f 325/5/4 326/5/4 330/5/4
f 329/6/4 325/6/4 330/6/4
f 328/2/4 329/2/4 331/2/4
f 327/2/4 328/2/4 331/2/4
f 329/2/4 330/2/4 331/2/4
f 321/5/4 327/5/4 331/5/4
f 331/2/4 330/2/4 332/2/4
f 332/2/4 330/2/4 333/2/4
f 330/5/4 326/5/4 334/5/4
f 333/2/4 330/2/4 334/2/4
f 321/5/4 331/5/4 335/5/4
f 331/6/4 332/6/4 336/6/4
f 335/5/4 331/5/4 336/5/4
f 332/2/4 333/2/4 337/2/4
f 336/6/4 332/6/4 337/6/4
f 333/6/4 334/6/4 338/6/4
f 337/2/4 333/2/4 338/2/4
f 334/5/4 326/5/4 339/5/4
f 338/6/4 334/6/4 339/6/4
f 339/5/4 326/5/4 340/5/4
f 341/5/4 342/5/4 344/5/4
f 342/7/4 343/7/4 345/7/4
f 344/5/4 342/5/4 345/5/4
f 345/7/4 343/7/4 346/7/4
f 347/5/4 348/5/4 349/5/4
f 349/5/4 348/5/4 350/5/4
f 347/5/4 349/5/4 351/5/4
f 349/2/4 350/2/4 351/2/4
f 350/5/4 348/5/4 352/5/4
f 351/2/4 350/2/4 352/2/4
f 347/5/4 351/5/4 353/5/4
f 351/5/4 352/5/4 353/5/4
f 352/5/4 348/5/4 354/5/4
f 353/5/4 352/5/4 354/5/4
f 361/5/5 356/5/5 355/5/5
f 362/5/5 356/5/5 361/5/5
f 363/5/5 358/5/5 357/5/5
f 364/5/5 358/5/5 363/5/5
f 365/5/5 360/5/5 359/5/5
f 366/5/5 360/5/5 365/5/5
f 369/1/5 368/1/5 367/1/5
f 370/1/5 368/1/5 369/1/5
f 371/5/6 372/5/6 373/5/6
f 373/5/6 372/5/6 374/5/6
f 375/5/6 376/5/6 377/5/6
f 377/5/6 376/5/6 378/5/6
f 375/5/6 377/5/6 379/5/6
f 378/5/6 376/5/6 380/5/6
f 375/5/6 379/5/6 381/5/6
f 379/5/6 380/5/6 381/5/6
f 380/5/6 376/5/6 382/5/6
f 381/5/6 380/5/6 382/5/6
f 383/5/6 384/5/6 385/5/6
f 385/5/6 384/5/6 386/5/6
f 383/5/6 385/5/6 387/5/6
f 386/5/6 384/5/6 388/5/6
f 383/5/6 387/5/6 391/5/6
f 387/5/6 388/5/6 391/5/6
f 388/5/6 384/5/6 392/5/6
f 391/5/6 388/5/6 392/5/6
f 389/7/6 390/7/6 393/7/6
f 393/7/6 390/7/6 394/7/6
f 395/5/6 396/5/6 397/5/6
f 397/5/6 396/5/6 398/5/6
f 395/5/6 397/5/6 399/5/6
f 398/5/6 396/5/6 400/5/6
f 395/5/6 399/5/6 401/5/6
f 399/5/6 400/5/6 401/5/6
f 400/5/6 396/5/6 402/5/6
f 401/5/6 400/5/6 402/5/6
f 403/7/6 404/7/6 405/7/6
f 405/7/6 404/7/6 406/7/6
f 407/7/6 408/7/6 409/7/6
f 409/7/6 408/7/6 410/7/6
