# MagicaVoxel @ Ephtracy

# group
o 

# material
mtllib Mug and bottles-0.mtl
usemtl palette

# normals
vn -1 0 0
vn 1 0 0
vn 0 0 1
vn 0 0 -1
vn 0 -1 0
vn 0 1 0

# texcoords
vt 0.0175781 0.5
vt 0.0605469 0.5
vt 0.283203 0.5
vt 0.302734 0.5

# verts
v -0.1 -0.1 0.2
v -0.1 -0.1 0.1
v -0.1 -0.1 -0.1
v -0.1 -0.1 -0.2
v -0.1 -5.96046e-08 0
v -0.1 -5.96046e-08 -0.1
v -0.1 -5.96046e-08 -0.2
v -0.1 -5.96046e-08 -0.3
v -0.1 0.1 0
v -0.1 0.1 -0.3
v -0.1 0.2 0.2
v -0.1 0.2 0.1
v -0.1 0.4 0
v -0.1 0.4 -0.3
v -0.1 0.5 -0.1
v -0.1 0.5 -0.2
v -0.1 0.6 -0.1
v -0.1 0.6 -0.2
v -0.1 0.7 0
v -0.1 0.7 -0.1
v -0.1 0.7 -0.2
v -0.1 0.7 -0.3
v 0 -0.6 -0.1
v 0 -0.6 -0.2
v 0 -0.1 0
v 0 -0.1 -0.1
v 0 -0.1 -0.2
v 0 -0.1 -0.3
v 0 -5.96046e-08 0.1
v 0 -5.96046e-08 0
v 0 -5.96046e-08 -0.1
v 0 -5.96046e-08 -0.2
v 0 -5.96046e-08 -0.3
v 0 0.1 0.1
v 0 0.1 0
v 0 0.1 -0.1
v 0 0.1 -0.2
v 0 0.3 -0.1
v 0 0.3 -0.2
v 0 0.4 -0.1
v 0 0.4 -0.2
v 0.1 0.5 -0.1
v 0.1 0.5 -0.2
v 0.1 0.6 0
v 0.1 0.6 -0.1
v 0.1 0.6 -0.2
v 0.1 0.6 -0.3
v 0.1 0.7 0
v 0.1 0.7 -0.1
v 0.1 0.7 -0.2
v 0.1 0.7 -0.3
v 0 0.5 -0.1
v 0 0.5 -0.2
v 0 0.6 0
v 0 0.6 -0.1
v 0 0.6 -0.2
v 0 0.6 -0.3
v 0 0.7 0
v 0 0.7 -0.1
v 0 0.7 -0.2
v 0 0.7 -0.3
v 0.1 -0.6 -0.1
v 0.1 -0.6 -0.2
v 0.1 -0.1 0
v 0.1 -0.1 -0.1
v 0.1 -0.1 -0.2
v 0.1 -0.1 -0.3
v 0.1 -5.96046e-08 0.1
v 0.1 -5.96046e-08 0
v 0.1 -5.96046e-08 -0.1
v 0.1 -5.96046e-08 -0.2
v 0.1 -5.96046e-08 -0.3
v 0.1 0.1 0.1
v 0.1 0.1 0
v 0.1 0.1 -0.1
v 0.1 0.1 -0.2
v 0.1 0.3 -0.1
v 0.1 0.3 -0.2
v 0.1 0.4 -0.1
v 0.1 0.4 -0.2
v 0.2 -0.1 0.2
v 0.2 -0.1 0.1
v 0.2 -0.1 -0.1
v 0.2 -0.1 -0.2
v 0.2 -5.96046e-08 0
v 0.2 -5.96046e-08 -0.1
v 0.2 -5.96046e-08 -0.2
v 0.2 -5.96046e-08 -0.3
v 0.2 0.1 0
v 0.2 0.1 -0.3
v 0.2 0.2 0.2
v 0.2 0.2 0.1
v 0.2 0.4 0
v 0.2 0.4 -0.3
v 0.2 0.5 -0.1
v 0.2 0.5 -0.2
v 0.2 0.6 -0.1
v 0.2 0.6 -0.2
v 0.2 0.7 0
v 0.2 0.7 -0.1
v 0.2 0.7 -0.2
v 0.2 0.7 -0.3
v -0.1 -0.1 0.2
v -0.1 0.2 0.2
v 0.2 -0.1 0.2
v 0.2 0.2 0.2
v -0.1 -5.96046e-08 0
v -0.1 0.1 0
v -0.1 0.4 0
v -0.1 0.7 0
v 0 -0.1 0
v 0 -5.96046e-08 0
v 0 0.1 0
v 0 0.5 0
v 0 0.6 0
v 0 0.7 0
v 0.1 -0.1 0
v 0.1 -5.96046e-08 0
v 0.1 0.1 0
v 0.1 0.5 0
v 0.1 0.6 0
v 0.1 0.7 0
v 0.2 -5.96046e-08 0
v 0.2 0.1 0
v 0.2 0.4 0
v 0.2 0.7 0
v -0.1 -0.1 -0.1
v -0.1 -5.96046e-08 -0.1
v 0 -0.6 -0.1
v 0 -0.1 -0.1
v 0 -5.96046e-08 -0.1
v 0 0.1 -0.1
v 0 0.3 -0.1
v 0 0.4 -0.1
v 0.1 -0.6 -0.1
v 0.1 -0.1 -0.1
v 0.1 -5.96046e-08 -0.1
v 0.1 0.1 -0.1
v 0.1 0.3 -0.1
v 0.1 0.4 -0.1
v 0.2 -0.1 -0.1
v 0.2 -5.96046e-08 -0.1
v -0.1 0.6 -0.2
v -0.1 0.7 -0.2
v 0 0.5 -0.2
v 0 0.6 -0.2
v 0 0.7 -0.2
v 0.1 0.5 -0.2
v 0.1 0.6 -0.2
v 0.1 0.7 -0.2
v 0.2 0.6 -0.2
v 0.2 0.7 -0.2
v -0.1 -0.1 0.1
v -0.1 0.2 0.1
v 0 -5.96046e-08 0.1
v 0 0.1 0.1
v 0.1 -5.96046e-08 0.1
v 0.1 0.1 0.1
v 0.2 -0.1 0.1
v 0.2 0.2 0.1
v -0.1 0.6 -0.1
v -0.1 0.7 -0.1
v 0 0.5 -0.1
v 0 0.6 -0.1
v 0 0.7 -0.1
v 0.1 0.5 -0.1
v 0.1 0.6 -0.1
v 0.1 0.7 -0.1
v 0.2 0.6 -0.1
v 0.2 0.7 -0.1
v -0.1 -0.1 -0.2
v -0.1 -5.96046e-08 -0.2
v 0 -0.6 -0.2
v 0 -0.1 -0.2
v 0 -5.96046e-08 -0.2
v 0 0.1 -0.2
v 0 0.3 -0.2
v 0 0.4 -0.2
v 0.1 -0.6 -0.2
v 0.1 -0.1 -0.2
v 0.1 -5.96046e-08 -0.2
v 0.1 0.1 -0.2
v 0.1 0.3 -0.2
v 0.1 0.4 -0.2
v 0.2 -0.1 -0.2
v 0.2 -5.96046e-08 -0.2
v -0.1 -5.96046e-08 -0.3
v -0.1 0.1 -0.3
v -0.1 0.4 -0.3
v -0.1 0.7 -0.3
v 0 -0.1 -0.3
v 0 -5.96046e-08 -0.3
v 0 0.5 -0.3
v 0 0.6 -0.3
v 0 0.7 -0.3
v 0.1 -0.1 -0.3
v 0.1 -5.96046e-08 -0.3
v 0.1 0.5 -0.3
v 0.1 0.6 -0.3
v 0.1 0.7 -0.3
v 0.2 -5.96046e-08 -0.3
v 0.2 0.1 -0.3
v 0.2 0.4 -0.3
v 0.2 0.7 -0.3
v 0 -0.6 -0.1
v 0.1 -0.6 -0.1
v 0 -0.6 -0.2
v 0.1 -0.6 -0.2
v -0.1 -0.1 0.2
v 0.2 -0.1 0.2
v -0.1 -0.1 0.1
v 0.2 -0.1 0.1
v 0 -0.1 0
v 0.1 -0.1 0
v -0.1 -0.1 -0.1
v 0 -0.1 -0.1
v 0.1 -0.1 -0.1
v 0.2 -0.1 -0.1
v -0.1 -0.1 -0.2
v 0 -0.1 -0.2
v 0.1 -0.1 -0.2
v 0.2 -0.1 -0.2
v 0 -0.1 -0.3
v 0.1 -0.1 -0.3
v 0 -5.96046e-08 0.1
v 0.1 -5.96046e-08 0.1
v -0.1 -5.96046e-08 0
v 0 -5.96046e-08 0
v 0.1 -5.96046e-08 0
v 0.2 -5.96046e-08 0
v -0.1 -5.96046e-08 -0.1
v 0 -5.96046e-08 -0.1
v 0.1 -5.96046e-08 -0.1
v 0.2 -5.96046e-08 -0.1
v -0.1 -5.96046e-08 -0.2
v 0 -5.96046e-08 -0.2
v 0.1 -5.96046e-08 -0.2
v 0.2 -5.96046e-08 -0.2
v -0.1 -5.96046e-08 -0.3
v 0 -5.96046e-08 -0.3
v 0.1 -5.96046e-08 -0.3
v 0.2 -5.96046e-08 -0.3
v -0.1 0.4 0
v 0.2 0.4 0
v 0 0.4 -0.1
v 0.1 0.4 -0.1
v 0 0.4 -0.2
v 0.1 0.4 -0.2
v -0.1 0.4 -0.3
v 0.2 0.4 -0.3
v 0 0.1 0.1
v 0.1 0.1 0.1
v -0.1 0.1 0
v 0 0.1 0
v 0.1 0.1 0
v 0.2 0.1 0
v 0 0.1 -0.1
v 0.1 0.1 -0.1
v 0 0.1 -0.2
v 0.1 0.1 -0.2
v -0.1 0.1 -0.3
v 0.2 0.1 -0.3
v -0.1 0.2 0.2
v 0.2 0.2 0.2
v -0.1 0.2 0.1
v 0.2 0.2 0.1
v 0 0.5 -0.1
v 0.1 0.5 -0.1
v 0 0.5 -0.2
v 0.1 0.5 -0.2
v 0 0.6 0
v 0.1 0.6 0
v -0.1 0.6 -0.1
v 0 0.6 -0.1
v 0.1 0.6 -0.1
v 0.2 0.6 -0.1
v -0.1 0.6 -0.2
v 0 0.6 -0.2
v 0.1 0.6 -0.2
v 0.2 0.6 -0.2
v 0 0.6 -0.3
v 0.1 0.6 -0.3
v -0.1 0.7 0
v 0 0.7 0
v 0.1 0.7 0
v 0.2 0.7 0
v -0.1 0.7 -0.1
v 0 0.7 -0.1
v 0.1 0.7 -0.1
v 0.2 0.7 -0.1
v -0.1 0.7 -0.2
v 0 0.7 -0.2
v 0.1 0.7 -0.2
v 0.2 0.7 -0.2
v -0.1 0.7 -0.3
v 0 0.7 -0.3
v 0.1 0.7 -0.3
v 0.2 0.7 -0.3

# faces
f 6/4/1 4/4/1 3/4/1
f 7/4/1 4/4/1 6/4/1
f 9/3/1 6/3/1 5/3/1
f 9/3/1 8/3/1 7/3/1
f 9/3/1 7/3/1 6/3/1
f 10/3/1 8/3/1 9/3/1
f 11/3/1 2/3/1 1/3/1
f 12/3/1 2/3/1 11/3/1
f 15/3/1 14/3/1 13/3/1
f 16/3/1 14/3/1 15/3/1
f 17/3/1 15/3/1 13/3/1
f 17/4/1 16/4/1 15/4/1
f 18/3/1 14/3/1 16/3/1
f 18/4/1 16/4/1 17/4/1
f 19/3/1 17/3/1 13/3/1
f 20/3/1 17/3/1 19/3/1
f 21/3/1 14/3/1 18/3/1
f 22/3/1 14/3/1 21/3/1
f 26/2/1 24/2/1 23/2/1
f 27/2/1 24/2/1 26/2/1
f 30/4/1 26/4/1 25/4/1
f 31/4/1 26/4/1 30/4/1
f 32/4/1 28/4/1 27/4/1
f 33/4/1 28/4/1 32/4/1
f 34/4/1 30/4/1 29/4/1
f 35/4/1 30/4/1 34/4/1
f 38/2/1 37/2/1 36/2/1
f 39/2/1 37/2/1 38/2/1
f 40/1/1 39/1/1 38/1/1
f 41/1/1 39/1/1 40/1/1
f 45/4/1 43/4/1 42/4/1
f 46/4/1 43/4/1 45/4/1
f 48/3/1 45/3/1 44/3/1
f 49/3/1 45/3/1 48/3/1
f 50/3/1 47/3/1 46/3/1
f 51/3/1 47/3/1 50/3/1
f 52/4/2 53/4/2 55/4/2
f 55/4/2 53/4/2 56/4/2
f 54/3/2 55/3/2 58/3/2
f 58/3/2 55/3/2 59/3/2
f 56/3/2 57/3/2 60/3/2
f 60/3/2 57/3/2 61/3/2
f 62/2/2 63/2/2 65/2/2
f 65/2/2 63/2/2 66/2/2
f 64/4/2 65/4/2 69/4/2
f 69/4/2 65/4/2 70/4/2
f 66/4/2 67/4/2 71/4/2
f 71/4/2 67/4/2 72/4/2
f 68/4/2 69/4/2 73/4/2
f 73/4/2 69/4/2 74/4/2
f 75/2/2 76/2/2 77/2/2
f 77/2/2 76/2/2 78/2/2
f 77/1/2 78/1/2 79/1/2
f 79/1/2 78/1/2 80/1/2
f 83/4/2 84/4/2 86/4/2
f 86/4/2 84/4/2 87/4/2
f 85/3/2 86/3/2 89/3/2
f 87/3/2 88/3/2 89/3/2
f 86/3/2 87/3/2 89/3/2
f 89/3/2 88/3/2 90/3/2
f 81/3/2 82/3/2 91/3/2
f 91/3/2 82/3/2 92/3/2
f 93/3/2 94/3/2 95/3/2
f 95/3/2 94/3/2 96/3/2
f 93/3/2 95/3/2 97/3/2
f 95/4/2 96/4/2 97/4/2
f 96/3/2 94/3/2 98/3/2
f 97/4/2 96/4/2 98/4/2
f 93/3/2 97/3/2 99/3/2
f 99/3/2 97/3/2 100/3/2
f 98/3/2 94/3/2 101/3/2
f 101/3/2 94/3/2 102/3/2
f 105/3/3 104/3/3 103/3/3
f 106/3/3 104/3/3 105/3/3
f 112/3/3 108/3/3 107/3/3
f 113/3/3 108/3/3 112/3/3
f 114/3/3 110/3/3 109/3/3
f 115/3/3 110/3/3 114/3/3
f 116/3/3 110/3/3 115/3/3
f 117/4/3 112/4/3 111/4/3
f 118/4/3 112/4/3 117/4/3
f 120/4/3 115/4/3 114/4/3
f 120/3/3 114/3/3 109/3/3
f 121/4/3 115/4/3 120/4/3
f 123/3/3 119/3/3 118/3/3
f 124/3/3 119/3/3 123/3/3
f 125/3/3 122/3/3 121/3/3
f 125/3/3 121/3/3 120/3/3
f 125/3/3 120/3/3 109/3/3
f 126/3/3 122/3/3 125/3/3
f 130/4/3 128/4/3 127/4/3
f 131/4/3 128/4/3 130/4/3
f 135/2/3 130/2/3 129/2/3
f 136/2/3 130/2/3 135/2/3
f 138/2/3 133/2/3 132/2/3
f 139/1/3 134/1/3 133/1/3
f 139/2/3 133/2/3 138/2/3
f 140/1/3 134/1/3 139/1/3
f 141/4/3 137/4/3 136/4/3
f 142/4/3 137/4/3 141/4/3
f 146/3/3 144/3/3 143/3/3
f 147/3/3 144/3/3 146/3/3
f 148/4/3 146/4/3 145/4/3
f 149/4/3 146/4/3 148/4/3
f 151/3/3 150/3/3 149/3/3
f 152/3/3 150/3/3 151/3/3
f 153/3/4 154/3/4 155/3/4
f 155/3/4 154/3/4 156/3/4
f 153/3/4 155/3/4 157/3/4
f 156/3/4 154/3/4 158/3/4
f 153/3/4 157/3/4 159/3/4
f 157/3/4 158/3/4 159/3/4
f 158/3/4 154/3/4 160/3/4
f 159/3/4 158/3/4 160/3/4
f 161/3/4 162/3/4 164/3/4
f 164/3/4 162/3/4 165/3/4
f 163/4/4 164/4/4 166/4/4
f 166/4/4 164/4/4 167/4/4
f 167/3/4 168/3/4 169/3/4
f 169/3/4 168/3/4 170/3/4
f 171/4/4 172/4/4 174/4/4
f 174/4/4 172/4/4 175/4/4
f 173/2/4 174/2/4 179/2/4
f 179/2/4 174/2/4 180/2/4
f 176/2/4 177/2/4 182/2/4
f 177/1/4 178/1/4 183/1/4
f 182/2/4 177/2/4 183/2/4
f 183/1/4 178/1/4 184/1/4
f 180/4/4 181/4/4 185/4/4
f 185/4/4 181/4/4 186/4/4
f 187/3/4 188/3/4 192/3/4
f 189/3/4 190/3/4 193/3/4
f 193/3/4 190/3/4 194/3/4
f 194/3/4 190/3/4 195/3/4
f 191/4/4 192/4/4 196/4/4
f 192/3/4 188/3/4 197/3/4
f 196/4/4 192/4/4 197/4/4
f 189/3/4 193/3/4 198/3/4
f 193/4/4 194/4/4 198/4/4
f 198/4/4 194/4/4 199/4/4
f 197/3/4 188/3/4 201/3/4
f 201/3/4 188/3/4 202/3/4
f 199/3/4 200/3/4 203/3/4
f 198/3/4 199/3/4 203/3/4
f 189/3/4 198/3/4 203/3/4
f 203/3/4 200/3/4 204/3/4
f 207/2/5 206/2/5 205/2/5
f 208/2/5 206/2/5 207/2/5
f 211/3/5 210/3/5 209/3/5
f 212/3/5 210/3/5 211/3/5
f 216/4/5 214/4/5 213/4/5
f 217/4/5 214/4/5 216/4/5
f 219/4/5 216/4/5 215/4/5
f 220/4/5 216/4/5 219/4/5
f 221/4/5 218/4/5 217/4/5
f 222/4/5 218/4/5 221/4/5
f 223/4/5 221/4/5 220/4/5
f 224/4/5 221/4/5 223/4/5
f 228/4/5 226/4/5 225/4/5
f 229/4/5 226/4/5 228/4/5
f 231/3/5 228/3/5 227/3/5
f 232/3/5 228/3/5 231/3/5
f 233/3/5 230/3/5 229/3/5
f 234/3/5 230/3/5 233/3/5
f 239/3/5 236/3/5 235/3/5
f 240/3/5 236/3/5 239/3/5
f 241/3/5 238/3/5 237/3/5
f 242/3/5 238/3/5 241/3/5
f 245/3/5 244/3/5 243/3/5
f 246/3/5 244/3/5 245/3/5
f 247/3/5 245/3/5 243/3/5
f 248/3/5 244/3/5 246/3/5
f 249/3/5 247/3/5 243/3/5
f 249/3/5 248/3/5 247/3/5
f 250/3/5 244/3/5 248/3/5
f 250/3/5 248/3/5 249/3/5
f 251/4/6 252/4/6 254/4/6
f 254/4/6 252/4/6 255/4/6
f 253/3/6 254/3/6 257/3/6
f 255/3/6 256/3/6 257/3/6
f 254/3/6 255/3/6 257/3/6
f 257/3/6 256/3/6 258/3/6
f 253/3/6 257/3/6 259/3/6
f 258/3/6 256/3/6 260/3/6
f 253/3/6 259/3/6 261/3/6
f 259/3/6 260/3/6 261/3/6
f 260/3/6 256/3/6 262/3/6
f 261/3/6 260/3/6 262/3/6
f 263/3/6 264/3/6 265/3/6
f 265/3/6 264/3/6 266/3/6
f 267/4/6 268/4/6 269/4/6
f 269/4/6 268/4/6 270/4/6
f 271/4/6 272/4/6 274/4/6
f 274/4/6 272/4/6 275/4/6
f 273/4/6 274/4/6 277/4/6
f 277/4/6 274/4/6 278/4/6
f 275/4/6 276/4/6 279/4/6
f 279/4/6 276/4/6 280/4/6
f 278/4/6 279/4/6 281/4/6
f 281/4/6 279/4/6 282/4/6
f 283/3/6 284/3/6 287/3/6
f 287/3/6 284/3/6 288/3/6
f 285/3/6 286/3/6 289/3/6
f 289/3/6 286/3/6 290/3/6
f 291/3/6 292/3/6 295/3/6
f 295/3/6 292/3/6 296/3/6
f 293/3/6 294/3/6 297/3/6
f 297/3/6 294/3/6 298/3/6
