# MagicaVoxel @ Ephtracy

# group
o 

# material
mtllib Windows-1.mtl
usemtl palette

# normals
vn -1 0 0
vn 1 0 0
vn 0 0 1
vn 0 0 -1
vn 0 -1 0
vn 0 1 0

# texcoords
vt 0.212891 0.5
vt 0.216797 0.5
vt 0.220703 0.5
vt 0.224609 0.5
vt 0.232422 0.5

# verts
v -0.5 -0.5 0
v -0.5 -0.5 -0.1
v -0.5 0.6 0
v -0.5 0.6 -0.1
v 0.6 -0.5 0
v 0.6 -0.5 -0.1
v 0.6 0.6 0
v 0.6 0.6 -0.1
v -0.5 -0.5 0
v -0.5 0.6 0
v -0.4 -0.4 0
v -0.4 0 0
v -0.4 0.1 0
v -0.4 0.5 0
v -0.3 -0.2 0
v -0.3 -0.1 0
v -0.3 0 0
v -0.3 0.1 0
v -0.3 0.2 0
v -0.3 0.3 0
v -0.2 -0.3 0
v -0.2 -0.2 0
v -0.2 -0.1 0
v -0.2 0 0
v -0.2 0.1 0
v -0.2 0.2 0
v -0.2 0.3 0
v -0.2 0.4 0
v -0.1 -0.3 0
v -0.1 -0.2 0
v -0.1 -0.1 0
v -0.1 0 0
v -0.1 0.1 0
v -0.1 0.2 0
v -0.1 0.3 0
v -0.1 0.4 0
v 0 -0.4 0
v 0 -0.3 0
v 0 -0.2 0
v 0 -0.1 0
v 0 0.2 0
v 0 0.3 0
v 0 0.4 0
v 0 0.5 0
v 0.1 -0.4 0
v 0.1 -0.3 0
v 0.1 -0.2 0
v 0.1 -0.1 0
v 0.1 0.2 0
v 0.1 0.3 0
v 0.1 0.4 0
v 0.1 0.5 0
v 0.2 -0.3 0
v 0.2 -0.2 0
v 0.2 -0.1 0
v 0.2 0 0
v 0.2 0.1 0
v 0.2 0.2 0
v 0.2 0.3 0
v 0.2 0.4 0
v 0.3 -0.3 0
v 0.3 -0.2 0
v 0.3 -0.1 0
v 0.3 0 0
v 0.3 0.1 0
v 0.3 0.2 0
v 0.3 0.3 0
v 0.3 0.4 0
v 0.4 -0.2 0
v 0.4 -0.1 0
v 0.4 0 0
v 0.4 0.1 0
v 0.4 0.2 0
v 0.4 0.3 0
v 0.5 -0.4 0
v 0.5 0 0
v 0.5 0.1 0
v 0.5 0.5 0
v 0.6 -0.5 0
v 0.6 0.6 0
v -0.5 -0.5 -0.1
v -0.5 0.6 -0.1
v -0.4 -0.4 -0.1
v -0.4 0 -0.1
v -0.4 0.1 -0.1
v -0.4 0.5 -0.1
v -0.3 -0.2 -0.1
v -0.3 -0.1 -0.1
v -0.3 0 -0.1
v -0.3 0.1 -0.1
v -0.3 0.2 -0.1
v -0.3 0.3 -0.1
v -0.2 -0.3 -0.1
v -0.2 -0.2 -0.1
v -0.2 -0.1 -0.1
v -0.2 0 -0.1
v -0.2 0.1 -0.1
v -0.2 0.2 -0.1
v -0.2 0.3 -0.1
v -0.2 0.4 -0.1
v -0.1 -0.3 -0.1
v -0.1 -0.2 -0.1
v -0.1 -0.1 -0.1
v -0.1 0 -0.1
v -0.1 0.1 -0.1
v -0.1 0.2 -0.1
v -0.1 0.3 -0.1
v -0.1 0.4 -0.1
v 0 -0.4 -0.1
v 0 -0.3 -0.1
v 0 -0.2 -0.1
v 0 -0.1 -0.1
v 0 0.2 -0.1
v 0 0.3 -0.1
v 0 0.4 -0.1
v 0 0.5 -0.1
v 0.1 -0.4 -0.1
v 0.1 -0.3 -0.1
v 0.1 -0.2 -0.1
v 0.1 -0.1 -0.1
v 0.1 0.2 -0.1
v 0.1 0.3 -0.1
v 0.1 0.4 -0.1
v 0.1 0.5 -0.1
v 0.2 -0.3 -0.1
v 0.2 -0.2 -0.1
v 0.2 -0.1 -0.1
v 0.2 0 -0.1
v 0.2 0.1 -0.1
v 0.2 0.2 -0.1
v 0.2 0.3 -0.1
v 0.2 0.4 -0.1
v 0.3 -0.3 -0.1
v 0.3 -0.2 -0.1
v 0.3 -0.1 -0.1
v 0.3 0 -0.1
v 0.3 0.1 -0.1
v 0.3 0.2 -0.1
v 0.3 0.3 -0.1
v 0.3 0.4 -0.1
v 0.4 -0.2 -0.1
v 0.4 -0.1 -0.1
v 0.4 0 -0.1
v 0.4 0.1 -0.1
v 0.4 0.2 -0.1
v 0.4 0.3 -0.1
v 0.5 -0.4 -0.1
v 0.5 0 -0.1
v 0.5 0.1 -0.1
v 0.5 0.5 -0.1
v 0.6 -0.5 -0.1
v 0.6 0.6 -0.1
v -0.5 -0.5 0
v 0.6 -0.5 0
v -0.5 -0.5 -0.1
v 0.6 -0.5 -0.1
v -0.5 0.6 0
v 0.6 0.6 0
v -0.5 0.6 -0.1
v 0.6 0.6 -0.1

# faces
f 3/5/1 2/5/1 1/5/1
f 4/5/1 2/5/1 3/5/1
f 5/5/2 6/5/2 7/5/2
f 7/5/2 6/5/2 8/5/2
f 11/5/3 10/5/3 9/5/3
f 12/5/3 10/5/3 11/5/3
f 13/5/3 10/5/3 12/5/3
f 14/5/3 10/5/3 13/5/3
f 15/4/3 12/4/3 11/4/3
f 16/4/3 12/4/3 15/4/3
f 17/5/3 13/5/3 12/5/3
f 17/4/3 12/4/3 16/4/3
f 18/4/3 14/4/3 13/4/3
f 18/5/3 13/5/3 17/5/3
f 19/4/3 14/4/3 18/4/3
f 20/4/3 14/4/3 19/4/3
f 21/4/3 15/4/3 11/4/3
f 22/3/3 16/3/3 15/3/3
f 22/4/3 15/4/3 21/4/3
f 23/2/3 17/2/3 16/2/3
f 23/3/3 16/3/3 22/3/3
f 24/1/3 18/1/3 17/1/3
f 24/2/3 17/2/3 23/2/3
f 25/3/3 19/3/3 18/3/3
f 25/1/3 18/1/3 24/1/3
f 26/2/3 20/2/3 19/2/3
f 26/3/3 19/3/3 25/3/3
f 27/4/3 14/4/3 20/4/3
f 27/2/3 20/2/3 26/2/3
f 28/4/3 14/4/3 27/4/3
f 29/4/3 21/4/3 11/4/3
f 29/2/3 22/2/3 21/2/3
f 29/2/3 23/2/3 22/2/3
f 30/2/3 23/2/3 29/2/3
f 31/3/3 24/3/3 23/3/3
f 31/2/3 23/2/3 30/2/3
f 32/1/3 25/1/3 24/1/3
f 32/3/3 24/3/3 31/3/3
f 33/2/3 26/2/3 25/2/3
f 33/1/3 25/1/3 32/1/3
f 33/2/3 27/2/3 26/2/3
f 34/2/3 27/2/3 33/2/3
f 35/3/3 28/3/3 27/3/3
f 35/2/3 27/2/3 34/2/3
f 36/4/3 14/4/3 28/4/3
f 36/3/3 28/3/3 35/3/3
f 37/5/3 11/5/3 9/5/3
f 37/4/3 29/4/3 11/4/3
f 38/3/3 30/3/3 29/3/3
f 38/4/3 29/4/3 37/4/3
f 39/2/3 31/2/3 30/2/3
f 39/3/3 30/3/3 38/3/3
f 40/1/3 34/1/3 33/1/3
f 40/2/3 31/2/3 39/2/3
f 40/1/3 32/1/3 31/1/3
f 40/1/3 33/1/3 32/1/3
f 41/3/3 35/3/3 34/3/3
f 41/1/3 34/1/3 40/1/3
f 42/2/3 36/2/3 35/2/3
f 42/3/3 35/3/3 41/3/3
f 43/4/3 14/4/3 36/4/3
f 43/2/3 36/2/3 42/2/3
f 44/5/3 10/5/3 14/5/3
f 44/4/3 14/4/3 43/4/3
f 45/5/3 38/5/3 37/5/3
f 45/5/3 37/5/3 9/5/3
f 46/1/3 42/1/3 41/1/3
f 46/5/3 38/5/3 45/5/3
f 46/1/3 43/1/3 42/1/3
f 46/1/3 40/1/3 39/1/3
f 46/1/3 41/1/3 40/1/3
f 46/1/3 39/1/3 38/1/3
f 47/1/3 43/1/3 46/1/3
f 48/1/3 43/1/3 47/1/3
f 49/1/3 43/1/3 48/1/3
f 50/1/3 43/1/3 49/1/3
f 51/5/3 44/5/3 43/5/3
f 51/1/3 43/1/3 50/1/3
f 52/5/3 10/5/3 44/5/3
f 52/5/3 44/5/3 51/5/3
f 53/4/3 46/4/3 45/4/3
f 53/3/3 47/3/3 46/3/3
f 54/2/3 48/2/3 47/2/3
f 54/3/3 47/3/3 53/3/3
f 55/1/3 49/1/3 48/1/3
f 55/2/3 48/2/3 54/2/3
f 56/1/3 49/1/3 55/1/3
f 57/1/3 49/1/3 56/1/3
f 58/3/3 50/3/3 49/3/3
f 58/1/3 49/1/3 57/1/3
f 59/2/3 51/2/3 50/2/3
f 59/3/3 50/3/3 58/3/3
f 60/4/3 52/4/3 51/4/3
f 60/2/3 51/2/3 59/2/3
f 61/4/3 53/4/3 45/4/3
f 61/2/3 54/2/3 53/2/3
f 61/2/3 55/2/3 54/2/3
f 62/2/3 55/2/3 61/2/3
f 63/3/3 56/3/3 55/3/3
f 63/2/3 55/2/3 62/2/3
f 64/1/3 57/1/3 56/1/3
f 64/3/3 56/3/3 63/3/3
f 65/2/3 58/2/3 57/2/3
f 65/1/3 57/1/3 64/1/3
f 65/2/3 59/2/3 58/2/3
f 66/2/3 59/2/3 65/2/3
f 67/3/3 60/3/3 59/3/3
f 67/2/3 59/2/3 66/2/3
f 68/4/3 52/4/3 60/4/3
f 68/3/3 60/3/3 67/3/3
f 69/3/3 63/3/3 62/3/3
f 69/4/3 62/4/3 61/4/3
f 70/2/3 64/2/3 63/2/3
f 70/3/3 63/3/3 69/3/3
f 71/1/3 65/1/3 64/1/3
f 71/2/3 64/2/3 70/2/3
f 72/3/3 66/3/3 65/3/3
f 72/1/3 65/1/3 71/1/3
f 73/2/3 67/2/3 66/2/3
f 73/3/3 66/3/3 72/3/3
f 74/4/3 68/4/3 67/4/3
f 74/2/3 67/2/3 73/2/3
f 75/5/3 45/5/3 9/5/3
f 75/4/3 69/4/3 61/4/3
f 75/4/3 61/4/3 45/4/3
f 75/4/3 70/4/3 69/4/3
f 75/4/3 71/4/3 70/4/3
f 76/5/3 72/5/3 71/5/3
f 76/4/3 71/4/3 75/4/3
f 77/4/3 74/4/3 73/4/3
f 77/5/3 72/5/3 76/5/3
f 77/4/3 73/4/3 72/4/3
f 78/4/3 68/4/3 74/4/3
f 78/4/3 74/4/3 77/4/3
f 78/4/3 52/4/3 68/4/3
f 78/5/3 10/5/3 52/5/3
f 79/5/3 77/5/3 76/5/3
f 79/5/3 75/5/3 9/5/3
f 79/5/3 78/5/3 77/5/3
f 79/5/3 76/5/3 75/5/3
f 80/5/3 10/5/3 78/5/3
f 80/5/3 78/5/3 79/5/3
f 81/5/4 82/5/4 83/5/4
f 83/5/4 82/5/4 84/5/4
f 84/5/4 82/5/4 85/5/4
f 85/5/4 82/5/4 86/5/4
f 83/4/4 84/4/4 87/4/4
f 87/4/4 84/4/4 88/4/4
f 84/5/4 85/5/4 89/5/4
f 88/4/4 84/4/4 89/4/4
f 85/4/4 86/4/4 90/4/4
f 89/5/4 85/5/4 90/5/4
f 90/4/4 86/4/4 91/4/4
f 91/4/4 86/4/4 92/4/4
f 83/4/4 87/4/4 93/4/4
f 87/3/4 88/3/4 94/3/4
f 93/4/4 87/4/4 94/4/4
f 88/2/4 89/2/4 95/2/4
f 94/3/4 88/3/4 95/3/4
f 89/1/4 90/1/4 96/1/4
f 95/2/4 89/2/4 96/2/4
f 90/3/4 91/3/4 97/3/4
f 96/1/4 90/1/4 97/1/4
f 91/2/4 92/2/4 98/2/4
f 97/3/4 91/3/4 98/3/4
f 92/4/4 86/4/4 99/4/4
f 98/2/4 92/2/4 99/2/4
f 99/4/4 86/4/4 100/4/4
f 83/4/4 93/4/4 101/4/4
f 93/2/4 94/2/4 101/2/4
f 94/2/4 95/2/4 101/2/4
f 101/2/4 95/2/4 102/2/4
f 95/3/4 96/3/4 103/3/4
f 102/2/4 95/2/4 103/2/4
f 96/1/4 97/1/4 104/1/4
f 103/3/4 96/3/4 104/3/4
f 97/2/4 98/2/4 105/2/4
f 104/1/4 97/1/4 105/1/4
f 98/2/4 99/2/4 105/2/4
f 105/2/4 99/2/4 106/2/4
f 99/3/4 100/3/4 107/3/4
f 106/2/4 99/2/4 107/2/4
f 100/4/4 86/4/4 108/4/4
f 107/3/4 100/3/4 108/3/4
f 81/5/4 83/5/4 109/5/4
f 83/4/4 101/4/4 109/4/4
f 101/3/4 102/3/4 110/3/4
f 109/4/4 101/4/4 110/4/4
f 102/2/4 103/2/4 111/2/4
f 110/3/4 102/3/4 111/3/4
f 105/1/4 106/1/4 112/1/4
f 111/2/4 103/2/4 112/2/4
f 103/1/4 104/1/4 112/1/4
f 104/1/4 105/1/4 112/1/4
f 106/3/4 107/3/4 113/3/4
f 112/1/4 106/1/4 113/1/4
f 107/2/4 108/2/4 114/2/4
f 113/3/4 107/3/4 114/3/4
f 108/4/4 86/4/4 115/4/4
f 114/2/4 108/2/4 115/2/4
f 86/5/4 82/5/4 116/5/4
f 115/4/4 86/4/4 116/4/4
f 109/5/4 110/5/4 117/5/4
f 81/5/4 109/5/4 117/5/4
f 113/1/4 114/1/4 118/1/4
f 117/5/4 110/5/4 118/5/4
f 114/1/4 115/1/4 118/1/4
f 111/1/4 112/1/4 118/1/4
f 112/1/4 113/1/4 118/1/4
f 110/1/4 111/1/4 118/1/4
f 118/1/4 115/1/4 119/1/4
f 119/1/4 115/1/4 120/1/4
f 120/1/4 115/1/4 121/1/4
f 121/1/4 115/1/4 122/1/4
f 115/5/4 116/5/4 123/5/4
f 122/1/4 115/1/4 123/1/4
f 116/5/4 82/5/4 124/5/4
f 123/5/4 116/5/4 124/5/4
f 117/4/4 118/4/4 125/4/4
f 118/3/4 119/3/4 125/3/4
f 119/2/4 120/2/4 126/2/4
f 125/3/4 119/3/4 126/3/4
f 120/1/4 121/1/4 127/1/4
f 126/2/4 120/2/4 127/2/4
f 127/1/4 121/1/4 128/1/4
f 128/1/4 121/1/4 129/1/4
f 121/3/4 122/3/4 130/3/4
f 129/1/4 121/1/4 130/1/4
f 122/2/4 123/2/4 131/2/4
f 130/3/4 122/3/4 131/3/4
f 123/4/4 124/4/4 132/4/4
f 131/2/4 123/2/4 132/2/4
f 117/4/4 125/4/4 133/4/4
f 125/2/4 126/2/4 133/2/4
f 126/2/4 127/2/4 133/2/4
f 133/2/4 127/2/4 134/2/4
f 127/3/4 128/3/4 135/3/4
f 134/2/4 127/2/4 135/2/4
f 128/1/4 129/1/4 136/1/4
f 135/3/4 128/3/4 136/3/4
f 129/2/4 130/2/4 137/2/4
f 136/1/4 129/1/4 137/1/4
f 130/2/4 131/2/4 137/2/4
f 137/2/4 131/2/4 138/2/4
f 131/3/4 132/3/4 139/3/4
f 138/2/4 131/2/4 139/2/4
f 132/4/4 124/4/4 140/4/4
f 139/3/4 132/3/4 140/3/4
f 134/3/4 135/3/4 141/3/4
f 133/4/4 134/4/4 141/4/4
f 135/2/4 136/2/4 142/2/4
f 141/3/4 135/3/4 142/3/4
f 136/1/4 137/1/4 143/1/4
f 142/2/4 136/2/4 143/2/4
f 137/3/4 138/3/4 144/3/4
f 143/1/4 137/1/4 144/1/4
f 138/2/4 139/2/4 145/2/4
f 144/3/4 138/3/4 145/3/4
f 139/4/4 140/4/4 146/4/4
f 145/2/4 139/2/4 146/2/4
f 81/5/4 117/5/4 147/5/4
f 133/4/4 141/4/4 147/4/4
f 117/4/4 133/4/4 147/4/4
f 141/4/4 142/4/4 147/4/4
f 142/4/4 143/4/4 147/4/4
f 143/5/4 144/5/4 148/5/4
f 147/4/4 143/4/4 148/4/4
f 145/4/4 146/4/4 149/4/4
f 148/5/4 144/5/4 149/5/4
f 144/4/4 145/4/4 149/4/4
f 146/4/4 140/4/4 150/4/4
f 149/4/4 146/4/4 150/4/4
f 140/4/4 124/4/4 150/4/4
f 124/5/4 82/5/4 150/5/4
f 148/5/4 149/5/4 151/5/4
f 81/5/4 147/5/4 151/5/4
f 149/5/4 150/5/4 151/5/4
f 147/5/4 148/5/4 151/5/4
f 150/5/4 82/5/4 152/5/4
f 151/5/4 150/5/4 152/5/4
f 155/5/5 154/5/5 153/5/5
f 156/5/5 154/5/5 155/5/5
f 157/5/6 158/5/6 159/5/6
f 159/5/6 158/5/6 160/5/6
